<svg width="557" height="389" viewBox="0 0 557 389" fill="none" xmlns="http://www.w3.org/2000/svg">
<path d="M470.096 309.864C463.771 313.539 459.831 318.067 458.271 322.813C458.282 319.114 458.292 315.415 458.303 311.716C459.863 306.971 463.803 302.444 470.128 298.768C486.993 288.97 514.424 288.97 531.401 298.768C539.885 303.666 544.15 310.084 544.184 316.506C544.173 320.203 544.163 323.902 544.154 327.601C544.119 321.181 539.853 314.76 531.368 309.864C514.393 300.066 486.962 300.066 470.096 309.864Z" fill="#ECBD1C"/>
<path d="M458.272 322.812C457.766 324.352 457.51 325.917 457.504 327.479L457.536 316.384C457.541 314.819 457.796 313.256 458.304 311.716C458.298 313.564 458.292 315.414 458.287 317.265C458.287 317.699 458.285 318.281 458.283 318.716C458.281 319.423 458.279 320.13 458.277 320.836C458.276 321.239 458.274 321.775 458.274 322.176C458.274 322.366 458.304 322.623 458.272 322.812Z" fill="#ECBD1C"/>
<path d="M544.184 316.625L544.154 327.721C544.136 334.1 539.941 340.47 531.562 345.34C514.695 355.138 487.264 355.138 470.296 345.346C461.755 340.414 457.486 333.942 457.504 327.481L457.536 316.385C457.517 322.846 461.784 329.318 470.326 334.248C487.296 344.042 514.727 344.042 531.592 334.242C539.971 329.376 544.167 323.004 544.184 316.625Z" fill="#EEB61D"/>
<path d="M544.154 327.722V327.599C544.163 323.9 544.173 320.201 544.184 316.504V316.625C544.174 319.953 544.163 324.392 544.154 327.722Z" fill="#ECBD1C"/>
<path d="M531.402 298.767C548.369 308.561 548.459 324.443 531.592 334.241C514.727 344.041 487.296 344.041 470.326 334.247C453.351 324.449 453.262 308.566 470.128 298.767C486.994 288.969 514.425 288.969 531.402 298.767Z" fill="#F28917"/>
<path d="M470.128 304.956C486.993 295.158 514.424 295.158 531.401 304.956C538.555 309.085 542.695 314.299 543.844 319.682C545.432 312.247 541.288 304.475 531.401 298.769C514.424 288.971 486.993 288.971 470.128 298.769C460.374 304.435 456.304 312.137 457.875 319.519C459.015 314.194 463.088 309.046 470.128 304.956Z" fill="#D6791D"/>
<path d="M556.004 316.66L555.974 327.755C555.952 335.874 550.614 343.982 539.947 350.178C518.486 362.645 483.573 362.647 461.973 350.178C451.099 343.904 445.667 335.665 445.692 327.441L445.723 316.345C445.699 324.569 451.129 332.807 462.003 339.084C483.605 351.551 518.518 351.551 539.977 339.082C550.643 332.888 555.983 324.778 556.004 316.66Z" fill="#F28917"/>
<path d="M470.326 334.247C487.296 344.041 514.727 344.041 531.592 334.241C548.459 324.443 548.369 308.561 531.402 298.767C514.425 288.969 486.994 288.969 470.129 298.767C453.262 308.567 453.351 324.449 470.326 334.247ZM539.733 293.927C561.333 306.394 561.445 326.613 539.977 339.082C518.518 351.551 483.605 351.551 462.003 339.083C440.397 326.613 440.283 306.396 461.744 293.927C483.21 281.456 518.125 281.456 539.733 293.927Z" fill="#FAB717"/>
<path d="M503.712 328.914L503.235 332.425L496.842 331.554L497.3 328.202C492.794 327.394 488.512 325.943 485.952 324.402L490.139 319.434C492.961 321.073 496.842 322.409 500.333 322.884C503.371 323.296 504.518 323.002 504.621 322.243C505.002 319.462 487.153 319.316 488.278 311.064C488.765 307.491 492.891 304.993 500.423 305.277L500.893 301.83L507.285 302.699L506.824 306.084C510.147 306.761 513.329 307.808 515.775 309.171L511.821 314.14C508.843 312.609 505.97 311.669 503.205 311.292C500.078 310.867 498.996 311.363 498.891 312.122C498.529 314.778 516.372 314.953 515.26 323.112C514.795 326.527 510.855 329.019 503.712 328.914Z" fill="#FAB717"/>
<path d="M444.811 143.569L441.496 143.216V299.561L438.439 299.012L434.049 317.312C434.049 317.312 452.146 316.822 452.146 301.464V156.693C452.146 146.824 447.485 144.161 444.811 143.569Z" fill="#3670C0"/>
<path d="M435.002 143.914L256.199 104.778V104.801C252.842 103.833 249.301 103.302 245.633 103.302C224.645 103.302 207.629 111.898 207.629 132.88C207.629 153.864 224.645 170.873 245.633 170.873C249.301 170.873 252.842 170.343 256.199 169.373V265.812C256.199 272.591 260.943 278.444 267.575 279.851L429.048 316.994C437.975 318.887 446.379 312.08 446.379 302.957V157.951C446.379 151.174 441.634 145.321 435.002 143.914Z" fill="#354BA6"/>
<path d="M399.511 169.371L398.598 169.101V323.245L395.539 322.706L391.149 340.746C391.149 340.746 409.246 340.262 409.246 325.121V182.386C409.246 176.371 405.283 171.071 399.511 169.371Z" fill="#3670C0"/>
<path d="M392.312 170.712L219.686 132.449L214.28 112.042C207.786 122.189 207.628 129.893 207.628 129.893V287.286C207.628 294.066 212.373 299.918 219.005 301.326L386.353 340.426C395.281 342.32 403.689 335.512 403.689 326.391V184.749C403.689 177.974 398.944 172.119 392.312 170.712Z" fill="#3551AB"/>
<path d="M444.81 143.569L255.974 102.041C248.305 100.471 240.848 100.188 233.81 101.193C225.505 102.378 218.578 105.607 214.28 112.042C210.14 118.245 210.887 123.134 212.243 126.143C217.275 137.313 238.478 140.674 241.474 141.095L397.2 175.683C397.2 175.683 403.399 176.793 403.689 186.474C403.689 186.474 407.951 171.931 399.26 169.313C399.049 169.223 398.828 169.15 398.598 169.101L242.754 134.487L242.511 134.443C237.216 133.719 221.422 130.13 218.383 123.378C218.025 122.589 216.944 120.182 219.883 115.778C223.099 110.956 228.379 108.768 234.761 107.855C241.033 106.961 247.72 107.223 254.608 108.63L441.497 149.76H441.499L441.672 149.795C442.32 149.939 444.688 150.638 445.617 153.338C446.351 155.477 446.44 151.842 446.42 149.311C446.906 148.855 447.267 148.254 447.414 147.554C447.796 145.733 446.631 143.951 444.81 143.569Z" fill="#3670C0"/>
<path d="M419.809 236.088L358.215 221.112C353.447 220.065 348.784 220.638 344.681 222.376L344.654 222.352L344.156 222.602C343.62 222.846 343.1 223.11 342.587 223.393L334.281 227.575L335.659 229.283C332.722 233.054 330.933 237.798 330.933 243.047V244.409C330.933 254.957 338.274 264.082 348.579 266.345L410.34 281.378L413.959 285.871C413.921 285.895 419.351 283.191 421.27 282.234L421.711 282.014L421.939 281.9V281.868C424.087 280.601 425.591 278.298 425.591 275.557V243.273C425.591 239.817 423.185 236.828 419.809 236.088Z" fill="#354BA6"/>
<path d="M408.051 287.12L339.976 270.722C329.671 268.461 322.33 259.333 322.33 248.787V247.425C322.33 233.081 335.598 222.415 349.612 225.489L411.206 240.465C414.583 241.205 416.988 244.196 416.988 247.652V279.932C416.988 284.633 412.642 288.126 408.051 287.12Z" fill="#3E60B6"/>
<path d="M355.957 248.958C355.957 254.836 351.189 259.603 345.309 259.603C339.427 259.603 334.661 254.836 334.661 248.958C334.661 243.08 339.427 238.313 345.309 238.313C351.189 238.313 355.957 243.08 355.957 248.958Z" fill="#354BA6"/>
<path d="M374.452 119.093C372.885 102.466 364.867 88.2455 353.571 79.435C349.912 76.5835 345.919 74.2987 341.683 72.685C340.175 72.1163 338.642 71.6263 337.077 71.2248C334.811 70.6403 332.476 70.2467 330.118 70.0598C328.724 69.9456 327.315 69.9299 325.897 69.9614L325.87 69.9457L325.454 69.983C324.635 70.0106 323.816 70.0283 322.992 70.107C322.165 70.1837 321.348 70.2881 320.537 70.412L308.972 71.4255L309.204 73.9091C291.058 82.5109 279.335 103.985 281.583 127.834C283.258 145.624 292.331 160.671 304.897 169.263C306.922 170.655 309.042 171.877 311.228 172.908C312.698 173.599 314.21 174.22 315.74 174.744C316.743 175.088 317.759 175.391 318.789 175.659L319.021 178.141L339.774 176.186L340.478 175.409C362.164 169.21 376.952 145.621 374.452 119.093Z" fill="#F28917"/>
<path d="M360.432 120.413C363.205 149.877 344.664 175.727 319.021 178.142C317.59 178.276 316.165 178.335 314.747 178.317C310.265 178.276 305.881 177.493 301.718 176.066C300.188 175.542 298.678 174.921 297.208 174.23C295.021 173.197 292.9 171.977 290.877 170.585C278.308 161.991 269.236 146.944 267.559 129.154C264.786 99.6904 283.327 73.8416 308.972 71.4269C311.375 71.2006 313.753 71.1908 316.096 71.3817C318.456 71.5667 320.789 71.9623 323.055 72.5448C324.62 72.9462 326.155 73.4382 327.661 74.0069C331.898 75.6206 335.89 77.9034 339.551 80.7569C350.845 89.5654 358.865 103.786 360.432 120.413Z" fill="#FAB717"/>
<path d="M333.598 154.664L287.121 144.342C284.363 139.497 282.532 133.877 281.959 127.798C280.048 107.499 292.865 89.6337 310.531 87.9727C311.421 87.8881 312.302 87.8468 313.182 87.8468C329.762 87.8468 344.217 102.49 346.032 121.766C347.286 135.069 342.215 147.326 333.598 154.664Z" fill="#FBCA3C"/>
<path d="M283.92 128.019C281.865 106.212 295.585 87.0877 314.56 85.3009C314.755 85.2831 314.946 85.293 315.137 85.2792C313.535 85.173 311.919 85.1454 310.277 85.3009C291.3 87.0877 277.579 106.212 279.632 128.019C281.668 149.603 298.396 165.693 317.137 164.29C300.196 163.16 285.796 147.94 283.92 128.019Z" fill="#D6791D"/>
<path d="M348.356 121.55C346.48 101.628 332.082 86.4081 315.137 85.2785C314.946 85.2923 314.755 85.2824 314.56 85.3001C295.585 87.087 281.864 106.211 283.92 128.018C285.796 147.939 300.196 163.159 317.137 164.289C317.332 164.273 317.521 164.287 317.716 164.267C336.693 162.481 350.411 143.354 348.356 121.55Z" fill="#F28917"/>
<path d="M317.907 139.555L318.088 144.809L311.749 145.025L311.576 140.009C307.074 139.877 302.668 138.75 299.912 137.091L303.05 128.831C306.079 130.577 310.074 131.624 313.534 131.506C316.546 131.401 317.601 130.703 317.562 129.565C317.42 125.401 300.142 129.359 299.717 117.004C299.536 111.653 303.066 107.03 310.396 105.69L310.219 100.53L316.558 100.312L316.731 105.377C320.068 105.594 323.336 106.383 325.95 107.81L323.037 116.014C319.879 114.463 316.93 113.759 314.188 113.853C311.087 113.96 310.131 114.94 310.17 116.075C310.306 120.052 327.586 116.142 328.005 128.355C328.18 133.466 324.826 138.037 317.907 139.555Z" fill="#FBC015"/>
<path d="M237.34 324.251V324.129C237.352 320.455 237.361 316.783 237.371 313.109L237.373 313.229C237.363 316.537 237.35 320.945 237.34 324.251Z" fill="#ECBD1C"/>
<path d="M238.043 307.517V307.395C238.053 303.72 238.063 300.046 238.074 296.374V296.494C238.065 299.8 238.051 304.209 238.043 307.517Z" fill="#ECBD1C"/>
<path d="M221.009 7.43866e-05L222.701 4.4001C223.742 7.10653 225.882 9.24595 228.591 10.2867L232.993 11.9766L228.591 13.6684C225.882 14.7092 223.742 16.8486 222.701 19.555L221.009 23.9551L219.318 19.555C218.277 16.8486 216.137 14.7092 213.43 13.6684L209.028 11.9766L213.43 10.2867C216.137 9.24595 218.277 7.10653 219.318 4.4001L221.009 7.43866e-05Z" fill="#FAC761"/>
<path d="M114.11 46.963L115.331 50.1339C116.081 52.083 117.622 53.6256 119.574 54.3754L122.745 55.5933L119.574 56.8132C117.622 57.563 116.081 59.1037 115.331 61.0547L114.11 64.2256L112.892 61.0547C112.14 59.1037 110.599 57.563 108.647 56.8132L105.475 55.5933L108.647 54.3754C110.599 53.6256 112.14 52.083 112.892 50.1339L114.11 46.963Z" fill="#FAC761"/>
<path d="M327.611 38.8399L328.744 41.7888C329.441 43.6055 330.876 45.038 332.692 45.7356L335.643 46.8697L332.692 48.0037C330.876 48.7013 329.441 50.1357 328.744 51.9505L327.611 54.8994L326.477 51.9505C325.779 50.1357 324.344 48.7013 322.529 48.0037L319.577 46.8697L322.529 45.7356C324.344 45.038 325.779 43.6055 326.477 41.7888L327.611 38.8399Z" fill="#FAC761"/>
<path d="M12.4298 141.175L13.3496 143.57C13.9168 145.043 15.0811 146.207 16.5551 146.774L18.9489 147.694L16.5551 148.615C15.0811 149.181 13.9168 150.346 13.3496 151.818L12.4298 154.213L11.5081 151.818C10.9409 150.346 9.7766 149.181 8.30261 148.615L5.90881 147.694L8.30261 146.774C9.7766 146.207 10.9409 145.043 11.5081 143.57L12.4298 141.175Z" fill="#FAC761"/>
<path d="M428.25 93.0803L429.171 95.4752C429.739 96.9487 430.903 98.1126 432.377 98.6778L434.771 99.5992L432.377 100.521C430.903 101.086 429.739 102.25 429.171 103.723L428.25 106.118L427.33 103.723C426.763 102.25 425.598 101.086 424.124 100.521L421.731 99.5992L424.124 98.6778C425.598 98.1126 426.763 96.9487 427.33 95.4752L428.25 93.0803Z" fill="#FAC761"/>
<path d="M73.2682 298.378C61.8559 305.007 54.7461 313.183 51.9315 321.742C51.9494 315.071 51.9673 308.392 51.9887 301.717C54.8033 293.158 61.9132 284.985 73.3255 278.353C103.764 260.67 153.265 260.67 183.9 278.353C199.214 287.191 206.907 298.775 206.971 310.359C206.953 317.034 206.932 323.712 206.914 330.384C206.85 318.8 199.153 307.213 183.843 298.378C153.207 280.695 103.707 280.695 73.2682 298.378Z" fill="#ECBD1C"/>
<path d="M51.933 321.742C51.0164 324.523 50.5545 327.344 50.5474 330.165L50.6047 310.144C50.6119 307.323 51.0737 304.502 51.9902 301.717C51.9795 305.056 51.9688 308.392 51.9616 311.731C51.9581 312.518 51.9545 313.565 51.9545 314.348C51.9509 315.628 51.9473 316.901 51.9401 318.181C51.9401 318.903 51.9365 319.868 51.933 320.594C51.933 320.937 51.9867 321.402 51.933 321.742Z" fill="#ECBD1C"/>
<path d="M206.971 310.58L206.914 330.601C206.881 342.113 199.31 353.611 184.189 362.396C153.754 380.075 104.25 380.079 73.6291 362.407C58.2149 353.508 50.5149 341.827 50.5471 330.165L50.6044 310.143C50.5722 321.802 58.2686 333.483 73.6864 342.378C104.307 360.054 153.808 360.054 184.247 342.371C199.371 333.583 206.939 322.088 206.971 310.58Z" fill="#EEB61D"/>
<path d="M183.899 278.353C214.52 296.025 214.685 324.688 184.246 342.371C153.808 360.055 104.307 360.055 73.6861 342.379C43.0509 324.699 42.8899 296.033 73.3249 278.353C103.764 260.67 153.264 260.67 183.899 278.353Z" fill="#8CBAE7"/>
<path d="M73.3252 289.519C103.764 271.835 153.264 271.835 183.9 289.519C196.814 296.969 204.285 306.376 206.356 316.09C209.221 302.679 201.742 288.65 183.9 278.353C153.264 260.67 103.764 260.67 73.3252 278.353C55.7223 288.578 48.38 302.475 51.2196 315.8C53.2724 306.19 60.6255 296.898 73.3252 289.519Z" fill="#3757AF"/>
<path d="M228.301 310.637L228.247 330.662C228.204 345.317 218.569 359.947 199.321 371.13C160.596 393.626 97.591 393.626 58.612 371.13C38.9849 359.804 29.1856 344.938 29.2285 330.097L29.2857 310.069C29.2428 324.913 39.0421 339.779 58.6657 351.109C97.6483 373.604 160.65 373.604 199.378 351.105C218.627 339.926 228.261 325.292 228.301 310.637Z" fill="#F28917"/>
<path d="M73.6866 342.379C104.308 360.055 153.808 360.055 184.247 342.371C214.685 324.688 214.521 296.025 183.9 278.353C153.265 260.67 103.764 260.67 73.3253 278.353C42.8903 296.033 43.0513 324.699 73.6866 342.379ZM198.931 269.619C237.914 292.118 238.118 328.6 199.378 351.106C160.65 373.605 97.6483 373.605 58.6658 351.109C19.6725 328.603 19.4686 292.118 58.1937 269.619C96.933 247.112 159.938 247.112 198.931 269.619Z" fill="#FAB717"/>
<path d="M133.934 332.757L133.072 339.089L121.538 337.519L122.361 331.47C114.228 330.015 106.506 327.394 101.886 324.616L109.439 315.646C114.535 318.606 121.538 321.012 127.836 321.87C133.315 322.618 135.389 322.085 135.575 320.716C136.262 315.692 104.053 315.435 106.081 300.54C106.961 294.091 114.407 289.586 127.997 290.097L128.848 283.88L140.382 285.449L139.549 291.552C145.546 292.779 151.286 294.666 155.703 297.126L148.565 306.093C143.193 303.326 138.007 301.635 133.018 300.952C127.375 300.187 125.418 301.08 125.232 302.45C124.581 307.244 156.78 307.559 154.777 322.282C153.933 328.449 146.823 332.943 133.934 332.757Z" fill="#3757AF"/>
<path d="M79.6593 272.228C68.247 278.864 61.1371 287.037 58.3225 295.596C58.3404 288.921 58.3583 282.246 58.3798 275.574C61.1908 267.012 68.3042 258.835 79.7164 252.207C110.155 234.523 159.656 234.523 190.287 252.207C205.605 261.041 213.298 272.628 213.362 284.212C213.344 290.887 213.323 297.562 213.305 304.237C213.241 292.65 205.544 281.066 190.234 272.228C159.595 254.548 110.098 254.548 79.6593 272.228Z" fill="#ECBD1C"/>
<path d="M58.3233 295.596C57.4067 298.377 56.9449 301.198 56.9377 304.022L56.9914 283.994C57.0022 281.173 57.4641 278.352 58.3806 275.574C58.3699 278.906 58.3591 282.246 58.3483 285.585C58.3483 286.368 58.3448 287.415 58.3412 288.206C58.3376 289.478 58.334 290.758 58.3304 292.031C58.3304 292.757 58.3268 293.722 58.3268 294.448C58.3233 294.791 58.377 295.256 58.3233 295.596Z" fill="#ECBD1C"/>
<path d="M213.362 284.431L213.304 304.456C213.269 315.972 205.701 327.463 190.58 336.247C160.145 353.934 110.641 353.934 80.0198 336.258C64.602 327.363 56.9057 315.682 56.9378 304.023L56.9915 283.999C56.9628 295.657 64.6592 307.338 80.077 316.237C110.698 333.909 160.199 333.909 190.637 316.226C205.758 307.441 213.329 295.943 213.362 284.431Z" fill="#EEB61D"/>
<path d="M190.287 252.206C220.912 269.879 221.073 298.545 190.638 316.225C160.199 333.908 110.698 333.908 80.0774 316.235C49.4421 298.548 49.2812 269.889 79.7162 252.206C110.155 234.523 159.655 234.523 190.287 252.206Z" fill="#F28917"/>
<path d="M79.7165 263.371C110.155 245.688 159.656 245.688 190.287 263.371C203.202 270.822 210.676 280.228 212.747 289.942C215.615 276.528 208.134 262.499 190.287 252.206C159.656 234.522 110.155 234.522 79.7165 252.206C62.1172 262.431 54.7677 276.328 57.6109 289.649C59.6638 280.043 67.0168 270.75 79.7165 263.371Z" fill="#D6791D"/>
<path d="M234.691 284.492L234.634 304.517C234.595 319.172 224.96 333.802 205.712 344.985C166.987 367.484 103.982 367.484 64.9993 344.985C45.3757 333.659 35.5764 318.793 35.6193 303.948L35.6766 283.927C35.6336 298.768 45.4329 313.634 65.0565 324.96C104.035 347.459 167.041 347.456 205.769 324.96C225.014 313.777 234.652 299.143 234.691 284.492Z" fill="#F28917"/>
<path d="M80.0776 316.234C110.699 333.907 160.199 333.907 190.638 316.224C221.073 298.544 220.912 269.878 190.287 252.205C159.656 234.522 110.155 234.522 79.7163 252.205C49.2813 269.888 49.4423 298.548 80.0776 316.234ZM205.326 243.467C244.305 265.966 244.512 302.452 205.769 324.958C167.041 347.454 104.036 347.457 65.0568 324.958C26.0635 302.452 25.856 265.966 64.5847 243.471C103.324 220.961 166.329 220.961 205.326 243.467Z" fill="#FAB717"/>
<path d="M140.325 306.607L139.463 312.946L127.929 311.373L128.752 305.324C120.619 303.869 112.894 301.244 108.274 298.467L115.831 289.496C120.927 292.456 127.929 294.866 134.227 295.721C139.706 296.468 141.781 295.939 141.967 294.569C142.65 289.546 110.445 289.289 112.472 274.394C113.352 267.945 120.798 263.436 134.392 263.955L135.236 257.73L146.77 259.303L145.94 265.41C151.938 266.632 157.678 268.52 162.095 270.98L154.956 279.947C149.584 277.183 144.399 275.485 139.41 274.809C133.766 274.04 131.81 274.934 131.624 276.307C130.973 281.098 163.171 281.416 161.165 296.139C160.328 302.299 153.214 306.797 140.325 306.607Z" fill="#3757AF"/>
<path d="M62.235 239.183C50.8192 245.815 43.7093 253.988 40.8947 262.547C40.9125 255.876 40.934 249.201 40.9519 242.526C43.7665 233.963 50.8764 225.79 62.2886 219.158C92.7272 201.475 142.228 201.475 172.863 219.158C188.177 227.996 195.87 239.58 195.934 251.167C195.916 257.842 195.899 264.513 195.877 271.188C195.813 259.605 188.12 248.021 172.809 239.183C142.171 221.5 92.67 221.5 62.235 239.183Z" fill="#ECBD1C"/>
<path d="M40.8956 262.548C39.9827 265.329 39.5209 268.154 39.5101 270.975L39.5674 250.95C39.5745 248.129 40.0364 245.304 40.953 242.526C40.9422 245.862 40.9351 249.201 40.9243 252.537C40.9207 253.324 40.9171 254.371 40.9171 255.158C40.9136 256.434 40.91 257.71 40.9064 258.987C40.9028 259.709 40.8992 260.678 40.8992 261.4C40.8957 261.747 40.9529 262.208 40.8956 262.548Z" fill="#ECBD1C"/>
<path d="M195.938 251.381L195.877 271.409C195.845 282.918 188.277 294.416 173.152 303.201C142.717 320.884 93.2168 320.884 62.5922 303.208C47.178 294.312 39.478 282.632 39.5102 270.973L39.5674 250.948C39.5352 262.611 47.2352 274.288 62.6494 283.186C93.2704 300.859 142.775 300.859 173.21 283.179C188.334 274.391 195.902 262.897 195.938 251.381Z" fill="#EEB61D"/>
<path d="M172.863 219.157C203.488 236.833 203.649 265.492 173.21 283.179C142.775 300.858 93.2707 300.858 62.6498 283.186C32.0145 265.503 31.8535 236.84 62.2885 219.157C92.7271 201.474 142.228 201.474 172.863 219.157Z" fill="#8CBAE7"/>
<path d="M62.2884 230.323C92.727 212.64 142.228 212.64 172.863 230.323C185.777 237.774 193.252 247.181 195.323 256.895C198.184 243.48 190.706 229.454 172.863 219.158C142.228 201.475 92.727 201.475 62.2884 219.158C44.6891 229.383 37.3432 243.28 40.1828 256.605C42.2356 246.998 49.5887 237.703 62.2884 230.323Z" fill="#3757AF"/>
<path d="M217.264 251.444L217.21 271.466C217.167 286.121 207.536 300.754 188.288 311.934C149.559 334.433 86.554 334.433 47.575 311.937C27.9478 300.611 18.1521 285.742 18.1914 270.901L18.2487 250.876C18.2058 265.717 28.005 280.582 47.6322 291.909C86.6112 314.408 149.616 314.408 188.345 291.909C207.589 280.729 217.224 266.096 217.264 251.444Z" fill="#F28917"/>
<path d="M62.6496 283.187C93.2706 300.86 142.775 300.86 173.21 283.18C203.648 265.493 203.487 236.831 172.863 219.158C142.228 201.475 92.727 201.475 62.2884 219.158C31.8534 236.841 32.0143 265.504 62.6496 283.187ZM187.898 210.424C226.877 232.923 227.084 269.405 188.345 291.911C149.616 314.41 86.6114 314.41 47.6324 291.911C8.63555 269.405 8.43167 232.923 47.1567 210.424C85.8961 187.918 148.905 187.918 187.898 210.424Z" fill="#FAB717"/>
<path d="M122.901 273.562L122.036 279.897L110.502 278.324L111.328 272.279C103.195 270.823 95.4703 268.199 90.8496 265.421L98.4029 256.451C103.499 259.411 110.502 261.817 116.8 262.675C122.282 263.423 124.353 262.894 124.539 261.521C125.226 256.501 93.0169 256.24 95.0483 241.346C95.9245 234.899 103.37 230.391 116.964 230.906L117.812 224.685L129.346 226.254L128.512 232.361C134.51 233.587 140.254 235.471 144.667 237.931L137.528 246.898C132.16 244.134 126.975 242.44 121.982 241.76C116.338 240.992 114.386 241.889 114.2 243.258C113.545 248.049 145.743 248.364 143.741 263.09C142.9 269.254 135.787 273.748 122.901 273.562Z" fill="#3757AF"/>
<path d="M63.5079 208.775C52.0957 215.411 44.9859 223.584 42.1713 232.143C42.1891 225.468 42.207 218.793 42.2285 212.121C45.0431 203.559 52.153 195.382 63.5652 188.754C94.0038 171.07 143.504 171.07 174.14 188.754C189.45 197.588 197.147 209.172 197.211 220.763C197.189 227.434 197.172 234.109 197.15 240.784C197.089 229.197 189.393 217.613 174.083 208.775C143.447 191.095 93.9465 191.095 63.5079 208.775Z" fill="#ECBD1C"/>
<path d="M42.173 232.142C41.2564 234.924 40.7945 237.745 40.7874 240.569L40.8447 220.541C40.8519 217.72 41.3137 214.899 42.2302 212.121C42.2195 215.457 42.2088 218.792 42.2016 222.128C42.198 222.915 42.1945 223.966 42.1945 224.752C42.1909 226.025 42.1873 227.305 42.1801 228.578C42.1801 229.304 42.1765 230.269 42.1765 230.995C42.173 231.342 42.2267 231.803 42.173 232.142Z" fill="#ECBD1C"/>
<path d="M197.211 220.978L197.154 241.003C197.122 252.518 189.55 264.009 174.429 272.797C143.994 290.48 94.4902 290.48 63.8692 272.804C48.455 263.909 40.755 252.229 40.7872 240.57L40.8445 220.545C40.8123 232.204 48.5087 243.881 63.9265 252.783C94.5474 270.455 144.048 270.455 174.487 252.772C189.608 243.988 197.175 232.49 197.211 220.978Z" fill="#EEB61D"/>
<path d="M174.139 188.753C204.76 206.425 204.921 235.088 174.486 252.771C144.048 270.455 94.5471 270.455 63.9261 252.782C33.2909 235.095 33.1299 206.436 63.5649 188.753C94.0035 171.07 143.504 171.07 174.139 188.753Z" fill="#F28917"/>
<path d="M63.5652 199.918C94.0038 182.235 143.504 182.235 174.14 199.918C187.05 207.369 194.525 216.775 196.596 226.489C199.464 213.075 191.982 199.046 174.14 188.752C143.504 171.069 94.0038 171.069 63.5652 188.752C45.9623 198.978 38.6199 212.875 41.4596 226.196C43.5124 216.589 50.8655 207.297 63.5652 199.918Z" fill="#D6791D"/>
<path d="M218.545 221.039L218.485 241.064C218.445 255.719 208.811 270.349 189.562 281.532C150.837 304.031 87.8322 304.031 48.8533 281.532C29.2261 270.206 19.4268 255.34 19.4697 240.495L19.5269 220.474C19.484 235.315 29.2834 250.181 48.907 261.507C87.8895 284.006 150.895 284.002 189.62 261.507C208.868 250.324 218.502 235.69 218.545 221.039Z" fill="#F28917"/>
<path d="M63.9278 252.781C94.5488 270.454 144.049 270.454 174.488 252.771C204.923 235.087 204.762 206.425 174.141 188.752C143.506 171.069 94.0051 171.069 63.5666 188.752C33.1316 206.435 33.2925 235.095 63.9278 252.781ZM189.176 180.018C228.155 202.513 228.359 238.999 189.62 261.505C150.895 284 87.8895 284.004 48.907 261.505C9.9137 238.999 9.70982 202.513 48.4349 180.018C87.1742 157.512 150.183 157.508 189.176 180.018Z" fill="#FAB717"/>
<path d="M124.178 243.154L123.312 249.493L111.778 247.92L112.601 241.871C104.468 240.416 96.7467 237.791 92.126 235.013L99.6793 226.047C104.776 229.003 111.778 231.413 118.076 232.268C123.559 233.015 125.629 232.486 125.815 231.116C126.502 226.097 94.2933 225.836 96.3211 210.941C97.2009 204.491 104.647 199.983 118.237 200.501L119.088 194.277L130.622 195.85L129.789 201.957C135.786 203.179 141.53 205.067 145.943 207.527L138.805 216.494C133.433 213.73 128.247 212.032 123.258 211.356C117.615 210.587 115.659 211.481 115.473 212.854C114.822 217.648 147.02 217.959 145.014 232.686C144.173 238.846 137.063 243.344 124.178 243.154Z" fill="#FAB717"/>
<path d="M29.8768 270.082L36.4055 258.432L173.222 165.105L178.906 174.1L29.8768 270.082Z" fill="#E6E7E8"/>
<path d="M204.612 159.848L181.374 174.553C179.877 175.515 178.07 175.87 176.32 175.547C174.57 175.224 173.009 174.247 171.955 172.815C170.9 171.382 170.431 169.601 170.643 167.835C170.854 166.069 171.731 164.45 173.095 163.307C173.338 163.087 173.6 162.889 173.878 162.715L197.112 148.01C198.404 147.187 199.931 146.81 201.458 146.937C202.986 147.065 204.429 147.691 205.566 148.718C206.703 149.745 207.471 151.117 207.753 152.623C208.035 154.128 207.814 155.685 207.126 157.054C206.834 157.653 206.452 158.204 205.991 158.685C205.583 159.13 205.12 159.521 204.612 159.848Z" fill="#353635"/>
<path d="M205.985 158.697L190.614 152.109L192.626 150.828L207.103 157.049C206.82 157.654 206.443 158.21 205.985 158.697Z" fill="#FCB91F"/>
<path d="M202.404 161.242L200.363 162.527L184.744 155.829L186.784 154.54L202.404 161.242Z" fill="#FCB91F"/>
<path d="M196.539 164.955L194.498 166.227L178.875 159.554L180.915 158.261L196.539 164.955Z" fill="#FCB91F"/>
<path d="M190.651 168.683L188.611 169.96L173.089 163.299C173.336 163.083 173.599 162.886 173.877 162.712L175.035 161.981L190.651 168.683Z" fill="#FCB91F"/>
<path d="M167.596 154.704L188.651 187.223L182.824 190.915L161.769 158.392L167.596 154.704Z" fill="#353635"/>
<path d="M197.764 277.624L192.173 265.493L63.232 161.544L56.8462 170.053L197.764 277.624Z" fill="#E6E7E8"/>
<path d="M32.3768 153.799L54.3662 170.312C55.7814 171.391 57.5547 171.89 59.3252 171.709C61.0958 171.527 62.7305 170.677 63.8967 169.333C65.0629 167.989 65.673 166.251 65.6027 164.473C65.5325 162.695 64.7872 161.011 63.5186 159.763C63.2945 159.523 63.0487 159.305 62.7842 159.11L40.7988 142.598C39.5766 141.674 38.0847 141.177 36.5524 141.183C35.0201 141.188 33.532 141.697 32.3166 142.63C31.1012 143.563 30.2257 144.868 29.8245 146.347C29.4234 147.825 29.5187 149.394 30.0959 150.813C30.3363 151.438 30.6722 152.021 31.0915 152.543C31.4636 153.016 31.8957 153.438 32.3768 153.799Z" fill="#353635"/>
<path d="M31.0996 152.543L46.948 147.203L45.0424 145.768L30.1122 150.813C30.3481 151.438 30.6813 152.022 31.0996 152.543Z" fill="#FCB91F"/>
<path d="M34.4656 155.363L36.3834 156.811L52.501 151.382L50.5751 149.934L34.4656 155.363Z" fill="#FCB91F"/>
<path d="M40.0156 159.535L41.9416 160.962L58.047 155.562L56.121 154.109L40.0156 159.535Z" fill="#FCB91F"/>
<path d="M45.5845 163.719L47.4941 165.155L63.5179 159.754C63.2903 159.518 63.0432 159.301 62.7794 159.106L61.6817 158.29L45.5845 163.719Z" fill="#FCB91F"/>
<path d="M69.6883 151.63L46.1035 182.362L51.6162 186.506L75.201 155.766L69.6883 151.63Z" fill="#353635"/>
<path d="M224.556 221.905L216.046 218.886C214.721 218.415 213.265 219.108 212.795 220.433C212.325 221.758 213.018 223.213 214.343 223.683L222.853 226.702C224.178 227.173 225.634 226.48 226.104 225.155C226.574 223.83 225.881 222.375 224.556 221.905Z" fill="#0F2336"/>
<path d="M216.212 222.577C219.097 225.078 223.601 227.953 229.126 228.064C229.891 228.085 230.638 228.295 231.3 228.677C231.963 229.059 232.52 229.599 232.921 230.25C234.622 232.995 234.765 237.523 219.709 239.563C219.709 239.563 215.628 240.293 207.202 234.076C206.692 233.7 206.262 233.226 205.937 232.682C205.612 232.139 205.399 231.536 205.309 230.908C205.22 230.281 205.256 229.643 205.415 229.03C205.575 228.417 205.855 227.841 206.239 227.337L209.328 223.303C209.72 222.787 210.214 222.357 210.779 222.039C211.344 221.721 211.968 221.522 212.613 221.454C213.258 221.386 213.91 221.451 214.528 221.644C215.147 221.837 215.72 222.154 216.212 222.577Z" fill="#0F2336"/>
<path d="M148.314 168.532L214.975 217.58C214.975 217.58 212.935 228.149 204.056 232.762L132.453 192.542L148.314 168.532Z" fill="#091D28"/>
<path d="M100.101 193.898L28.2933 235.052C28.2933 235.052 19.451 228.909 18.8063 218.936L84.5337 169.696L100.101 193.898Z" fill="#091D28"/>
<path d="M77.5949 156.417L73.1472 254.316H156.653H158.705V227.353L156.653 161.806L77.5949 156.417Z" fill="#0F2336"/>
<path d="M10.7968 228.039L19.3068 225.019C20.632 224.549 21.325 223.094 20.8547 221.769C20.3844 220.444 18.9288 219.752 17.6035 220.222L9.09362 223.241C7.76839 223.711 7.07535 225.166 7.54568 226.491C8.01601 227.816 9.4716 228.509 10.7968 228.039Z" fill="#0F2336"/>
<path d="M17.4791 223.914C14.5943 226.414 10.0936 229.29 4.56868 229.4C3.80433 229.421 3.05722 229.632 2.39474 230.013C1.73225 230.395 1.17522 230.936 0.773887 231.586C-0.931729 234.332 -1.07454 238.859 13.9822 240.903C13.9822 240.903 18.0626 241.629 26.4887 235.417C26.9987 235.04 27.4287 234.566 27.7537 234.022C28.0787 233.478 28.2923 232.874 28.3819 232.247C28.4715 231.619 28.4354 230.98 28.2757 230.367C28.116 229.754 27.8359 229.178 27.4517 228.674L24.3465 224.64C23.9537 224.127 23.4605 223.699 22.897 223.383C22.3335 223.067 21.7115 222.869 21.069 222.801C20.4264 222.733 19.7767 222.796 19.1595 222.988C18.5423 223.179 17.9706 223.494 17.4791 223.914Z" fill="#0F2336"/>
<path d="M115.368 281.9C115.702 281.485 116.119 281.144 116.592 280.9C122.95 277.637 169.638 253.619 179.692 247.137C180.255 246.774 180.7 246.468 181.018 246.219C187.432 241.267 182.209 208.691 154.605 219.579L154.267 219.721C150.962 221.255 100.287 245.012 89.3881 264.474L89.2248 264.739C88.115 266.452 75.5799 286.285 84.516 296.609C85.3247 297.521 86.3976 298.158 87.5853 298.431C88.7731 298.704 90.0166 298.601 91.1426 298.135C96.7818 295.83 108.403 290.396 115.368 281.9Z" fill="#091D28"/>
<path d="M75.545 222.903L154.893 225.11C156.056 224.934 157.23 224.84 158.406 224.828L159.067 222.34C156.007 222.218 158.659 221.851 158.741 221.565L158.369 213.178C158.296 212.893 158.618 211.408 157.733 211.518L75.8796 209.405C75.8187 209.406 75.7586 209.419 75.7027 209.444C75.6469 209.468 75.5965 209.503 75.5544 209.547C75.5123 209.591 75.4793 209.643 75.4574 209.7C75.4355 209.757 75.425 209.818 75.4266 209.878L75.2348 217.755L75.1206 222.405C75.1156 222.466 75.1226 222.527 75.1412 222.585C75.1599 222.643 75.1898 222.696 75.2292 222.743C75.2687 222.789 75.3169 222.827 75.371 222.854C75.4252 222.882 75.4843 222.898 75.545 222.903Z" fill="#2E343D"/>
<path d="M159.633 176.626C159.68 177.149 159.696 177.675 159.682 178.201C159.646 179.457 158.266 180.46 156.593 180.469L77.6945 180.823C76.4173 180.823 75.3727 180.065 75.3605 179.106L75.5523 177.65L159.633 176.626Z" fill="#091D28"/>
<path opacity="0.2" d="M171.885 97.8246L129.93 98.2733C129.628 98.2765 129.329 98.2203 129.049 98.1079C128.769 97.9954 128.514 97.829 128.299 97.618C128.083 97.407 127.911 97.1556 127.793 96.8782C127.674 96.6008 127.612 96.3028 127.608 96.0012C127.605 95.6998 127.661 95.4007 127.774 95.1211C127.886 94.8415 128.053 94.5867 128.264 94.3715C128.475 94.1563 128.727 93.9849 129.004 93.8669C129.282 93.749 129.58 93.6869 129.881 93.6843L171.836 93.256C172.445 93.2505 173.031 93.4866 173.467 93.9124C173.902 94.3383 174.15 94.9193 174.158 95.528C174.157 96.1326 173.918 96.7124 173.493 97.1422C173.067 97.5719 172.49 97.8171 171.885 97.8246Z" fill="white"/>
<path d="M119.964 281.193C119.569 280.71 119.08 280.312 118.527 280.023C111.705 276.523 65.5266 252.766 55.55 246.325C55.0676 246.079 54.6203 245.771 54.2198 245.407C45.6019 234.336 53.0201 207.932 80.5548 218.734C80.7262 218.799 80.8894 218.872 81.0567 218.95C85.0229 220.793 134.918 244.289 145.837 263.6C145.911 263.73 145.984 263.857 146.07 263.983C147.233 265.79 156.712 280.973 153.133 291.583C152.766 292.661 152.179 293.65 151.409 294.489C150.638 295.328 149.702 295.998 148.659 296.456C147.616 296.914 146.49 297.15 145.351 297.15C144.212 297.149 143.085 296.912 142.043 296.453C135.991 293.81 126.186 288.699 119.964 281.193Z" fill="#0F2336"/>
<path d="M90.9672 279.84C90.9672 279.84 84.2958 289.312 87.5152 294.484C87.5152 294.484 93.7093 296.907 100.042 290.201C100.042 290.201 101.376 281.769 90.9672 279.84Z" fill="#0F2336"/>
<path d="M127.704 285.502C127.704 285.502 134.045 292.147 141.777 293.538C141.777 293.538 149.815 291.531 145.951 280.399C145.943 280.399 132.498 268.651 127.704 285.502Z" fill="#091D28"/>
<path d="M176.998 77.5586L80.9894 78.5253C77.2999 78.5556 73.6596 79.3741 70.3125 80.9261C66.9654 82.4781 63.989 84.7277 61.5829 87.5239C61.0847 88.0865 60.6162 88.6747 60.1792 89.2861C56.8904 93.7976 58.8327 99.2392 58.8817 104.824L55.2623 109.311L55.7112 153.108C55.7421 156.524 56.4458 159.901 57.7822 163.045C59.1185 166.189 61.0613 169.039 63.4995 171.433C65.9378 173.827 68.8238 175.717 71.9928 176.995C75.1617 178.274 78.5516 178.916 81.9687 178.884H82.0054L151.993 178.175C155.41 178.143 158.788 177.438 161.933 176.101C165.078 174.764 167.929 172.82 170.322 170.381C172.716 167.943 174.606 165.057 175.883 161.888C177.161 158.719 177.802 155.329 177.769 151.913V151.864L176.998 77.5586ZM161.084 129.515C161.09 130.396 161.016 131.277 160.864 132.146C160.277 135.312 158.61 138.176 156.146 140.25C153.682 142.325 150.574 143.479 147.353 143.518L90.4478 144.085C87.227 144.111 84.0972 143.018 81.5924 140.994C79.0876 138.97 77.363 136.14 76.7131 132.986C76.542 132.12 76.4518 131.241 76.4438 130.359C76.4144 126.68 77.8447 123.14 80.4214 120.514C82.9981 117.887 86.5111 116.389 90.1908 116.347L147.06 115.776C150.737 115.74 154.278 117.165 156.905 119.738C159.532 122.312 161.029 125.822 161.068 129.498L161.084 129.515Z" fill="#0F2336"/>
<path d="M163.887 113.354H71.2247V147.35H163.887V113.354Z" fill="#0F2336"/>
<path d="M70.0186 130.278C70.0185 131.223 70.1046 132.166 70.2756 133.096C70.9331 136.48 72.7446 139.531 75.4012 141.728C78.0577 143.926 81.3947 145.134 84.8427 145.146L145.735 145.24C149.185 145.244 152.528 144.049 155.193 141.858C157.857 139.668 159.677 136.619 160.339 133.235C160.514 132.307 160.604 131.365 160.608 130.42C160.607 126.485 159.046 122.711 156.266 119.925C153.487 117.139 149.716 115.568 145.78 115.556L84.8876 115.458C82.9379 115.455 81.0066 115.836 79.204 116.579C77.4015 117.322 75.7631 118.412 74.3823 119.789C73.0015 121.165 71.9055 122.799 71.1567 124.599C70.408 126.399 70.0212 128.328 70.0186 130.278Z" fill="#F0977E"/>
<path d="M70.276 133.097C70.9335 136.481 72.745 139.531 75.4016 141.729C78.0581 143.926 81.3951 145.134 84.8431 145.147L145.735 145.24C149.185 145.245 152.529 144.049 155.193 141.859C157.858 139.669 159.677 136.62 160.339 133.236C159.682 129.852 157.87 126.801 155.214 124.603C152.557 122.406 149.22 121.198 145.772 121.186L84.8798 121.088C81.4304 121.087 78.0878 122.284 75.4238 124.474C72.7599 126.665 70.9402 129.713 70.276 133.097Z" fill="#F9C197"/>
<path d="M30.5706 78.7871L47.0922 69.4092L65.499 101.822L52.8456 109.005L50.2096 106.395L46.7494 107.272L30.5706 78.7871Z" fill="#F26E26"/>
<path d="M22.9834 85.5981L19.7094 104.294L56.4176 110.718L59.6916 92.0224L22.9834 85.5981Z" fill="#F26E26"/>
<path d="M177.387 89.5811L177.591 109.512L54.326 110.735L54.2812 106.306C54.2139 100.716 55.9748 95.2572 59.296 90.7599L177.387 89.5811Z" fill="#F26E26"/>
<path d="M90.621 135.973C90.621 135.973 98.6227 125.625 109.056 135.973" stroke="#0F2336" stroke-width="2" stroke-miterlimit="10" stroke-linecap="round"/>
<path d="M123.501 135.973C123.501 135.973 131.503 125.625 141.937 135.973" stroke="#0F2336" stroke-width="2" stroke-miterlimit="10" stroke-linecap="round"/>
<path opacity="0.2" d="M174.017 97.0973L132.07 97.546C131.768 97.5487 131.469 97.492 131.189 97.3791C130.91 97.2661 130.655 97.0992 130.44 96.8878C130.224 96.6765 130.053 96.4248 129.935 96.1472C129.817 95.8696 129.755 95.5715 129.752 95.2699C129.747 94.6622 129.983 94.0771 130.408 93.6428C130.833 93.2085 131.413 92.9605 132.021 92.9529L173.98 92.545C174.282 92.5423 174.581 92.5991 174.861 92.712C175.141 92.8249 175.395 92.9919 175.611 93.2032C175.826 93.4146 175.997 93.6662 176.115 93.9439C176.233 94.2215 176.295 94.5196 176.298 94.8212C176.29 95.4232 176.048 95.9985 175.621 96.4239C175.195 96.8493 174.619 97.091 174.017 97.0973Z" fill="white"/>
<path opacity="0.2" d="M124.632 106.28L104.527 106.472C104.272 106.476 104.018 106.429 103.78 106.334C103.542 106.24 103.326 106.099 103.143 105.921C102.96 105.742 102.814 105.529 102.713 105.294C102.612 105.059 102.559 104.806 102.557 104.551C102.551 104.034 102.751 103.537 103.112 103.167C103.473 102.798 103.966 102.587 104.483 102.581L124.591 102.389C125.107 102.383 125.605 102.583 125.975 102.944C126.344 103.305 126.555 103.798 126.562 104.314C126.566 104.831 126.365 105.328 126.004 105.698C125.642 106.067 125.149 106.278 124.632 106.284V106.28Z" fill="white"/>
</svg>
