<svg width="690" height="28" viewBox="0 0 690 28" fill="none" xmlns="http://www.w3.org/2000/svg">
<path opacity="0.2" d="M8.03923 14.0526H13.2385C13.409 14.0526 13.5757 14.0003 13.7176 13.9023L15.8733 12.4134C16.0152 12.3155 16.1819 12.2632 16.3524 12.2632H23V9.57895C23 9.46145 22.9777 9.3451 22.9343 9.23654C22.8909 9.12799 22.8273 9.02935 22.7471 8.94627C22.6669 8.86318 22.5716 8.79727 22.4669 8.75231C22.3621 8.70735 22.2498 8.68421 22.1364 8.68421H14.6515C14.4646 8.68421 14.2828 8.62141 14.1333 8.50525L11.1394 6.17896C10.9899 6.0628 10.8081 6 10.6212 6H4.86364C4.75022 6 4.63792 6.02314 4.53313 6.0681C4.42835 6.11306 4.33314 6.17897 4.25295 6.26205C4.17275 6.34514 4.10913 6.44378 4.06573 6.55233C4.02233 6.66089 4 6.77724 4 6.89474V23L7.23737 14.6151C7.30148 14.449 7.41213 14.3067 7.55506 14.2065C7.69798 14.1062 7.86663 14.0526 8.03923 14.0526Z" fill="#BDBDBD"/>
<path d="M4 23V6.89474C4 6.65744 4.09099 6.42986 4.25295 6.26206C4.41492 6.09427 4.63459 6 4.86364 6H10.6212C10.8081 6 10.9899 6.06279 11.1394 6.17895L14.1333 8.50526C14.2828 8.62142 14.4647 8.68421 14.6515 8.68421H22.1364C22.3654 8.68421 22.5851 8.77848 22.747 8.94627C22.909 9.11407 23 9.34165 23 9.57895V12.2632" stroke="#BDBDBD" stroke-width="2" stroke-linecap="round" stroke-linejoin="round"/>
<path d="M4 22L7.21983 14.1905C7.28359 14.0359 7.39364 13.9033 7.5358 13.8099C7.67795 13.7166 7.84568 13.6667 8.01735 13.6667H13.1884C13.358 13.6667 13.5238 13.618 13.6649 13.5267L15.809 12.14C15.9501 12.0487 16.1158 12 16.2854 12H25.141C25.2771 12 25.4113 12.0314 25.5325 12.0915C25.6536 12.1517 25.7583 12.239 25.8379 12.3461C25.9174 12.4532 25.9697 12.5771 25.9902 12.7077C26.0107 12.8382 25.999 12.9716 25.9559 13.0969L22.897 22H4Z" stroke="#BDBDBD" stroke-width="2" stroke-linecap="round" stroke-linejoin="round"/>
<path d="M150.4 5H154.4V9" stroke="#BDBDBD" stroke-width="2" stroke-linecap="round" stroke-linejoin="round"/>
<path d="M149.4 11L155.4 5" stroke="#BDBDBD" stroke-width="2" stroke-linecap="round" stroke-linejoin="round"/>
<path d="M141.4 22H137.4V18" stroke="#BDBDBD" stroke-width="2" stroke-linecap="round" stroke-linejoin="round"/>
<path d="M143.4 17L137.4 23" stroke="#BDBDBD" stroke-width="2" stroke-linecap="round" stroke-linejoin="round"/>
<path d="M154.4 18V22H150.4" stroke="#BDBDBD" stroke-width="2" stroke-linecap="round" stroke-linejoin="round"/>
<path d="M149.4 17L155.4 23" stroke="#BDBDBD" stroke-width="2" stroke-linecap="round" stroke-linejoin="round"/>
<path d="M137.4 9V5H141.4" stroke="#BDBDBD" stroke-width="2" stroke-linecap="round" stroke-linejoin="round"/>
<path d="M143.4 11L137.4 5" stroke="#BDBDBD" stroke-width="2" stroke-linecap="round" stroke-linejoin="round"/>
<path opacity="0.2" d="M289.8 6L279.3 16L268.8 6H289.8Z" fill="#BDBDBD"/>
<path d="M268.8 6H289.8V21.1111C289.8 21.3469 289.708 21.573 289.544 21.7397C289.38 21.9064 289.157 22 288.925 22H269.675C269.443 22 269.22 21.9064 269.056 21.7397C268.892 21.573 268.8 21.3469 268.8 21.1111V6Z" stroke="#BDBDBD" stroke-width="2" stroke-linecap="round" stroke-linejoin="round"/>
<path d="M289.8 6L279.3 16L268.8 6" stroke="#BDBDBD" stroke-width="2" stroke-linecap="round" stroke-linejoin="round"/>
<path opacity="0.2" d="M410.7 14C415.947 14 420.2 11.7614 420.2 9C420.2 6.23858 415.947 4 410.7 4C405.453 4 401.2 6.23858 401.2 9C401.2 11.7614 405.453 14 410.7 14Z" fill="#BDBDBD"/>
<path d="M410.7 14C415.947 14 420.2 11.7614 420.2 9C420.2 6.23858 415.947 4 410.7 4C405.453 4 401.2 6.23858 401.2 9C401.2 11.7614 405.453 14 410.7 14Z" stroke="#BDBDBD" stroke-width="2" stroke-linecap="round" stroke-linejoin="round"/>
<path d="M401.2 9V14C401.2 16.7614 405.453 19 410.7 19C415.947 19 420.2 16.7614 420.2 14V9" stroke="#BDBDBD" stroke-width="2" stroke-linecap="round" stroke-linejoin="round"/>
<path d="M401.2 14V19C401.2 21.7614 405.453 24 410.7 24C415.947 24 420.2 21.7614 420.2 19V14" stroke="#BDBDBD" stroke-width="2" stroke-linecap="round" stroke-linejoin="round"/>
<path opacity="0.2" d="M533.656 5.19933L540.116 22.424C540.179 22.5939 540.294 22.7402 540.443 22.8432C540.593 22.9462 540.77 23.0009 540.951 23C541.133 22.9991 541.31 22.9426 541.458 22.8381C541.606 22.7337 541.719 22.5862 541.781 22.4157L544.369 15.2996C544.413 15.1777 544.484 15.067 544.575 14.9753C544.667 14.8836 544.778 14.8131 544.9 14.7688L552.016 12.1811C552.186 12.1191 552.334 12.0063 552.438 11.858C552.543 11.7096 552.599 11.5328 552.6 11.3513C552.601 11.1699 552.546 10.9925 552.443 10.8431C552.34 10.6937 552.194 10.5795 552.024 10.5158L534.799 4.05652C534.64 3.99667 534.466 3.98404 534.3 4.02012C534.133 4.0562 533.98 4.13947 533.86 4.25999C533.739 4.3805 533.656 4.53317 533.62 4.69974C533.584 4.86631 533.597 5.03975 533.656 5.19933Z" fill="#BDBDBD"/>
<path d="M533.656 5.19933L540.116 22.424C540.179 22.5939 540.294 22.7402 540.443 22.8432C540.593 22.9462 540.77 23.0009 540.951 23C541.133 22.9991 541.31 22.9426 541.458 22.8381C541.606 22.7337 541.719 22.5862 541.781 22.4157L544.369 15.2996C544.413 15.1777 544.484 15.067 544.575 14.9753C544.667 14.8836 544.778 14.8131 544.9 14.7688L552.016 12.1811C552.186 12.1191 552.334 12.0063 552.438 11.858C552.543 11.7096 552.599 11.5328 552.6 11.3513C552.601 11.1699 552.546 10.9925 552.443 10.8431C552.34 10.6937 552.194 10.5795 552.024 10.5158L534.799 4.05652C534.64 3.99667 534.466 3.98404 534.3 4.02012C534.133 4.0562 533.98 4.13947 533.86 4.25999C533.739 4.3805 533.656 4.53317 533.62 4.69974C533.584 4.86631 533.597 5.03975 533.656 5.19933Z" stroke="#BDBDBD" stroke-width="2" stroke-linecap="round" stroke-linejoin="round"/>
<path d="M544.6 15L552.6 23" stroke="#BDBDBD" stroke-width="2" stroke-linecap="round" stroke-linejoin="round"/>
<path opacity="0.2" d="M670.853 14C670.853 12.22 671.356 10.4799 672.298 8.99987C673.24 7.51983 674.579 6.36628 676.146 5.68509C677.712 5.0039 679.436 4.82567 681.099 5.17294C682.762 5.5202 684.29 6.37737 685.489 7.63604C686.688 8.89471 687.504 10.4984 687.835 12.2442C688.166 13.99 687.996 15.7996 687.347 17.4442C686.698 19.0887 685.6 20.4943 684.19 21.4832C682.78 22.4722 681.122 23 679.426 23H669.996C669.145 22.9991 668.303 22.8082 667.528 22.44C666.752 22.0718 666.06 21.5346 665.498 20.8642C664.935 20.1937 664.515 19.4054 664.265 18.5514C664.015 17.6974 663.941 16.7973 664.047 15.9109C664.154 15.0245 664.439 14.1721 664.883 13.4101C665.328 12.6482 665.921 11.9942 666.625 11.4916C667.329 10.9889 668.126 10.6491 668.964 10.4948C669.803 10.3404 670.663 10.3749 671.487 10.5961" fill="#BDBDBD"/>
<path d="M673 22H670.298C669.404 21.9992 668.52 21.8174 667.706 21.4667C666.891 21.116 666.164 20.6044 665.574 19.9659C664.983 19.3274 664.541 18.5765 664.278 17.7632C664.016 16.9499 663.938 16.0927 664.05 15.2485C664.162 14.4043 664.461 13.5924 664.928 12.8668C665.395 12.1411 666.018 11.5183 666.758 11.0396C667.497 10.5609 668.334 10.2373 669.215 10.0903C670.096 9.94322 670.999 9.97614 671.865 10.1868" stroke="#BDBDBD" stroke-width="2" stroke-linecap="round" stroke-linejoin="round"/>
<path d="M671 13.7494C671 12.3629 671.32 10.9964 671.934 9.7623C672.548 8.52822 673.438 7.46195 674.53 6.65136C675.623 5.84077 676.887 5.30905 678.218 5.10002C679.55 4.89099 680.91 5.01064 682.188 5.4491C683.466 5.88756 684.624 6.63228 685.567 7.6219C686.51 8.61153 687.212 9.81771 687.613 11.1411C688.015 12.4644 688.105 13.8671 687.877 15.2335C687.649 16.5998 687.108 17.8908 686.3 19" stroke="#BDBDBD" stroke-width="2" stroke-linecap="round" stroke-linejoin="round"/>
<path d="M675 18L678.5 14L682 18" stroke="#BDBDBD" stroke-width="2" stroke-linecap="round" stroke-linejoin="round"/>
<path d="M679 23V14" stroke="#BDBDBD" stroke-width="2" stroke-linecap="round" stroke-linejoin="round"/>
</svg>
