<svg width="25" height="26" viewBox="0 0 25 26" fill="none" xmlns="http://www.w3.org/2000/svg">
<path d="M18.0338 1H6.96628C3.39507 1 0.5 3.89507 0.5 7.46629V18.5337C0.5 22.1049 3.39507 25 6.96628 25H18.0337C21.6049 25 24.5 22.1049 24.5 18.5337V7.46629C24.5 3.89507 21.605 1 18.0338 1Z" fill="white"/>
<path d="M18.0338 1H6.96628C3.39507 1 0.5 3.89507 0.5 7.46629V18.5337C0.5 22.1049 3.39507 25 6.96628 25H18.0337C21.6049 25 24.5 22.1049 24.5 18.5337V7.46629C24.5 3.89507 21.605 1 18.0338 1Z" stroke="black" stroke-miterlimit="10"/>
<path d="M12.5 19C15.8137 19 18.5 16.3137 18.5 13C18.5 9.68629 15.8137 7 12.5 7C9.18629 7 6.5 9.68629 6.5 13C6.5 16.3137 9.18629 19 12.5 19Z" stroke="black" stroke-miterlimit="10"/>
<path d="M19.5 7C20.0523 7 20.5 6.55228 20.5 6C20.5 5.44772 20.0523 5 19.5 5C18.9477 5 18.5 5.44772 18.5 6C18.5 6.55228 18.9477 7 19.5 7Z" fill="black"/>
</svg>
