<svg width="118" height="118" viewBox="0 0 118 118" fill="none" xmlns="http://www.w3.org/2000/svg">
<g filter="url(#filter0_d)">
<path fill-rule="evenodd" clip-rule="evenodd" d="M93 55.9999L92.9949 55.9999L92.9796 56.0001L92.9541 56.0008L92.9185 56.002L92.8727 56.0041L92.8168 56.0072L92.7508 56.0115L92.6748 56.0172L92.5888 56.0246L92.493 56.0337L92.3872 56.0448L92.2717 56.0582L92.1466 56.0739L92.0118 56.0923L91.8675 56.1133L91.7138 56.1374L91.5507 56.1645L91.3785 56.195L91.1973 56.2289L91.007 56.2665L90.808 56.3079L90.6003 56.3532L90.3841 56.4027L90.1595 56.4565L89.9266 56.5147L89.6857 56.5775L89.4369 56.6451L89.1803 56.7175L88.9162 56.7949L88.6448 56.8774L88.3661 56.9651L88.0804 57.0582L87.7879 57.1567L87.4888 57.2609L87.1833 57.3707L86.8717 57.4862L86.554 57.6076L86.2305 57.735L85.9015 57.8683L85.5671 58.0077L85.2276 58.1533L84.8832 58.305L84.5341 58.463L84.1806 58.6273L83.8229 58.7979L83.4613 58.9748L83.0959 59.1581L82.727 59.3479L82.3548 59.544L81.9796 59.7465L81.6016 59.9555L81.2211 60.1708L80.8383 60.3926L80.4535 60.6206L80.0668 60.8551L79.6786 61.0958L79.289 61.3427L78.8984 61.5959L78.5069 61.8552L78.1148 62.1206L77.7224 62.392L77.3298 62.6693L76.9373 62.9525L76.5451 63.2414L76.1536 63.536L75.7628 63.8362L75.3731 64.1418L74.9846 64.4527L74.5976 64.7689L74.2123 65.0902L73.8288 65.4164L73.4476 65.7475L73.0686 66.0832L72.6922 66.4235L72.3186 66.7681L71.9478 67.1169L71.5802 67.4698L71.216 67.8266L70.8552 68.1871L70.4981 68.5511L70.1449 68.9184L69.7957 69.2889L69.4508 69.6623L69.1102 70.0385L68.7741 70.4173L68.4426 70.7984L68.116 71.1816L67.7944 71.5668L67.4778 71.9537L67.1664 72.3421L66.8603 72.7317L66.5597 73.1224L66.2647 73.5139L65.9753 73.906L65.6917 74.2985L65.4139 74.6911L65.142 75.0836L64.8762 75.4757L64.6164 75.8672L64.3627 76.258L64.1153 76.6476L63.8741 77.036L63.6391 77.4228L63.4105 77.8078L63.1883 78.1907L62.9725 78.5714L62.763 78.9496L62.5599 79.325L62.3633 79.6974L62.1731 80.0666L61.9892 80.4323L61.8118 80.7943L61.6407 81.1523L61.4759 81.5062L61.3174 81.8556L61.1652 82.2003L61.0191 82.5402L60.8792 82.875L60.7454 83.2045L60.6176 83.5284L60.4957 83.8466L60.3797 84.1588L60.2695 84.4648L60.1649 84.7644L60.0659 85.0574L59.9724 85.3436L59.8842 85.6228L59.8013 85.8949L59.7235 86.1596L59.6507 86.4168L59.5828 86.6662L59.5196 86.9077L59.4611 87.1412L59.4069 87.3665L59.3571 87.5834L59.3114 87.7918L59.2697 87.9915L59.2318 88.1825L59.1976 88.3645L59.1669 88.5374L59.1395 88.7011L59.1152 88.8556L59.0939 89.0006L59.0754 89.1362L59.0594 89.2622L59.0459 89.3784L59.0346 89.4849L59.0253 89.5816L59.0178 89.6684L59.012 89.7452L59.0076 89.8119L59.0044 89.8686L59.0022 89.9152L59.0009 89.9517L59.0002 89.978L59 89.9941L58.9999 90L58.9999 89.9957L58.9997 89.9812L58.9991 89.9566L58.9979 89.9217L58.9959 89.8767L58.9929 89.8216L58.9887 89.7565L58.9831 89.6813L58.9759 89.5961L58.9669 89.501L58.9559 89.396L58.9428 89.2813L58.9272 89.1569L58.9091 89.0229L58.8883 88.8793L58.8645 88.7264L58.8376 88.5641L58.8074 88.3926L58.7737 88.2121L58.7365 88.0225L58.6954 87.8242L58.6503 87.6172L58.6012 87.4016L58.5477 87.1777L58.4899 86.9455L58.4274 86.7052L58.3603 86.457L58.2883 86.2011L58.2113 85.9376L58.1292 85.6667L58.0419 85.3886L57.9492 85.1034L57.8511 84.8115L57.7474 84.5129L57.6381 84.2079L57.523 83.8967L57.4021 83.5795L57.2752 83.2565L57.1423 82.9279L57.0034 82.5939L56.8584 82.2548L56.7071 81.9108L56.5496 81.5621L56.3859 81.209L56.2158 80.8516L56.0393 80.4902L55.8565 80.1251L55.6673 79.7565L55.4717 79.3845L55.2696 79.0096L55.0612 78.6318L54.8464 78.2515L54.6252 77.8689L54.3976 77.4842L54.1637 77.0977L53.9234 76.7096L53.677 76.3201L53.4243 75.9295L53.1655 75.5381L52.9006 75.146L52.6297 74.7536L52.3528 74.361L52.0701 73.9685L51.7816 73.5763L51.4875 73.1847L51.1878 72.7939L50.8826 72.404L50.572 72.0154L50.2563 71.6283L49.9354 71.2428L49.6096 70.8593L49.2789 70.4778L48.9435 70.0987L48.6036 69.7221L48.2593 69.3482L47.9108 68.9772L47.5583 68.6094L47.2018 68.2448L46.8416 67.8838L46.4779 67.5264L46.1108 67.1729L45.7406 66.8234L45.3674 66.4781L44.9914 66.1371L44.6128 65.8006L44.2319 65.4688L43.8488 65.1418L43.4638 64.8197L43.077 64.5028L42.6888 64.191L42.2992 63.8845L41.9086 63.5834L41.5171 63.2879L41.1251 62.9981L40.7326 62.714L40.34 62.4357L39.9475 62.1634L39.5554 61.8971L39.1638 61.6368L38.773 61.3826L38.3832 61.1347L37.9948 60.893L37.6079 60.6576L37.2227 60.4285L36.8396 60.2057L36.4587 59.9894L36.0803 59.7794L35.7046 59.5758L35.332 59.3787L34.9625 59.1879L34.5966 59.0036L34.2343 58.8256L33.8759 58.654L33.5217 58.4887L33.172 58.3297L32.8268 58.177L32.4865 58.0305L32.1513 57.8901L31.8214 57.7558L31.497 57.6275L31.1784 57.5052L30.8658 57.3887L30.5593 57.278L30.2591 57.173L29.9656 57.0735L29.6788 56.9796L29.399 56.891L29.1264 56.8077L28.8611 56.7295L28.6033 56.6563L28.3533 56.588L28.1111 56.5244L27.8769 56.4655L27.651 56.411L27.4334 56.3608L27.2244 56.3148L27.0239 56.2728L26.8323 56.2346L26.6496 56.2001L26.4759 56.1691L26.3115 56.1415L26.1563 56.117L26.0105 56.0954L25.8741 56.0767L25.7474 56.0605L25.6304 56.0468L25.5231 56.0353L25.4256 56.0259L25.3381 56.0183L25.2605 56.0123L25.1929 56.0078L25.1354 56.0045L25.088 56.0023L25.0507 56.0009L25.0236 56.0002L25.0067 55.9999L25 55.9999L25.0035 55.9999L25.0171 55.9997L25.041 55.9991L25.075 55.9979L25.1192 55.996L25.1735 55.9931L25.2379 55.989L25.3123 55.9835L25.3967 55.9765L25.491 55.9676L25.5951 55.9568L25.7091 55.9438L25.8327 55.9285L25.966 55.9106L26.1088 55.89L26.261 55.8664L26.4226 55.8398L26.5933 55.8098L26.7731 55.7765L26.9619 55.7395L27.1596 55.6987L27.3659 55.654L27.5808 55.6052L27.8041 55.5521L28.0356 55.4946L28.2753 55.4325L28.5228 55.3657L28.7782 55.2941L29.0411 55.2175L29.3114 55.1359L29.5889 55.049L29.8735 54.9567L30.1649 54.8591L30.463 54.7558L30.7674 54.6469L31.0782 54.5323L31.3949 54.4118L31.7175 54.2855L32.0456 54.1531L32.3792 54.0146L32.7179 53.8701L33.0615 53.7193L33.4098 53.5623L33.7626 53.3991L34.1197 53.2295L34.4807 53.0535L34.8456 52.8712L35.2139 52.6825L35.5856 52.4874L35.9603 52.2859L36.3379 52.078L36.718 51.8636L37.1004 51.6429L37.485 51.4158L37.8714 51.1824L38.2594 50.9427L38.6487 50.6968L39.0392 50.4446L39.4306 50.1863L39.8226 49.9218L40.215 49.6514L40.6076 49.375L41.0001 49.0928L41.3923 48.8047L41.784 48.511L42.1749 48.2118L42.5648 47.907L42.9535 47.5969L43.3408 47.2815L43.7264 46.9611L44.1101 46.6356L44.4917 46.3053L44.8711 45.9703L45.2479 45.6308L45.622 45.2868L45.9932 44.9386L46.3613 44.5864L46.7261 44.2302L47.0875 43.8703L47.4451 43.5069L47.799 43.1401L48.1488 42.7701L48.4944 42.3971L48.8358 42.0213L49.1726 41.6429L49.5048 41.2622L49.8322 40.8793L50.1546 40.4944L50.472 40.1078L50.7842 39.7196L51.0911 39.3302L51.3926 38.9396L51.6886 38.5482L51.9789 38.1562L52.2634 37.7638L52.5421 37.3712L52.815 36.9787L53.0818 36.5865L53.3425 36.1948L53.5972 35.8039L53.8456 35.4141L54.0878 35.0255L54.3237 34.6385L54.5533 34.2532L54.7766 33.8699L54.9935 33.4888L55.204 33.1102L55.408 32.7343L55.6057 32.3614L55.7969 31.9917L55.9818 31.6254L56.1603 31.2628L56.3324 30.9042L56.4982 30.5497L56.6576 30.1995L56.8109 29.854L56.9579 29.5133L57.0988 29.1777L57.2335 28.8473L57.3623 28.5225L57.4851 28.2034L57.6021 27.8903L57.7132 27.5833L57.8187 27.2826L57.9186 26.9886L58.013 26.7013L58.102 26.4209L58.1857 26.1477L58.2643 25.8818L58.3379 25.6234L58.4066 25.3727L58.4705 25.1299L58.5298 24.8951L58.5846 24.6685L58.6351 24.4503L58.6815 24.2405L58.7238 24.0394L58.7623 23.8471L58.7971 23.6637L58.8283 23.4893L58.8563 23.3241L58.881 23.1681L58.9028 23.0216L58.9217 22.8845L58.9381 22.757L58.952 22.6392L58.9636 22.5311L58.9732 22.4329L58.981 22.3445L58.9871 22.2661L58.9917 22.1978L58.9951 22.1395L58.9973 22.0913L58.9988 22.0532L58.9996 22.0253L58.9999 22.0075L58.9999 22L59 22.0027L59.0001 22.0155L59.0007 22.0386L59.0017 22.0718L59.0036 22.1152L59.0064 22.1687L59.0104 22.2322L59.0158 22.3058L59.0227 22.3894L59.0314 22.4829L59.0421 22.5863L59.0549 22.6995L59.07 22.8224L59.0877 22.9549L59.1081 23.0969L59.1314 23.2484L59.1578 23.4092L59.1875 23.5792L59.2205 23.7583L59.2572 23.9464L59.2977 24.1434L59.3421 24.349L59.3906 24.5632L59.4433 24.7858L59.5005 25.0167L59.5622 25.2557L59.6286 25.5027L59.6998 25.7574L59.776 26.0197L59.8572 26.2894L59.9437 26.5664L60.0355 26.8504L60.1328 27.1413L60.2356 27.4388L60.344 27.7428L60.4582 28.0531L60.5782 28.3693L60.7041 28.6914L60.836 29.0192L60.9739 29.3523L61.118 29.6906L61.2682 30.0338L61.4247 30.3818L61.5875 30.7343L61.7566 31.091L61.932 31.4517L62.1138 31.8163L62.302 32.1843L62.4966 32.5558L62.6976 32.9302L62.905 33.3076L63.1189 33.6875L63.3391 34.0698L63.5656 34.4541L63.7985 34.8404L64.0378 35.2283L64.2832 35.6175L64.5349 36.0079L64.7927 36.3993L65.0567 36.7912L65.3266 37.1836L65.6026 37.5762L65.8843 37.9687L66.1719 38.361L66.4652 38.7527L66.764 39.1437L67.0683 39.5337L67.378 39.9225L67.693 40.3099L68.013 40.6956L68.3381 41.0795L68.668 41.4613L69.0026 41.8408L69.3418 42.2179L69.6854 42.5922L70.0333 42.9637L70.3852 43.332L70.7411 43.6971L71.1007 44.0587L71.4638 44.4167L71.8304 44.7708L72.2001 45.121L72.5729 45.467L72.9484 45.8086L73.3266 46.1458L73.7072 46.4784L74.0899 46.8062L74.4746 47.129L74.8611 47.4468L75.2492 47.7595L75.6385 48.0668L76.029 48.3687L76.4203 48.6651L76.8123 48.9559L77.2047 49.2409L77.5973 49.5201L77.9898 49.7934L78.3821 50.0607L78.7738 50.3219L79.1647 50.577L79.5546 50.826L79.9433 51.0687L80.3305 51.3051L80.716 51.5352L81.0994 51.759L81.4807 51.9764L81.8595 52.1873L82.2356 52.3919L82.6088 52.5901L82.9787 52.7819L83.3453 52.9672L83.7082 53.1462L84.0672 53.3188L84.422 53.4851L84.7725 53.6451L85.1184 53.7988L85.4595 53.9463L85.7955 54.0877L86.1263 54.223L86.4515 54.3522L86.7711 54.4755L87.0847 54.5929L87.3922 54.7045L87.6934 54.8104L87.988 54.9108L88.2758 55.0056L88.5568 55.095L88.8306 55.1792L89.097 55.2582L89.356 55.3321L89.6073 55.4012L89.8507 55.4655L90.0862 55.5252L90.3134 55.5803L90.5324 55.6312L90.7428 55.6779L90.9446 55.7205L91.1376 55.7593L91.3218 55.7943L91.4969 55.8259L91.6628 55.8541L91.8195 55.8791L91.9668 55.9011L92.1047 55.9203L92.2329 55.9368L92.3515 55.9509L92.4604 55.9627L92.5594 55.9725L92.6485 55.9804L92.7277 55.9866L92.7969 55.9913L92.856 55.9948L92.905 55.9971L92.9439 55.9986L92.9726 55.9994L92.9911 55.9998L93 55.9999Z" fill="url(#paint0_radial)"/>
<path fill-rule="evenodd" clip-rule="evenodd" d="M93 55.9999L92.9949 55.9999L92.9796 56.0001L92.9541 56.0008L92.9185 56.002L92.8727 56.0041L92.8168 56.0072L92.7508 56.0115L92.6748 56.0172L92.5888 56.0246L92.493 56.0337L92.3872 56.0448L92.2717 56.0582L92.1466 56.0739L92.0118 56.0923L91.8675 56.1133L91.7138 56.1374L91.5507 56.1645L91.3785 56.195L91.1973 56.2289L91.007 56.2665L90.808 56.3079L90.6003 56.3532L90.3841 56.4027L90.1595 56.4565L89.9266 56.5147L89.6857 56.5775L89.4369 56.6451L89.1803 56.7175L88.9162 56.7949L88.6448 56.8774L88.3661 56.9651L88.0804 57.0582L87.7879 57.1567L87.4888 57.2609L87.1833 57.3707L86.8717 57.4862L86.554 57.6076L86.2305 57.735L85.9015 57.8683L85.5671 58.0077L85.2276 58.1533L84.8832 58.305L84.5341 58.463L84.1806 58.6273L83.8229 58.7979L83.4613 58.9748L83.0959 59.1581L82.727 59.3479L82.3548 59.544L81.9796 59.7465L81.6016 59.9555L81.2211 60.1708L80.8383 60.3926L80.4535 60.6206L80.0668 60.8551L79.6786 61.0958L79.289 61.3427L78.8984 61.5959L78.5069 61.8552L78.1148 62.1206L77.7224 62.392L77.3298 62.6693L76.9373 62.9525L76.5451 63.2414L76.1536 63.536L75.7628 63.8362L75.3731 64.1418L74.9846 64.4527L74.5976 64.7689L74.2123 65.0902L73.8288 65.4164L73.4476 65.7475L73.0686 66.0832L72.6922 66.4235L72.3186 66.7681L71.9478 67.1169L71.5802 67.4698L71.216 67.8266L70.8552 68.1871L70.4981 68.5511L70.1449 68.9184L69.7957 69.2889L69.4508 69.6623L69.1102 70.0385L68.7741 70.4173L68.4426 70.7984L68.116 71.1816L67.7944 71.5668L67.4778 71.9537L67.1664 72.3421L66.8603 72.7317L66.5597 73.1224L66.2647 73.5139L65.9753 73.906L65.6917 74.2985L65.4139 74.6911L65.142 75.0836L64.8762 75.4757L64.6164 75.8672L64.3627 76.258L64.1153 76.6476L63.8741 77.036L63.6391 77.4228L63.4105 77.8078L63.1883 78.1907L62.9725 78.5714L62.763 78.9496L62.5599 79.325L62.3633 79.6974L62.1731 80.0666L61.9892 80.4323L61.8118 80.7943L61.6407 81.1523L61.4759 81.5062L61.3174 81.8556L61.1652 82.2003L61.0191 82.5402L60.8792 82.875L60.7454 83.2045L60.6176 83.5284L60.4957 83.8466L60.3797 84.1588L60.2695 84.4648L60.1649 84.7644L60.0659 85.0574L59.9724 85.3436L59.8842 85.6228L59.8013 85.8949L59.7235 86.1596L59.6507 86.4168L59.5828 86.6662L59.5196 86.9077L59.4611 87.1412L59.4069 87.3665L59.3571 87.5834L59.3114 87.7918L59.2697 87.9915L59.2318 88.1825L59.1976 88.3645L59.1669 88.5374L59.1395 88.7011L59.1152 88.8556L59.0939 89.0006L59.0754 89.1362L59.0594 89.2622L59.0459 89.3784L59.0346 89.4849L59.0253 89.5816L59.0178 89.6684L59.012 89.7452L59.0076 89.8119L59.0044 89.8686L59.0022 89.9152L59.0009 89.9517L59.0002 89.978L59 89.9941L58.9999 90L58.9999 89.9957L58.9997 89.9812L58.9991 89.9566L58.9979 89.9217L58.9959 89.8767L58.9929 89.8216L58.9887 89.7565L58.9831 89.6813L58.9759 89.5961L58.9669 89.501L58.9559 89.396L58.9428 89.2813L58.9272 89.1569L58.9091 89.0229L58.8883 88.8793L58.8645 88.7264L58.8376 88.5641L58.8074 88.3926L58.7737 88.2121L58.7365 88.0225L58.6954 87.8242L58.6503 87.6172L58.6012 87.4016L58.5477 87.1777L58.4899 86.9455L58.4274 86.7052L58.3603 86.457L58.2883 86.2011L58.2113 85.9376L58.1292 85.6667L58.0419 85.3886L57.9492 85.1034L57.8511 84.8115L57.7474 84.5129L57.6381 84.2079L57.523 83.8967L57.4021 83.5795L57.2752 83.2565L57.1423 82.9279L57.0034 82.5939L56.8584 82.2548L56.7071 81.9108L56.5496 81.5621L56.3859 81.209L56.2158 80.8516L56.0393 80.4902L55.8565 80.1251L55.6673 79.7565L55.4717 79.3845L55.2696 79.0096L55.0612 78.6318L54.8464 78.2515L54.6252 77.8689L54.3976 77.4842L54.1637 77.0977L53.9234 76.7096L53.677 76.3201L53.4243 75.9295L53.1655 75.5381L52.9006 75.146L52.6297 74.7536L52.3528 74.361L52.0701 73.9685L51.7816 73.5763L51.4875 73.1847L51.1878 72.7939L50.8826 72.404L50.572 72.0154L50.2563 71.6283L49.9354 71.2428L49.6096 70.8593L49.2789 70.4778L48.9435 70.0987L48.6036 69.7221L48.2593 69.3482L47.9108 68.9772L47.5583 68.6094L47.2018 68.2448L46.8416 67.8838L46.4779 67.5264L46.1108 67.1729L45.7406 66.8234L45.3674 66.4781L44.9914 66.1371L44.6128 65.8006L44.2319 65.4688L43.8488 65.1418L43.4638 64.8197L43.077 64.5028L42.6888 64.191L42.2992 63.8845L41.9086 63.5834L41.5171 63.2879L41.1251 62.9981L40.7326 62.714L40.34 62.4357L39.9475 62.1634L39.5554 61.8971L39.1638 61.6368L38.773 61.3826L38.3832 61.1347L37.9948 60.893L37.6079 60.6576L37.2227 60.4285L36.8396 60.2057L36.4587 59.9894L36.0803 59.7794L35.7046 59.5758L35.332 59.3787L34.9625 59.1879L34.5966 59.0036L34.2343 58.8256L33.8759 58.654L33.5217 58.4887L33.172 58.3297L32.8268 58.177L32.4865 58.0305L32.1513 57.8901L31.8214 57.7558L31.497 57.6275L31.1784 57.5052L30.8658 57.3887L30.5593 57.278L30.2591 57.173L29.9656 57.0735L29.6788 56.9796L29.399 56.891L29.1264 56.8077L28.8611 56.7295L28.6033 56.6563L28.3533 56.588L28.1111 56.5244L27.8769 56.4655L27.651 56.411L27.4334 56.3608L27.2244 56.3148L27.0239 56.2728L26.8323 56.2346L26.6496 56.2001L26.4759 56.1691L26.3115 56.1415L26.1563 56.117L26.0105 56.0954L25.8741 56.0767L25.7474 56.0605L25.6304 56.0468L25.5231 56.0353L25.4256 56.0259L25.3381 56.0183L25.2605 56.0123L25.1929 56.0078L25.1354 56.0045L25.088 56.0023L25.0507 56.0009L25.0236 56.0002L25.0067 55.9999L25 55.9999L25.0035 55.9999L25.0171 55.9997L25.041 55.9991L25.075 55.9979L25.1192 55.996L25.1735 55.9931L25.2379 55.989L25.3123 55.9835L25.3967 55.9765L25.491 55.9676L25.5951 55.9568L25.7091 55.9438L25.8327 55.9285L25.966 55.9106L26.1088 55.89L26.261 55.8664L26.4226 55.8398L26.5933 55.8098L26.7731 55.7765L26.9619 55.7395L27.1596 55.6987L27.3659 55.654L27.5808 55.6052L27.8041 55.5521L28.0356 55.4946L28.2753 55.4325L28.5228 55.3657L28.7782 55.2941L29.0411 55.2175L29.3114 55.1359L29.5889 55.049L29.8735 54.9567L30.1649 54.8591L30.463 54.7558L30.7674 54.6469L31.0782 54.5323L31.3949 54.4118L31.7175 54.2855L32.0456 54.1531L32.3792 54.0146L32.7179 53.8701L33.0615 53.7193L33.4098 53.5623L33.7626 53.3991L34.1197 53.2295L34.4807 53.0535L34.8456 52.8712L35.2139 52.6825L35.5856 52.4874L35.9603 52.2859L36.3379 52.078L36.718 51.8636L37.1004 51.6429L37.485 51.4158L37.8714 51.1824L38.2594 50.9427L38.6487 50.6968L39.0392 50.4446L39.4306 50.1863L39.8226 49.9218L40.215 49.6514L40.6076 49.375L41.0001 49.0928L41.3923 48.8047L41.784 48.511L42.1749 48.2118L42.5648 47.907L42.9535 47.5969L43.3408 47.2815L43.7264 46.9611L44.1101 46.6356L44.4917 46.3053L44.8711 45.9703L45.2479 45.6308L45.622 45.2868L45.9932 44.9386L46.3613 44.5864L46.7261 44.2302L47.0875 43.8703L47.4451 43.5069L47.799 43.1401L48.1488 42.7701L48.4944 42.3971L48.8358 42.0213L49.1726 41.6429L49.5048 41.2622L49.8322 40.8793L50.1546 40.4944L50.472 40.1078L50.7842 39.7196L51.0911 39.3302L51.3926 38.9396L51.6886 38.5482L51.9789 38.1562L52.2634 37.7638L52.5421 37.3712L52.815 36.9787L53.0818 36.5865L53.3425 36.1948L53.5972 35.8039L53.8456 35.4141L54.0878 35.0255L54.3237 34.6385L54.5533 34.2532L54.7766 33.8699L54.9935 33.4888L55.204 33.1102L55.408 32.7343L55.6057 32.3614L55.7969 31.9917L55.9818 31.6254L56.1603 31.2628L56.3324 30.9042L56.4982 30.5497L56.6576 30.1995L56.8109 29.854L56.9579 29.5133L57.0988 29.1777L57.2335 28.8473L57.3623 28.5225L57.4851 28.2034L57.6021 27.8903L57.7132 27.5833L57.8187 27.2826L57.9186 26.9886L58.013 26.7013L58.102 26.4209L58.1857 26.1477L58.2643 25.8818L58.3379 25.6234L58.4066 25.3727L58.4705 25.1299L58.5298 24.8951L58.5846 24.6685L58.6351 24.4503L58.6815 24.2405L58.7238 24.0394L58.7623 23.8471L58.7971 23.6637L58.8283 23.4893L58.8563 23.3241L58.881 23.1681L58.9028 23.0216L58.9217 22.8845L58.9381 22.757L58.952 22.6392L58.9636 22.5311L58.9732 22.4329L58.981 22.3445L58.9871 22.2661L58.9917 22.1978L58.9951 22.1395L58.9973 22.0913L58.9988 22.0532L58.9996 22.0253L58.9999 22.0075L58.9999 22L59 22.0027L59.0001 22.0155L59.0007 22.0386L59.0017 22.0718L59.0036 22.1152L59.0064 22.1687L59.0104 22.2322L59.0158 22.3058L59.0227 22.3894L59.0314 22.4829L59.0421 22.5863L59.0549 22.6995L59.07 22.8224L59.0877 22.9549L59.1081 23.0969L59.1314 23.2484L59.1578 23.4092L59.1875 23.5792L59.2205 23.7583L59.2572 23.9464L59.2977 24.1434L59.3421 24.349L59.3906 24.5632L59.4433 24.7858L59.5005 25.0167L59.5622 25.2557L59.6286 25.5027L59.6998 25.7574L59.776 26.0197L59.8572 26.2894L59.9437 26.5664L60.0355 26.8504L60.1328 27.1413L60.2356 27.4388L60.344 27.7428L60.4582 28.0531L60.5782 28.3693L60.7041 28.6914L60.836 29.0192L60.9739 29.3523L61.118 29.6906L61.2682 30.0338L61.4247 30.3818L61.5875 30.7343L61.7566 31.091L61.932 31.4517L62.1138 31.8163L62.302 32.1843L62.4966 32.5558L62.6976 32.9302L62.905 33.3076L63.1189 33.6875L63.3391 34.0698L63.5656 34.4541L63.7985 34.8404L64.0378 35.2283L64.2832 35.6175L64.5349 36.0079L64.7927 36.3993L65.0567 36.7912L65.3266 37.1836L65.6026 37.5762L65.8843 37.9687L66.1719 38.361L66.4652 38.7527L66.764 39.1437L67.0683 39.5337L67.378 39.9225L67.693 40.3099L68.013 40.6956L68.3381 41.0795L68.668 41.4613L69.0026 41.8408L69.3418 42.2179L69.6854 42.5922L70.0333 42.9637L70.3852 43.332L70.7411 43.6971L71.1007 44.0587L71.4638 44.4167L71.8304 44.7708L72.2001 45.121L72.5729 45.467L72.9484 45.8086L73.3266 46.1458L73.7072 46.4784L74.0899 46.8062L74.4746 47.129L74.8611 47.4468L75.2492 47.7595L75.6385 48.0668L76.029 48.3687L76.4203 48.6651L76.8123 48.9559L77.2047 49.2409L77.5973 49.5201L77.9898 49.7934L78.3821 50.0607L78.7738 50.3219L79.1647 50.577L79.5546 50.826L79.9433 51.0687L80.3305 51.3051L80.716 51.5352L81.0994 51.759L81.4807 51.9764L81.8595 52.1873L82.2356 52.3919L82.6088 52.5901L82.9787 52.7819L83.3453 52.9672L83.7082 53.1462L84.0672 53.3188L84.422 53.4851L84.7725 53.6451L85.1184 53.7988L85.4595 53.9463L85.7955 54.0877L86.1263 54.223L86.4515 54.3522L86.7711 54.4755L87.0847 54.5929L87.3922 54.7045L87.6934 54.8104L87.988 54.9108L88.2758 55.0056L88.5568 55.095L88.8306 55.1792L89.097 55.2582L89.356 55.3321L89.6073 55.4012L89.8507 55.4655L90.0862 55.5252L90.3134 55.5803L90.5324 55.6312L90.7428 55.6779L90.9446 55.7205L91.1376 55.7593L91.3218 55.7943L91.4969 55.8259L91.6628 55.8541L91.8195 55.8791L91.9668 55.9011L92.1047 55.9203L92.2329 55.9368L92.3515 55.9509L92.4604 55.9627L92.5594 55.9725L92.6485 55.9804L92.7277 55.9866L92.7969 55.9913L92.856 55.9948L92.905 55.9971L92.9439 55.9986L92.9726 55.9994L92.9911 55.9998L93 55.9999Z" stroke="white"/>
</g>
<defs>
<filter id="filter0_d" x="0.332144" y="0.17755" width="117.336" height="117.336" filterUnits="userSpaceOnUse" color-interpolation-filters="sRGB">
<feFlood flood-opacity="0" result="BackgroundImageFix"/>
<feColorMatrix in="SourceAlpha" type="matrix" values="0 0 0 0 0 0 0 0 0 0 0 0 0 0 0 0 0 0 127 0"/>
<feOffset dy="2.84583"/>
<feGaussianBlur stdDeviation="12.3319"/>
<feColorMatrix type="matrix" values="0 0 0 0 1 0 0 0 0 1 0 0 0 0 1 0 0 0 1 0"/>
<feBlend mode="normal" in2="BackgroundImageFix" result="effect1_dropShadow"/>
<feBlend mode="normal" in="SourceGraphic" in2="effect1_dropShadow" result="shape"/>
</filter>
<radialGradient id="paint0_radial" cx="0" cy="0" r="1" gradientUnits="userSpaceOnUse" gradientTransform="translate(59 56) rotate(90) scale(34)">
<stop stop-color="white"/>
<stop offset="1" stop-color="white" stop-opacity="0"/>
</radialGradient>
</defs>
</svg>
