<svg width="489" height="68" viewBox="0 0 489 68" fill="none" xmlns="http://www.w3.org/2000/svg">
<path d="M4 34.0003L4.76592 34.9601L5.53185 35.9191L6.29777 36.8764L7.06369 37.8311L7.82962 38.7823L8.59554 39.7293L9.36146 40.6711L10.1274 41.6068L10.8933 42.5358L11.6592 43.457L12.4252 44.3698L13.1911 45.2732L13.957 46.1664L14.7229 47.0487L15.4889 47.9193L16.2548 48.7774L17.0207 49.6221L17.7866 50.4528L18.5525 51.2687L19.3185 52.069L20.0844 52.8531L20.8503 53.6202L21.6162 54.3697L22.3822 55.1008L23.1481 55.8129L23.914 56.5054L24.6799 57.1777L25.4459 57.8291L26.2118 58.459L26.9777 59.067L27.7436 59.6524L28.5096 60.2147L29.2755 60.7534L30.0414 61.268L30.8073 61.7581L31.5732 62.2232L32.3392 62.6629L33.1051 63.0768L33.871 63.4646L34.6369 63.8258L35.4029 64.1602L36.1688 64.4675L36.9347 64.7473L37.7006 64.9995L38.4666 65.2237L39.2325 65.4199L39.9984 65.5878L40.7643 65.7272L41.5303 65.8382L42.2962 65.9204L43.0621 65.974L43.828 65.9987L44.5939 65.9947L45.3599 65.9619L46.1258 65.9003L46.8917 65.81L47.6576 65.691L48.4236 65.5436L49.1895 65.3678L49.9554 65.1637L50.7213 64.9316L51.4873 64.6716L52.2532 64.3841L53.0191 64.0692L53.785 63.7273L54.551 63.3586L55.3169 62.9634L56.0828 62.5423L56.8487 62.0954L57.6147 61.6232L58.3806 61.1262L59.1465 60.6048L59.9124 60.0594L60.6783 59.4906L61.4443 58.8989L62.2102 58.2847L62.9761 57.6487L63.742 56.9914L64.508 56.3134L65.2739 55.6153L66.0398 54.8978L66.8057 54.1615L67.5717 53.407L68.3376 52.635L69.1035 51.8463L69.8694 51.0416L70.6354 50.2215L71.4013 49.3867L72.1672 48.5382L72.9331 47.6766L73.699 46.8026L74.465 45.9172L75.2309 45.021L75.9968 44.1149L76.7627 43.1997L77.5287 42.2762L78.2946 41.3452L79.0605 40.4077L79.8264 39.4644L80.5924 38.5162L81.3583 37.5639L82.1242 36.6084L82.8901 35.6505L83.6561 34.6912L84.422 33.7312L85.1879 32.7715L85.9538 31.8129L86.7197 30.8563L87.4857 29.9025L88.2516 28.9524L89.0175 28.0068L89.7834 27.0666L90.5494 26.1327L91.3153 25.2058L92.0812 24.2869L92.8471 23.3767L93.6131 22.476L94.379 21.5857L95.1449 20.7066L95.9108 19.8395L96.6768 18.9851L97.4427 18.1442L98.2086 17.3176L98.9745 16.506L99.7405 15.7101L100.506 14.9307L101.272 14.1685L102.038 13.4241L102.804 12.6983L103.57 11.9916L104.336 11.3047L105.102 10.6382L105.868 9.99274L106.634 9.3689L107.4 8.76723L108.166 8.18827L108.932 7.63253L109.697 7.10052L110.463 6.59272L111.229 6.10959L111.995 5.65156L112.761 5.21903L113.527 4.81241L114.293 4.43206L115.059 4.07831L115.825 3.7515L116.591 3.4519L117.357 3.1798L118.123 2.93543L118.889 2.71902L119.654 2.53076L120.42 2.37082L121.186 2.23934L121.952 2.13645L122.718 2.06223L123.484 2.01676L124.25 2.00007L125.016 2.01217L125.782 2.05307L126.548 2.12271L127.314 2.22104L128.08 2.34797L128.846 2.50339L129.611 2.68715L130.377 2.89909L131.143 3.13901L131.909 3.40672L132.675 3.70195L133.441 4.02445L134.207 4.37393L134.973 4.75007L135.739 5.15253L136.505 5.58095L137.271 6.03495L138.037 6.51411L138.803 7.01802L139.568 7.5462L140.334 8.09819L141.1 8.67349L141.866 9.27158L142.632 9.89193L143.398 10.534L144.164 11.1971L144.93 11.8808L145.696 12.5844L146.462 13.3073L147.228 14.0487L147.994 14.8082L148.76 15.5849L149.525 16.3782L150.291 17.1873L151.057 18.0116L151.823 18.8502L152.589 19.7025L153.355 20.5677L154.121 21.445L154.887 22.3335L155.653 23.2325L156.419 24.1413L157.185 25.0589L157.951 25.9846L158.717 26.9174L159.482 27.8567L160.248 28.8014L161.014 29.7509L161.78 30.7042L162.546 31.6604L163.312 32.6188L164.078 33.5784L164.844 34.5383L165.61 35.4978L166.376 36.456L167.142 37.4119L167.908 38.3647L168.674 39.3137L169.439 40.2578L170.205 41.1963L170.971 42.1284L171.737 43.0531L172.503 43.9697L173.269 44.8773L174.035 45.7751L174.801 46.6624L175.567 47.5382L176.333 48.4018L177.099 49.2525L177.865 50.0895L178.631 50.912L179.397 51.7192L180.162 52.5105L180.928 53.2852L181.694 54.0425L182.46 54.7818L183.226 55.5023L183.992 56.2035L184.758 56.8848L185.524 57.5454L186.29 58.1848L187.056 58.8025L187.822 59.3979L188.588 59.9704L189.354 60.5195L190.119 61.0448L190.885 61.5457L191.651 62.0219L192.417 62.4728L193.183 62.8981L193.949 63.2974L194.715 63.6703L195.481 64.0166L196.247 64.3358L197.013 64.6277L197.779 64.8921L198.545 65.1286L199.311 65.3371L200.076 65.5175L200.842 65.6695L201.608 65.7929L202.374 65.8878L203.14 65.954L203.906 65.9914L204.672 66L205.438 65.9798L206.204 65.9309L206.97 65.8532L207.736 65.7468L208.502 65.6119L209.268 65.4485L210.033 65.2568L210.799 65.037L211.565 64.7893L212.331 64.5139L213.097 64.211L213.863 63.8809L214.629 63.5239L215.395 63.1403L216.161 62.7306L216.927 62.2949L217.693 61.8338L218.459 61.3477L219.225 60.8369L219.99 60.302L220.756 59.7435L221.522 59.1617L222.288 58.5573L223.054 57.9309L223.82 57.2828L224.586 56.6139L225.352 55.9245L226.118 55.2155L226.884 54.4873L227.65 53.7408L228.416 52.9764L229.182 52.195L229.947 51.3972L230.713 50.5837L231.479 49.7554L232.245 48.9128L233.011 48.0568L233.777 47.1882L234.543 46.3077L235.309 45.4161L236.075 44.5143L236.841 43.603L237.607 42.683L238.373 41.7553L239.139 40.8205L239.904 39.8796L240.67 38.9335L241.436 37.9829L242.202 37.0287L242.968 36.0717L243.734 35.113L244.5 34.1532L245.266 33.1933L246.032 32.2341L246.798 31.2764L247.564 30.3213L248.33 29.3694L249.096 28.4218L249.861 27.4791L250.627 26.5423L251.393 25.6122L252.159 24.6897L252.925 23.7756L253.691 22.8706L254.457 21.9757L255.223 21.0916L255.989 20.2191L256.755 19.359L257.521 18.5121L258.287 17.6791L259.053 16.8608L259.818 16.0579L260.584 15.2712L261.35 14.5014L262.116 13.749L262.882 13.015L263.648 12.2998L264.414 11.6041L265.18 10.9286L265.946 10.2738L266.712 9.64039L267.478 9.02891L268.244 8.4399L269.01 7.87389L269.775 7.33139L270.541 6.8129L271.307 6.31887L272.073 5.84975L272.839 5.40596L273.605 4.98791L274.371 4.59597L275.137 4.23049L275.903 3.8918L276.669 3.5802L277.435 3.29599L278.201 3.0394L278.967 2.81068L279.732 2.61002L280.498 2.43762L281.264 2.29361L282.03 2.17815L282.796 2.09132L283.562 2.0332L284.328 2.00386L285.094 2.0033L285.86 2.03155L286.626 2.08856L287.392 2.17429L288.158 2.28867L288.924 2.43158L289.69 2.6029L290.455 2.80248L291.221 3.03013L291.987 3.28565L292.753 3.56882L293.519 3.87937L294.285 4.21703L295.051 4.58149L295.817 4.97242L296.583 5.38948L297.349 5.83229L298.115 6.30044L298.881 6.79353L299.647 7.3111L300.412 7.85268L301.178 8.4178L301.944 9.00594L302.71 9.61657L303.476 10.2491L304.242 10.9031L305.008 11.5778L305.774 12.2728L306.54 12.9872L307.306 13.7206L308.072 14.4722L308.838 15.2414L309.604 16.0275L310.369 16.8298L311.135 17.6475L311.901 18.4799L312.667 19.3263L313.433 20.1859L314.199 21.058L314.965 21.9416L315.731 22.8362L316.497 23.7407L317.263 24.6546L318.029 25.5768L318.795 26.5066L319.561 27.4431L320.326 28.3856L321.092 29.3331L321.858 30.2848L322.624 31.2398L323.39 32.1974L324.156 33.1565L324.922 34.1164L325.688 35.0762L326.454 36.0351L327.22 36.9921L327.986 37.9464L328.752 38.8971L329.518 39.8435L330.283 40.7846L331.049 41.7196L331.815 42.6476L332.581 43.5679L333.347 44.4796L334.113 45.3818L334.879 46.2738L335.645 47.1547L336.411 48.0238L337.177 48.8803L337.943 49.7234L338.709 50.5523L339.475 51.3663L340.24 52.1647L341.006 52.9468L341.772 53.7118L342.538 54.4591L343.304 55.188L344.07 55.8978L344.836 56.5879L345.602 57.2576L346.368 57.9064L347.134 58.5338L347.9 59.139L348.666 59.7216L349.432 60.2811L350.197 60.8169L350.963 61.3286L351.729 61.8157L352.495 62.2777L353.261 62.7144L354.027 63.1251L354.793 63.5097L355.559 63.8677L356.325 64.1988L357.091 64.5028L357.857 64.7793L358.623 65.0281L359.389 65.249L360.154 65.4417L360.92 65.6062L361.686 65.7422L362.452 65.8496L363.218 65.9284L363.984 65.9785L364.75 65.9998L365.516 65.9922L366.282 65.9559L367.048 65.8909L367.814 65.7971L368.58 65.6747L369.346 65.5238L370.111 65.3446L370.877 65.1371L371.643 64.9016L372.409 64.6383L373.175 64.3475L373.941 64.0293L374.707 63.6841L375.473 63.3122L376.239 62.9139L377.005 62.4896L377.771 62.0396L378.537 61.5644L379.303 61.0644L380.068 60.5401L380.834 59.9919L381.6 59.4202L382.366 58.8257L383.132 58.2089L383.898 57.5703L384.664 56.9104L385.43 56.23L386.196 55.5295L386.962 54.8097L387.728 54.0711L388.494 53.3145L389.26 52.5405L390.025 51.7498L390.791 50.9431L391.557 50.1212L392.323 49.2848L393.089 48.4346L393.855 47.5715L394.621 46.6961L395.387 45.8093L396.153 44.9119L396.919 44.0046L397.685 43.0884L398.451 42.1639L399.217 41.2322L399.982 40.2939L400.748 39.3499L401.514 38.4012L402.28 37.4484L403.046 36.4926L403.812 35.5345L404.578 34.5751L405.344 33.6151L406.11 32.6555L406.876 31.6971L407.642 30.7407L408.408 29.7873L409.174 28.8377L409.94 27.8927L410.705 26.9533L411.471 26.0201L412.237 25.0942L413.003 24.1763L413.769 23.2672L414.535 22.3677L415.301 21.4788L416.067 20.6011L416.833 19.7354L417.599 18.8826L418.365 18.0434L419.131 17.2186L419.897 16.4089L420.662 15.615L421.428 14.8376L422.194 14.0775L422.96 13.3353L423.726 12.6117L424.492 11.9074L425.258 11.2229L426.024 10.559L426.79 9.91611L427.556 9.29493L428.322 8.69597L429.088 8.11979L429.853 7.5669L430.619 7.03779L431.385 6.53295L432.151 6.05283L432.917 5.59786L433.683 5.16846L434.449 4.76499L435.215 4.38784L435.981 4.03734L436.747 3.7138L437.513 3.41751L438.279 3.14875L439.045 2.90776L439.811 2.69474L440.576 2.5099L441.342 2.3534L442.108 2.22537L442.874 2.12595L443.64 2.0552L444.406 2.01321L445.172 2L445.938 2.01559L446.704 2.05996L447.47 2.13308L448.236 2.23488L449.002 2.36526L449.768 2.52411L450.533 2.71129L451.299 2.92663L452.065 3.16993L452.831 3.44097L453.597 3.73952L454.363 4.0653L455.129 4.41802L455.895 4.79736L456.661 5.20299L457.427 5.63452L458.193 6.09159L458.959 6.57377L459.725 7.08063L460.49 7.61172L461.256 8.16656L462.022 8.74464L462.788 9.34546L463.554 9.96846L464.32 10.6131L465.086 11.2788L465.852 11.9649L466.618 12.6708L467.384 13.396L468.15 14.1397L468.916 14.9012L469.682 15.68L470.447 16.4752L471.213 17.2862L471.979 18.1123L472.745 18.9526L473.511 19.8065L474.277 20.6732L475.043 21.5519L475.809 22.4417L476.575 23.342L477.341 24.2518L478.107 25.1705L478.873 26.097L479.639 27.0307L480.404 27.9707L481.17 28.9161L481.936 29.866L482.702 30.8197L483.468 31.7763L484.234 32.7348L485 33.6945L4 34.0003Z" stroke="url(#paint0_linear)" stroke-width="3"/>
<defs>
<linearGradient id="paint0_linear" x1="475.987" y1="20.1492" x2="22.469" y2="52.1881" gradientUnits="userSpaceOnUse">
<stop stop-color="#D1F6F1"/>
<stop offset="1" stop-color="#D1F6F1" stop-opacity="0"/>
</linearGradient>
</defs>
</svg>
