<svg width="31" height="23" viewBox="0 0 31 23" fill="none" xmlns="http://www.w3.org/2000/svg">
<path d="M29.873 4.27936C29.7035 3.64514 29.3692 3.0663 28.9037 2.60081C28.4382 2.13533 27.8578 1.79954 27.2205 1.62708C24.8811 1 15.5 1 15.5 1C15.5 1 6.11894 1 3.77948 1.62708C3.14224 1.79954 2.5618 2.13533 2.09628 2.60081C1.63076 3.0663 1.29652 3.64514 1.12702 4.27936C0.5 6.61861 0.5 11.5 0.5 11.5C0.5 11.5 0.5 16.3814 1.12702 18.7212C1.29652 19.3554 1.63076 19.9342 2.09628 20.3997C2.5618 20.8652 3.14224 21.201 3.77948 21.3734C6.11894 22 15.5 22 15.5 22C15.5 22 24.8811 22 27.2205 21.3734C27.8578 21.201 28.4382 20.8652 28.9037 20.3997C29.3692 19.9342 29.7035 19.3554 29.873 18.7212C30.5 16.3814 30.5 11.5 30.5 11.5C30.5 11.5 30.5 6.61861 29.873 4.27936Z" fill="#EA5A47"/>
<path d="M11.5 16L19.5 11.5L11.5 7V16Z" fill="white"/>
<path d="M29.873 4.27936C29.7035 3.64514 29.3692 3.0663 28.9037 2.60081C28.4382 2.13533 27.8578 1.79954 27.2205 1.62708C24.8811 1 15.5 1 15.5 1C15.5 1 6.11894 1 3.77948 1.62708C3.14224 1.79954 2.5618 2.13533 2.09628 2.60081C1.63076 3.0663 1.29652 3.64514 1.12702 4.27936C0.5 6.61861 0.5 11.5 0.5 11.5C0.5 11.5 0.5 16.3814 1.12702 18.7212C1.29652 19.3554 1.63076 19.9342 2.09628 20.3997C2.5618 20.8652 3.14224 21.201 3.77948 21.3734C6.11894 22 15.5 22 15.5 22C15.5 22 24.8811 22 27.2205 21.3734C27.8578 21.201 28.4382 20.8652 28.9037 20.3997C29.3692 19.9342 29.7035 19.3554 29.873 18.7212C30.5 16.3814 30.5 11.5 30.5 11.5C30.5 11.5 30.5 6.61861 29.873 4.27936Z" stroke="black" stroke-miterlimit="10"/>
<path d="M12.5 16L20.5 11.5L12.5 7V16Z" stroke="black" stroke-miterlimit="10" stroke-linecap="round" stroke-linejoin="round"/>
</svg>
