<svg width="110" height="20" viewBox="0 0 110 20" fill="none" xmlns="http://www.w3.org/2000/svg">
<path d="M32.816 13.184H27.056L25.84 16H24.16L29.232 4.608H30.624L35.712 16H34.032L32.816 13.184ZM32.256 11.872L29.936 6.448L27.616 11.872H32.256ZM44.4194 4.224V16H42.8194V14.624C42.5847 15.104 42.2327 15.472 41.7634 15.728C41.3047 15.984 40.766 16.112 40.1474 16.112C39.454 16.112 38.8354 15.936 38.2914 15.584C37.7474 15.232 37.3207 14.7413 37.0114 14.112C36.7127 13.472 36.5634 12.736 36.5634 11.904C36.5634 11.072 36.7127 10.3413 37.0114 9.712C37.31 9.08267 37.726 8.59733 38.2594 8.256C38.8034 7.91467 39.4327 7.744 40.1474 7.744C40.7554 7.744 41.2887 7.872 41.7474 8.128C42.2167 8.384 42.5687 8.74667 42.8034 9.216V4.224H44.4194ZM40.5154 14.832C41.2514 14.832 41.8167 14.5813 42.2114 14.08C42.6167 13.568 42.8194 12.8533 42.8194 11.936C42.8194 11.0187 42.6167 10.3093 42.2114 9.808C41.8167 9.296 41.2567 9.04 40.5314 9.04C39.7954 9.04 39.2194 9.29067 38.8034 9.792C38.398 10.2933 38.1954 10.9973 38.1954 11.904C38.1954 12.8213 38.398 13.5413 38.8034 14.064C39.2194 14.576 39.79 14.832 40.5154 14.832ZM54.1694 4.224V16H52.5694V14.624C52.3347 15.104 51.9827 15.472 51.5134 15.728C51.0547 15.984 50.516 16.112 49.8974 16.112C49.204 16.112 48.5854 15.936 48.0414 15.584C47.4974 15.232 47.0707 14.7413 46.7614 14.112C46.4627 13.472 46.3134 12.736 46.3134 11.904C46.3134 11.072 46.4627 10.3413 46.7614 9.712C47.06 9.08267 47.476 8.59733 48.0094 8.256C48.5534 7.91467 49.1827 7.744 49.8974 7.744C50.5054 7.744 51.0387 7.872 51.4974 8.128C51.9667 8.384 52.3187 8.74667 52.5534 9.216V4.224H54.1694ZM50.2654 14.832C51.0014 14.832 51.5667 14.5813 51.9614 14.08C52.3667 13.568 52.5694 12.8533 52.5694 11.936C52.5694 11.0187 52.3667 10.3093 51.9614 9.808C51.5667 9.296 51.0067 9.04 50.2814 9.04C49.5454 9.04 48.9694 9.29067 48.5534 9.792C48.148 10.2933 47.9454 10.9973 47.9454 11.904C47.9454 12.8213 48.148 13.5413 48.5534 14.064C48.9694 14.576 49.54 14.832 50.2654 14.832ZM68.185 4.224V16H66.585V14.624C66.3503 15.104 65.9983 15.472 65.529 15.728C65.0703 15.984 64.5317 16.112 63.913 16.112C63.2197 16.112 62.601 15.936 62.057 15.584C61.513 15.232 61.0863 14.7413 60.777 14.112C60.4783 13.472 60.329 12.736 60.329 11.904C60.329 11.072 60.4783 10.3413 60.777 9.712C61.0757 9.08267 61.4917 8.59733 62.025 8.256C62.569 7.91467 63.1983 7.744 63.913 7.744C64.521 7.744 65.0543 7.872 65.513 8.128C65.9823 8.384 66.3343 8.74667 66.569 9.216V4.224H68.185ZM64.281 14.832C65.017 14.832 65.5823 14.5813 65.977 14.08C66.3823 13.568 66.585 12.8533 66.585 11.936C66.585 11.0187 66.3823 10.3093 65.977 9.808C65.5823 9.296 65.0223 9.04 64.297 9.04C63.561 9.04 62.985 9.29067 62.569 9.792C62.1637 10.2933 61.961 10.9973 61.961 11.904C61.961 12.8213 62.1637 13.5413 62.569 14.064C62.985 14.576 63.5557 14.832 64.281 14.832ZM77.439 12H71.679C71.7323 13.888 72.591 14.832 74.255 14.832C75.183 14.832 76.031 14.528 76.799 13.92L77.295 15.072C76.9323 15.392 76.4683 15.648 75.903 15.84C75.3483 16.0213 74.7883 16.112 74.223 16.112C72.9323 16.112 71.919 15.744 71.183 15.008C70.447 14.2613 70.079 13.2427 70.079 11.952C70.079 11.1307 70.239 10.4 70.559 9.76C70.8897 9.12 71.3483 8.624 71.935 8.272C72.5217 7.92 73.1883 7.744 73.935 7.744C75.023 7.744 75.8763 8.096 76.495 8.8C77.1243 9.504 77.439 10.48 77.439 11.728V12ZM73.967 8.944C73.359 8.944 72.863 9.12533 72.479 9.488C72.095 9.85067 71.8497 10.368 71.743 11.04H76.015C75.951 10.3573 75.743 9.84 75.391 9.488C75.039 9.12533 74.5643 8.944 73.967 8.944ZM81.3113 9.184V13.232C81.3113 13.7867 81.4286 14.1813 81.6633 14.416C81.9086 14.64 82.2446 14.752 82.6713 14.752C82.9486 14.752 83.2313 14.7093 83.5193 14.624V15.936C83.1673 16.0533 82.7673 16.112 82.3193 16.112C81.4873 16.112 80.8419 15.8773 80.3832 15.408C79.9246 14.9387 79.6953 14.256 79.6953 13.36V9.184H78.1273V7.936H79.6953V5.92L81.3113 5.36V7.936H83.5353V9.184H81.3113ZM92.4038 7.936V16H90.8038V14.624C90.5691 15.104 90.2171 15.472 89.7478 15.728C89.2891 15.984 88.7504 16.112 88.1318 16.112C87.4171 16.112 86.7878 15.9413 86.2438 15.6C85.7104 15.2587 85.2944 14.7787 84.9958 14.16C84.6971 13.5307 84.5478 12.8 84.5478 11.968C84.5478 11.136 84.6971 10.4 84.9958 9.76C85.3051 9.12 85.7318 8.624 86.2758 8.272C86.8198 7.92 87.4384 7.744 88.1318 7.744C88.7504 7.744 89.2891 7.87733 89.7478 8.144C90.2064 8.4 90.5584 8.768 90.8038 9.248V7.936H92.4038ZM88.5158 14.832C89.2411 14.832 89.8011 14.5813 90.1958 14.08C90.6011 13.568 90.8038 12.8533 90.8038 11.936C90.8038 11.008 90.6011 10.2933 90.1958 9.792C89.8011 9.29067 89.2358 9.04 88.4998 9.04C87.7744 9.04 87.2038 9.30133 86.7878 9.824C86.3824 10.336 86.1798 11.0507 86.1798 11.968C86.1798 12.8747 86.3824 13.5787 86.7878 14.08C87.2038 14.5813 87.7798 14.832 88.5158 14.832ZM94.7778 7.936H96.3778V16H94.7778V7.936ZM96.5058 4.416V6.112H94.6338V4.416H96.5058ZM98.7465 4.224H100.347V16H98.7465V4.224ZM105.531 16.112C104.123 16.112 103.014 15.7707 102.203 15.088L102.683 13.92C103.526 14.56 104.491 14.88 105.579 14.88C106.134 14.88 106.555 14.7893 106.843 14.608C107.131 14.416 107.275 14.1493 107.275 13.808C107.275 13.52 107.174 13.296 106.971 13.136C106.779 12.9653 106.449 12.8213 105.979 12.704L104.635 12.384C103.931 12.2347 103.393 11.9733 103.019 11.6C102.657 11.216 102.475 10.7413 102.475 10.176C102.475 9.45067 102.763 8.864 103.339 8.416C103.926 7.968 104.699 7.744 105.659 7.744C106.235 7.744 106.779 7.83467 107.291 8.016C107.814 8.19733 108.257 8.45333 108.619 8.784L108.123 9.92C107.345 9.30133 106.523 8.992 105.659 8.992C105.137 8.992 104.731 9.09333 104.443 9.296C104.155 9.488 104.011 9.76 104.011 10.112C104.011 10.3893 104.102 10.6133 104.283 10.784C104.465 10.9547 104.753 11.088 105.147 11.184L106.523 11.52C107.291 11.6907 107.857 11.9627 108.219 12.336C108.593 12.6987 108.779 13.1733 108.779 13.76C108.779 14.4853 108.486 15.0613 107.899 15.488C107.323 15.904 106.534 16.112 105.531 16.112Z" fill="#FA7328"/>
<path fill-rule="evenodd" clip-rule="evenodd" d="M17.5 11.0714H11.0714V17.5H8.92857V11.0714H2.5V8.92857H8.92857V2.5H11.0714V8.92857H17.5V11.0714Z" fill="#FA7328"/>
</svg>
