<svg width="179" height="30" viewBox="0 0 179 30" fill="none" xmlns="http://www.w3.org/2000/svg">
<rect width="179" height="30" rx="15" fill="#E8F4FE"/>
<path fill-rule="evenodd" clip-rule="evenodd" d="M24 18.9286C24.8054 18.9286 25.4583 18.289 25.4583 17.5C25.4583 16.7071 24.8021 16.0714 24 16.0714C23.1946 16.0714 22.5417 16.711 22.5417 17.5C22.5417 18.289 23.1946 18.9286 24 18.9286ZM28.375 12.5C29.1804 12.5 29.8333 13.1396 29.8333 13.9286V21.0714C29.8333 21.8604 29.1804 22.5 28.375 22.5H19.625C18.8196 22.5 18.1667 21.8604 18.1667 21.0714V13.9286C18.1667 13.1357 18.8229 12.5 19.625 12.5H20.3542V11.0714C20.3542 9.09898 21.9865 7.5 24 7.5C24.9669 7.5 25.8943 7.87627 26.578 8.54605C27.2617 9.21582 27.6458 10.1242 27.6458 11.0714V12.5H28.375ZM24 8.92857C22.7919 8.92857 21.8125 9.88796 21.8125 11.0714V12.5H26.1875V11.0714C26.1875 9.88796 25.2081 8.92857 24 8.92857Z" fill="#2886F6"/>
<path d="M42.632 20.096C41.84 20.096 41.152 19.92 40.568 19.568C39.984 19.216 39.532 18.712 39.212 18.056C38.9 17.392 38.744 16.616 38.744 15.728C38.744 14.832 38.9 14.056 39.212 13.4C39.524 12.744 39.972 12.24 40.556 11.888C41.14 11.536 41.832 11.36 42.632 11.36C43.432 11.36 44.124 11.536 44.708 11.888C45.292 12.24 45.74 12.744 46.052 13.4C46.364 14.056 46.52 14.828 46.52 15.716C46.52 16.612 46.36 17.388 46.04 18.044C45.728 18.7 45.28 19.208 44.696 19.568C44.112 19.92 43.424 20.096 42.632 20.096ZM42.632 19.256C43.536 19.256 44.24 18.948 44.744 18.332C45.248 17.716 45.5 16.844 45.5 15.716C45.5 14.588 45.248 13.72 44.744 13.112C44.248 12.504 43.544 12.2 42.632 12.2C41.72 12.2 41.012 12.508 40.508 13.124C40.004 13.732 39.752 14.596 39.752 15.716C39.752 16.844 40.004 17.716 40.508 18.332C41.012 18.948 41.72 19.256 42.632 19.256ZM51.2175 13.82C52.6655 13.82 53.3895 14.616 53.3895 16.208V20H52.4175V16.256C52.4175 15.696 52.3055 15.288 52.0815 15.032C51.8575 14.768 51.5055 14.636 51.0255 14.636C50.4655 14.636 50.0175 14.808 49.6815 15.152C49.3455 15.496 49.1775 15.96 49.1775 16.544V20H48.2055V15.656C48.2055 15.032 48.1735 14.468 48.1095 13.964H49.0335L49.1295 15.044C49.3135 14.652 49.5895 14.352 49.9575 14.144C50.3255 13.928 50.7455 13.82 51.2175 13.82ZM55.2251 11.168H56.1971V20H55.2251V11.168ZM63.3884 13.964L60.5684 20.552C60.2724 21.24 59.9004 21.744 59.4524 22.064C59.0044 22.384 58.4524 22.604 57.7964 22.724L57.5924 21.968C58.1604 21.84 58.5884 21.668 58.8764 21.452C59.1724 21.244 59.4164 20.92 59.6084 20.48L59.8484 19.94L57.2924 13.964H58.3124L60.3524 18.944L62.4164 13.964H63.3884ZM72.8923 13.964L70.0723 20.552C69.7763 21.24 69.4043 21.744 68.9563 22.064C68.5083 22.384 67.9563 22.604 67.3003 22.724L67.0963 21.968C67.6643 21.84 68.0923 21.668 68.3803 21.452C68.6763 21.244 68.9203 20.92 69.1123 20.48L69.3523 19.94L66.7963 13.964H67.8163L69.8563 18.944L71.9203 13.964H72.8923ZM76.389 20.084C75.821 20.084 75.321 19.956 74.889 19.7C74.457 19.444 74.121 19.08 73.881 18.608C73.649 18.136 73.533 17.584 73.533 16.952C73.533 16.32 73.649 15.768 73.881 15.296C74.121 14.824 74.457 14.46 74.889 14.204C75.321 13.948 75.821 13.82 76.389 13.82C76.957 13.82 77.457 13.948 77.889 14.204C78.321 14.46 78.653 14.824 78.885 15.296C79.125 15.768 79.245 16.32 79.245 16.952C79.245 17.584 79.125 18.136 78.885 18.608C78.653 19.08 78.321 19.444 77.889 19.7C77.457 19.956 76.957 20.084 76.389 20.084ZM76.389 19.28C76.989 19.28 77.449 19.084 77.769 18.692C78.089 18.292 78.249 17.712 78.249 16.952C78.249 16.216 78.085 15.648 77.757 15.248C77.429 14.84 76.973 14.636 76.389 14.636C75.797 14.636 75.337 14.84 75.009 15.248C74.681 15.648 74.517 16.216 74.517 16.952C74.517 17.712 74.677 18.292 74.997 18.692C75.325 19.084 75.789 19.28 76.389 19.28ZM85.8122 13.964V20H84.8642V18.956C84.6722 19.324 84.4042 19.604 84.0602 19.796C83.7162 19.988 83.3282 20.084 82.8962 20.084C82.1842 20.084 81.6442 19.884 81.2762 19.484C80.9082 19.084 80.7242 18.492 80.7242 17.708V13.964H81.6962V17.684C81.6962 18.228 81.8082 18.628 82.0322 18.884C82.2562 19.14 82.5962 19.268 83.0522 19.268C83.5882 19.268 84.0202 19.096 84.3482 18.752C84.6762 18.4 84.8402 17.94 84.8402 17.372V13.964H85.8122ZM93.3469 20.084C92.7629 20.084 92.2509 19.956 91.8109 19.7C91.3789 19.444 91.0429 19.084 90.8029 18.62C90.5709 18.148 90.4549 17.6 90.4549 16.976C90.4549 16.352 90.5749 15.804 90.8149 15.332C91.0549 14.852 91.3949 14.48 91.8349 14.216C92.2829 13.952 92.8029 13.82 93.3949 13.82C93.8029 13.82 94.1949 13.892 94.5709 14.036C94.9549 14.172 95.2709 14.364 95.5189 14.612L95.1949 15.332C94.8909 15.092 94.5949 14.916 94.3069 14.804C94.0269 14.692 93.7389 14.636 93.4429 14.636C92.8269 14.636 92.3429 14.844 91.9909 15.26C91.6389 15.668 91.4629 16.24 91.4629 16.976C91.4629 17.704 91.6349 18.272 91.9789 18.68C92.3309 19.08 92.8189 19.28 93.4429 19.28C93.7389 19.28 94.0269 19.224 94.3069 19.112C94.5949 19 94.8909 18.824 95.1949 18.584L95.5189 19.304C95.2629 19.544 94.9389 19.736 94.5469 19.88C94.1629 20.016 93.7629 20.084 93.3469 20.084ZM102.072 13.964V20H101.112V18.908C100.936 19.284 100.668 19.576 100.308 19.784C99.9563 19.984 99.5443 20.084 99.0723 20.084C98.5363 20.084 98.0643 19.956 97.6563 19.7C97.2563 19.444 96.9443 19.084 96.7203 18.62C96.5043 18.148 96.3963 17.6 96.3963 16.976C96.3963 16.352 96.5083 15.804 96.7323 15.332C96.9563 14.852 97.2683 14.48 97.6683 14.216C98.0763 13.952 98.5443 13.82 99.0723 13.82C99.5443 13.82 99.9563 13.924 100.308 14.132C100.66 14.34 100.928 14.632 101.112 15.008V13.964H102.072ZM99.2643 19.28C99.8563 19.28 100.312 19.08 100.632 18.68C100.952 18.272 101.112 17.696 101.112 16.952C101.112 16.208 100.952 15.636 100.632 15.236C100.312 14.836 99.8563 14.636 99.2643 14.636C98.6723 14.636 98.2083 14.844 97.8723 15.26C97.5443 15.668 97.3803 16.24 97.3803 16.976C97.3803 17.712 97.5443 18.28 97.8723 18.68C98.2003 19.08 98.6643 19.28 99.2643 19.28ZM106.964 13.82C108.412 13.82 109.136 14.616 109.136 16.208V20H108.164V16.256C108.164 15.696 108.052 15.288 107.828 15.032C107.604 14.768 107.252 14.636 106.772 14.636C106.212 14.636 105.764 14.808 105.428 15.152C105.092 15.496 104.924 15.96 104.924 16.544V20H103.952V15.656C103.952 15.032 103.92 14.468 103.856 13.964H104.78L104.876 15.044C105.06 14.652 105.336 14.352 105.704 14.144C106.072 13.928 106.492 13.82 106.964 13.82ZM119.404 13.976L116.8 20H115.876L113.308 13.976H114.328L116.368 18.944L118.432 13.976H119.404ZM120.475 13.964H121.447V20H120.475V13.964ZM121.567 11.408V12.512H120.379V11.408H121.567ZM128.386 16.952H123.958C123.966 17.72 124.142 18.3 124.486 18.692C124.838 19.084 125.346 19.28 126.01 19.28C126.714 19.28 127.362 19.044 127.954 18.572L128.278 19.28C128.014 19.528 127.674 19.724 127.258 19.868C126.85 20.012 126.43 20.084 125.998 20.084C125.054 20.084 124.314 19.808 123.778 19.256C123.242 18.696 122.974 17.932 122.974 16.964C122.974 16.348 123.094 15.804 123.334 15.332C123.574 14.852 123.91 14.48 124.342 14.216C124.774 13.952 125.266 13.82 125.818 13.82C126.618 13.82 127.246 14.084 127.702 14.612C128.158 15.132 128.386 15.852 128.386 16.772V16.952ZM125.83 14.576C125.326 14.576 124.914 14.728 124.594 15.032C124.282 15.336 124.082 15.764 123.994 16.316H127.51C127.462 15.748 127.294 15.316 127.006 15.02C126.726 14.724 126.334 14.576 125.83 14.576ZM138.959 13.964L136.727 20H135.791L134.063 15.284L132.347 20H131.411L129.179 13.964H130.199L131.903 18.836L133.667 13.964H134.519L136.259 18.848L137.999 13.964H138.959ZM144.646 14.732V18.032C144.646 18.48 144.738 18.796 144.922 18.98C145.106 19.156 145.366 19.244 145.702 19.244C145.926 19.244 146.142 19.208 146.35 19.136V19.964C146.102 20.044 145.822 20.084 145.51 20.084C144.934 20.084 144.482 19.924 144.154 19.604C143.834 19.276 143.674 18.796 143.674 18.164V14.732H142.498V13.964H143.674V12.416L144.646 12.068V13.964H146.374V14.732H144.646ZM150.557 13.82C152.005 13.82 152.729 14.616 152.729 16.208V20H151.757V16.256C151.757 15.696 151.645 15.288 151.421 15.032C151.197 14.768 150.845 14.636 150.365 14.636C149.805 14.636 149.357 14.808 149.021 15.152C148.685 15.496 148.517 15.96 148.517 16.544V20H147.545V11.168H148.517V14.948C148.709 14.58 148.981 14.3 149.333 14.108C149.693 13.916 150.101 13.82 150.557 13.82ZM154.565 13.964H155.537V20H154.565V13.964ZM155.657 11.408V12.512H154.469V11.408H155.657ZM159.464 20.084C158.448 20.084 157.644 19.824 157.052 19.304L157.376 18.584C157.704 18.84 158.036 19.024 158.372 19.136C158.708 19.248 159.084 19.304 159.5 19.304C159.956 19.304 160.3 19.228 160.532 19.076C160.772 18.916 160.892 18.688 160.892 18.392C160.892 18.152 160.812 17.96 160.652 17.816C160.492 17.672 160.228 17.56 159.86 17.48L158.84 17.24C158.336 17.128 157.944 16.928 157.664 16.64C157.392 16.352 157.256 16.008 157.256 15.608C157.256 15.08 157.468 14.652 157.892 14.324C158.316 13.988 158.876 13.82 159.572 13.82C159.996 13.82 160.396 13.888 160.772 14.024C161.148 14.16 161.464 14.356 161.72 14.612L161.396 15.32C160.828 14.848 160.22 14.612 159.572 14.612C159.14 14.612 158.804 14.696 158.564 14.864C158.332 15.024 158.216 15.252 158.216 15.548C158.216 15.796 158.288 15.992 158.432 16.136C158.584 16.28 158.824 16.392 159.152 16.472L160.172 16.724C160.732 16.852 161.148 17.052 161.42 17.324C161.692 17.588 161.828 17.936 161.828 18.368C161.828 18.888 161.616 19.304 161.192 19.616C160.768 19.928 160.192 20.084 159.464 20.084Z" fill="#3090F7"/>
</svg>
