<svg width="56" height="20" viewBox="0 0 56 20" fill="none" xmlns="http://www.w3.org/2000/svg">
<path d="M32.816 13.184H27.056L25.84 16H24.16L29.232 4.608H30.624L35.712 16H34.032L32.816 13.184ZM32.256 11.872L29.936 6.448L27.616 11.872H32.256ZM44.4194 4.224V16H42.8194V14.624C42.5847 15.104 42.2327 15.472 41.7634 15.728C41.3047 15.984 40.766 16.112 40.1474 16.112C39.454 16.112 38.8354 15.936 38.2914 15.584C37.7474 15.232 37.3207 14.7413 37.0114 14.112C36.7127 13.472 36.5634 12.736 36.5634 11.904C36.5634 11.072 36.7127 10.3413 37.0114 9.712C37.31 9.08267 37.726 8.59733 38.2594 8.256C38.8034 7.91467 39.4327 7.744 40.1474 7.744C40.7554 7.744 41.2887 7.872 41.7474 8.128C42.2167 8.384 42.5687 8.74667 42.8034 9.216V4.224H44.4194ZM40.5154 14.832C41.2514 14.832 41.8167 14.5813 42.2114 14.08C42.6167 13.568 42.8194 12.8533 42.8194 11.936C42.8194 11.0187 42.6167 10.3093 42.2114 9.808C41.8167 9.296 41.2567 9.04 40.5314 9.04C39.7954 9.04 39.2194 9.29067 38.8034 9.792C38.398 10.2933 38.1954 10.9973 38.1954 11.904C38.1954 12.8213 38.398 13.5413 38.8034 14.064C39.2194 14.576 39.79 14.832 40.5154 14.832ZM54.1694 4.224V16H52.5694V14.624C52.3347 15.104 51.9827 15.472 51.5134 15.728C51.0547 15.984 50.516 16.112 49.8974 16.112C49.204 16.112 48.5854 15.936 48.0414 15.584C47.4974 15.232 47.0707 14.7413 46.7614 14.112C46.4627 13.472 46.3134 12.736 46.3134 11.904C46.3134 11.072 46.4627 10.3413 46.7614 9.712C47.06 9.08267 47.476 8.59733 48.0094 8.256C48.5534 7.91467 49.1827 7.744 49.8974 7.744C50.5054 7.744 51.0387 7.872 51.4974 8.128C51.9667 8.384 52.3187 8.74667 52.5534 9.216V4.224H54.1694ZM50.2654 14.832C51.0014 14.832 51.5667 14.5813 51.9614 14.08C52.3667 13.568 52.5694 12.8533 52.5694 11.936C52.5694 11.0187 52.3667 10.3093 51.9614 9.808C51.5667 9.296 51.0067 9.04 50.2814 9.04C49.5454 9.04 48.9694 9.29067 48.5534 9.792C48.148 10.2933 47.9454 10.9973 47.9454 11.904C47.9454 12.8213 48.148 13.5413 48.5534 14.064C48.9694 14.576 49.54 14.832 50.2654 14.832Z" fill="#FA7328"/>
<path fill-rule="evenodd" clip-rule="evenodd" d="M17.5 11.0714H11.0714V17.5H8.92857V11.0714H2.5V8.92857H8.92857V2.5H11.0714V8.92857H17.5V11.0714Z" fill="#FA7328"/>
</svg>
