<svg width="54" height="54" viewBox="0 0 54 54" fill="none" xmlns="http://www.w3.org/2000/svg">
<path fill-rule="evenodd" clip-rule="evenodd" d="M27 4.5C14.5723 4.5 4.5 14.5723 4.5 27C4.5 39.4277 14.5723 49.5 27 49.5C39.4277 49.5 49.5 39.4277 49.5 27C49.5 14.5723 39.4277 4.5 27 4.5ZM38.25 28.8765H28.8765V38.25C28.8765 39.2871 28.0371 40.1265 27 40.1265C25.9629 40.1265 25.1235 39.2871 25.1235 38.25V28.8765H15.75C14.7129 28.8765 13.8735 28.0371 13.8735 27C13.8735 25.9629 14.7129 25.1235 15.75 25.1235H25.1235V15.75C25.1235 14.7129 25.9629 13.8735 27 13.8735C28.0371 13.8735 28.8765 14.7129 28.8765 15.75V25.1235H38.25C39.2871 25.1235 40.1265 25.9629 40.1265 27C40.1265 28.0371 39.2871 28.8765 38.25 28.8765Z" fill="#BDBDBD"/>
</svg>
