<svg width="216" height="20" viewBox="0 0 216 20" fill="none" xmlns="http://www.w3.org/2000/svg">
<path d="M41.392 4.608L37.376 16H36L32.928 7.2L29.84 16H28.464L24.464 4.608H26.144L29.2 13.664L32.352 4.608L33.568 4.624L36.672 13.712L39.776 4.608H41.392ZM46.1375 7.744C46.3828 7.744 46.6388 7.78133 46.9055 7.856L46.8735 9.328C46.5855 9.22133 46.2708 9.168 45.9295 9.168C45.1935 9.168 44.6388 9.392 44.2655 9.84C43.9028 10.2773 43.7215 10.832 43.7215 11.504V16H42.1215V10.208C42.1215 9.36533 42.0788 8.608 41.9935 7.936H43.4975L43.6415 9.392C43.8548 8.85867 44.1855 8.45333 44.6335 8.176C45.0815 7.888 45.5828 7.744 46.1375 7.744ZM48.1371 7.936H49.7371V16H48.1371V7.936ZM49.8651 4.416V6.112H47.9931V4.416H49.8651ZM54.2019 9.184V13.232C54.2019 13.7867 54.3192 14.1813 54.5539 14.416C54.7992 14.64 55.1352 14.752 55.5619 14.752C55.8392 14.752 56.1219 14.7093 56.4099 14.624V15.936C56.0579 16.0533 55.6579 16.112 55.2099 16.112C54.3779 16.112 53.7325 15.8773 53.2739 15.408C52.8152 14.9387 52.5859 14.256 52.5859 13.36V9.184H51.0179V7.936H52.5859V5.92L54.2019 5.36V7.936H56.4259V9.184H54.2019ZM64.7984 12H59.0384C59.0917 13.888 59.9504 14.832 61.6144 14.832C62.5424 14.832 63.3904 14.528 64.1584 13.92L64.6544 15.072C64.2917 15.392 63.8277 15.648 63.2624 15.84C62.7077 16.0213 62.1477 16.112 61.5824 16.112C60.2917 16.112 59.2784 15.744 58.5424 15.008C57.8064 14.2613 57.4384 13.2427 57.4384 11.952C57.4384 11.1307 57.5984 10.4 57.9184 9.76C58.249 9.12 58.7077 8.624 59.2944 8.272C59.881 7.92 60.5477 7.744 61.2944 7.744C62.3824 7.744 63.2357 8.096 63.8544 8.8C64.4837 9.504 64.7984 10.48 64.7984 11.728V12ZM61.3264 8.944C60.7184 8.944 60.2224 9.12533 59.8384 9.488C59.4544 9.85067 59.209 10.368 59.1024 11.04H63.3744C63.3104 10.3573 63.1024 9.84 62.7504 9.488C62.3984 9.12533 61.9237 8.944 61.3264 8.944ZM78.2944 7.936V16H76.6944V14.624C76.4597 15.104 76.1077 15.472 75.6384 15.728C75.1797 15.984 74.641 16.112 74.0224 16.112C73.3077 16.112 72.6784 15.9413 72.1344 15.6C71.601 15.2587 71.185 14.7787 70.8864 14.16C70.5877 13.5307 70.4384 12.8 70.4384 11.968C70.4384 11.136 70.5877 10.4 70.8864 9.76C71.1957 9.12 71.6224 8.624 72.1664 8.272C72.7104 7.92 73.329 7.744 74.0224 7.744C74.641 7.744 75.1797 7.87733 75.6384 8.144C76.097 8.4 76.449 8.768 76.6944 9.248V7.936H78.2944ZM74.4064 14.832C75.1317 14.832 75.6917 14.5813 76.0864 14.08C76.4917 13.568 76.6944 12.8533 76.6944 11.936C76.6944 11.008 76.4917 10.2933 76.0864 9.792C75.6917 9.29067 75.1264 9.04 74.3904 9.04C73.665 9.04 73.0944 9.30133 72.6784 9.824C72.273 10.336 72.0704 11.0507 72.0704 11.968C72.0704 12.8747 72.273 13.5787 72.6784 14.08C73.0944 14.5813 73.6704 14.832 74.4064 14.832ZM89.206 7.744C89.91 7.744 90.534 7.91467 91.078 8.256C91.622 8.59733 92.0433 9.08267 92.342 9.712C92.6407 10.3413 92.79 11.072 92.79 11.904C92.79 12.736 92.6353 13.472 92.326 14.112C92.0273 14.7413 91.606 15.232 91.062 15.584C90.518 15.936 89.8993 16.112 89.206 16.112C88.5873 16.112 88.0433 15.984 87.574 15.728C87.1153 15.4613 86.7687 15.0827 86.534 14.592V16H84.934V4.224H86.534V9.264C86.7687 8.784 87.1153 8.41067 87.574 8.144C88.0433 7.87733 88.5873 7.744 89.206 7.744ZM88.838 14.832C89.5633 14.832 90.1287 14.576 90.534 14.064C90.9393 13.5413 91.142 12.8213 91.142 11.904C91.142 10.9973 90.9393 10.2933 90.534 9.792C90.1287 9.29067 89.5633 9.04 88.838 9.04C88.102 9.04 87.5313 9.29067 87.126 9.792C86.7313 10.2933 86.534 11.008 86.534 11.936C86.534 12.864 86.7313 13.5787 87.126 14.08C87.5313 14.5813 88.102 14.832 88.838 14.832ZM94.684 7.936H96.284V16H94.684V7.936ZM96.412 4.416V6.112H94.54V4.416H96.412ZM100.749 9.184V13.232C100.749 13.7867 100.866 14.1813 101.101 14.416C101.346 14.64 101.682 14.752 102.109 14.752C102.386 14.752 102.669 14.7093 102.957 14.624V15.936C102.605 16.0533 102.205 16.112 101.757 16.112C100.925 16.112 100.279 15.8773 99.8207 15.408C99.3621 14.9387 99.1328 14.256 99.1328 13.36V9.184H97.5648V7.936H99.1328V5.92L100.749 5.36V7.936H102.973V9.184H100.749ZM116.107 7.936V16H114.507V14.624C114.272 15.104 113.92 15.472 113.451 15.728C112.992 15.984 112.454 16.112 111.835 16.112C111.12 16.112 110.491 15.9413 109.947 15.6C109.414 15.2587 108.998 14.7787 108.699 14.16C108.4 13.5307 108.251 12.8 108.251 11.968C108.251 11.136 108.4 10.4 108.699 9.76C109.008 9.12 109.435 8.624 109.979 8.272C110.523 7.92 111.142 7.744 111.835 7.744C112.454 7.744 112.992 7.87733 113.451 8.144C113.91 8.4 114.262 8.768 114.507 9.248V7.936H116.107ZM112.219 14.832C112.944 14.832 113.504 14.5813 113.899 14.08C114.304 13.568 114.507 12.8533 114.507 11.936C114.507 11.008 114.304 10.2933 113.899 9.792C113.504 9.29067 112.939 9.04 112.203 9.04C111.478 9.04 110.907 9.30133 110.491 9.824C110.086 10.336 109.883 11.0507 109.883 11.968C109.883 12.8747 110.086 13.5787 110.491 14.08C110.907 14.5813 111.483 14.832 112.219 14.832ZM122.753 7.744C123.457 7.744 124.081 7.91467 124.625 8.256C125.169 8.59733 125.59 9.08267 125.889 9.712C126.188 10.3413 126.337 11.072 126.337 11.904C126.337 12.736 126.182 13.472 125.873 14.112C125.574 14.7413 125.153 15.232 124.609 15.584C124.065 15.936 123.446 16.112 122.753 16.112C122.134 16.112 121.59 15.984 121.121 15.728C120.662 15.4613 120.316 15.0827 120.081 14.592V16H118.481V4.224H120.081V9.264C120.316 8.784 120.662 8.41067 121.121 8.144C121.59 7.87733 122.134 7.744 122.753 7.744ZM122.385 14.832C123.11 14.832 123.676 14.576 124.081 14.064C124.486 13.5413 124.689 12.8213 124.689 11.904C124.689 10.9973 124.486 10.2933 124.081 9.792C123.676 9.29067 123.11 9.04 122.385 9.04C121.649 9.04 121.078 9.29067 120.673 9.792C120.278 10.2933 120.081 11.008 120.081 11.936C120.081 12.864 120.278 13.5787 120.673 14.08C121.078 14.5813 121.649 14.832 122.385 14.832ZM131.703 16.112C130.914 16.112 130.22 15.9413 129.623 15.6C129.026 15.2587 128.562 14.7733 128.231 14.144C127.911 13.5147 127.751 12.7787 127.751 11.936C127.751 11.0933 127.911 10.3573 128.231 9.728C128.562 9.088 129.026 8.59733 129.623 8.256C130.22 7.91467 130.914 7.744 131.703 7.744C132.482 7.744 133.17 7.91467 133.767 8.256C134.364 8.59733 134.823 9.088 135.143 9.728C135.474 10.3573 135.639 11.0933 135.639 11.936C135.639 12.7787 135.474 13.5147 135.143 14.144C134.823 14.7733 134.364 15.2587 133.767 15.6C133.17 15.9413 132.482 16.112 131.703 16.112ZM131.687 14.832C132.434 14.832 133.004 14.5867 133.399 14.096C133.794 13.6053 133.991 12.8853 133.991 11.936C133.991 11.008 133.788 10.2933 133.383 9.792C132.988 9.29067 132.428 9.04 131.703 9.04C130.967 9.04 130.396 9.29067 129.991 9.792C129.586 10.2933 129.383 11.008 129.383 11.936C129.383 12.8853 129.58 13.6053 129.975 14.096C130.38 14.5867 130.951 14.832 131.687 14.832ZM144.536 7.936V16H142.968V14.656C142.712 15.1253 142.36 15.488 141.912 15.744C141.464 15.9893 140.957 16.112 140.392 16.112C138.45 16.112 137.48 15.0347 137.48 12.88V7.936H139.08V12.864C139.08 13.5253 139.213 14.016 139.48 14.336C139.757 14.6453 140.173 14.8 140.728 14.8C141.389 14.8 141.917 14.5867 142.312 14.16C142.717 13.7333 142.92 13.168 142.92 12.464V7.936H144.536ZM148.999 9.184V13.232C148.999 13.7867 149.116 14.1813 149.351 14.416C149.596 14.64 149.932 14.752 150.359 14.752C150.636 14.752 150.919 14.7093 151.207 14.624V15.936C150.855 16.0533 150.455 16.112 150.007 16.112C149.175 16.112 148.529 15.8773 148.071 15.408C147.612 14.9387 147.383 14.256 147.383 13.36V9.184H145.815V7.936H147.383V5.92L148.999 5.36V7.936H151.223V9.184H148.999ZM164.309 7.936L160.549 16.656C160.133 17.6053 159.61 18.2987 158.981 18.736C158.362 19.184 157.594 19.4827 156.677 19.632L156.325 18.384C157.082 18.2133 157.653 17.9893 158.037 17.712C158.432 17.4453 158.746 17.04 158.981 16.496L159.269 15.824L155.877 7.936H157.589L160.117 14.176L162.693 7.936H164.309ZM168.922 16.112C168.132 16.112 167.439 15.9413 166.842 15.6C166.244 15.2587 165.78 14.7733 165.45 14.144C165.13 13.5147 164.97 12.7787 164.97 11.936C164.97 11.0933 165.13 10.3573 165.45 9.728C165.78 9.088 166.244 8.59733 166.842 8.256C167.439 7.91467 168.132 7.744 168.922 7.744C169.7 7.744 170.388 7.91467 170.986 8.256C171.583 8.59733 172.042 9.088 172.362 9.728C172.692 10.3573 172.858 11.0933 172.858 11.936C172.858 12.7787 172.692 13.5147 172.362 14.144C172.042 14.7733 171.583 15.2587 170.986 15.6C170.388 15.9413 169.7 16.112 168.922 16.112ZM168.906 14.832C169.652 14.832 170.223 14.5867 170.618 14.096C171.012 13.6053 171.21 12.8853 171.21 11.936C171.21 11.008 171.007 10.2933 170.602 9.792C170.207 9.29067 169.647 9.04 168.922 9.04C168.186 9.04 167.615 9.29067 167.21 9.792C166.804 10.2933 166.602 11.008 166.602 11.936C166.602 12.8853 166.799 13.6053 167.194 14.096C167.599 14.5867 168.17 14.832 168.906 14.832ZM181.755 7.936V16H180.187V14.656C179.931 15.1253 179.579 15.488 179.131 15.744C178.683 15.9893 178.176 16.112 177.611 16.112C175.669 16.112 174.699 15.0347 174.699 12.88V7.936H176.299V12.864C176.299 13.5253 176.432 14.016 176.699 14.336C176.976 14.6453 177.392 14.8 177.947 14.8C178.608 14.8 179.136 14.5867 179.531 14.16C179.936 13.7333 180.139 13.168 180.139 12.464V7.936H181.755ZM188.138 7.744C188.383 7.744 188.639 7.78133 188.906 7.856L188.874 9.328C188.586 9.22133 188.271 9.168 187.93 9.168C187.194 9.168 186.639 9.392 186.266 9.84C185.903 10.2773 185.722 10.832 185.722 11.504V16H184.122V10.208C184.122 9.36533 184.079 8.608 183.993 7.936H185.498L185.642 9.392C185.855 8.85867 186.186 8.45333 186.634 8.176C187.082 7.888 187.583 7.744 188.138 7.744ZM192.875 16.112C191.467 16.112 190.358 15.7707 189.547 15.088L190.027 13.92C190.87 14.56 191.835 14.88 192.923 14.88C193.478 14.88 193.899 14.7893 194.187 14.608C194.475 14.416 194.619 14.1493 194.619 13.808C194.619 13.52 194.518 13.296 194.315 13.136C194.123 12.9653 193.792 12.8213 193.323 12.704L191.979 12.384C191.275 12.2347 190.736 11.9733 190.363 11.6C190 11.216 189.819 10.7413 189.819 10.176C189.819 9.45067 190.107 8.864 190.683 8.416C191.27 7.968 192.043 7.744 193.003 7.744C193.579 7.744 194.123 7.83467 194.635 8.016C195.158 8.19733 195.6 8.45333 195.963 8.784L195.467 9.92C194.688 9.30133 193.867 8.992 193.003 8.992C192.48 8.992 192.075 9.09333 191.787 9.296C191.499 9.488 191.355 9.76 191.355 10.112C191.355 10.3893 191.446 10.6133 191.627 10.784C191.808 10.9547 192.096 11.088 192.491 11.184L193.867 11.52C194.635 11.6907 195.2 11.9627 195.563 12.336C195.936 12.6987 196.123 13.1733 196.123 13.76C196.123 14.4853 195.83 15.0613 195.243 15.488C194.667 15.904 193.878 16.112 192.875 16.112ZM204.908 12H199.148C199.201 13.888 200.06 14.832 201.724 14.832C202.652 14.832 203.5 14.528 204.268 13.92L204.764 15.072C204.401 15.392 203.937 15.648 203.372 15.84C202.817 16.0213 202.257 16.112 201.692 16.112C200.401 16.112 199.388 15.744 198.652 15.008C197.916 14.2613 197.548 13.2427 197.548 11.952C197.548 11.1307 197.708 10.4 198.028 9.76C198.358 9.12 198.817 8.624 199.404 8.272C199.99 7.92 200.657 7.744 201.404 7.744C202.492 7.744 203.345 8.096 203.964 8.8C204.593 9.504 204.908 10.48 204.908 11.728V12ZM201.436 8.944C200.828 8.944 200.332 9.12533 199.948 9.488C199.564 9.85067 199.318 10.368 199.212 11.04H203.484C203.42 10.3573 203.212 9.84 202.86 9.488C202.508 9.12533 202.033 8.944 201.436 8.944ZM206.762 4.224H208.362V16H206.762V4.224ZM214.139 5.52C213.254 5.52 212.811 6.02667 212.811 7.04V7.936H214.699V9.184H212.811V16H211.195V9.184H209.643V7.936H211.195V6.912C211.195 6.016 211.419 5.33333 211.867 4.864C212.326 4.39467 212.966 4.16 213.787 4.16C214.214 4.16 214.603 4.21333 214.955 4.32V5.648C214.667 5.56267 214.395 5.52 214.139 5.52Z" fill="#FA7328"/>
<path fill-rule="evenodd" clip-rule="evenodd" d="M17.5 11.0714H11.0714V17.5H8.92857V11.0714H2.5V8.92857H8.92857V2.5H11.0714V8.92857H17.5V11.0714Z" fill="#FA7328"/>
</svg>
