<svg width="42" height="42" viewBox="0 0 42 42" fill="none" xmlns="http://www.w3.org/2000/svg">
<path opacity="0.1" d="M21 37C29.8366 37 37 29.8366 37 21C37 12.1634 29.8366 5 21 5C12.1634 5 5 12.1634 5 21C5 29.8366 12.1634 37 21 37Z" fill="#7891C0"/>
<path d="M21 37C29.8366 37 37 29.8366 37 21C37 12.1634 29.8366 5 21 5C12.1634 5 5 12.1634 5 21C5 29.8366 12.1634 37 21 37Z" stroke="#7891C0" stroke-width="3" stroke-miterlimit="10"/>
<path d="M22 26L28 20.5L22 15" stroke="#7891C0" stroke-width="3" stroke-linecap="round" stroke-linejoin="round"/>
<path d="M14 21H27" stroke="#7891C0" stroke-width="3" stroke-linecap="round" stroke-linejoin="round"/>
</svg>
