<svg width="27" height="28" viewBox="0 0 27 28" fill="none" xmlns="http://www.w3.org/2000/svg">
<path d="M24.42 1H2.58C2.02835 1 1.49929 1.21914 1.10922 1.60922C0.719142 1.99929 0.5 2.52835 0.5 3.08V24.92C0.5 25.4716 0.719142 26.0007 1.10922 26.3908C1.49929 26.7809 2.02835 27 2.58 27H24.42C24.9716 27 25.5007 26.7809 25.8908 26.3908C26.2809 26.0007 26.5 25.4716 26.5 24.92V3.08C26.5 2.52835 26.2809 1.99929 25.8908 1.60922C25.5007 1.21914 24.9716 1 24.42 1Z" fill="#61B2E4"/>
<path d="M19.1427 8.71715H21.5V5.16182C19.9281 5.16182 13.6427 3.58161 13.6427 10.2974V12.6674H10.5V16.6182H13.6427V27H17.5714V16.6182H21.1068L21.4995 12.6674H17.5714V10.2979C17.5714 8.71766 18.75 8.71766 19.1427 8.71766V8.71715Z" fill="white"/>
<path d="M18.5019 27H24.8225C25.2674 27 25.6941 26.8233 26.0087 26.5087C26.3233 26.1941 26.5 25.7674 26.5 25.3225V2.67752C26.5 2.23261 26.3233 1.80593 26.0087 1.49133C25.6941 1.17674 25.2674 1 24.8225 1H2.17752C1.73261 1 1.30593 1.17674 0.991334 1.49133C0.676738 1.80593 0.5 2.23261 0.5 2.67752V25.3225C0.5 25.7674 0.676738 26.1941 0.991334 26.5087C1.30593 26.8233 1.73261 27 2.17752 27H14.385" stroke="black" stroke-miterlimit="10"/>
<path d="M19.2142 27V16.9249H23.0713L23.5 12.8948H19.2142V10.4768C19.2142 8.86467 20.4999 8.86467 20.9286 8.86467H23.5V5.23821C21.7677 5.07328 14.9283 3.62657 14.9283 10.4773V12.8953H11.5V16.9254H14.9283V27" stroke="black" stroke-miterlimit="10" stroke-linecap="round" stroke-linejoin="round"/>
</svg>
