<svg width="84" height="84" viewBox="0 0 84 84" fill="none" xmlns="http://www.w3.org/2000/svg">
<g filter="url(#filter0_d)">
<path fill-rule="evenodd" clip-rule="evenodd" d="M59 38.9999L58.9975 39L58.9898 39.0001L58.9771 39.0004L58.9592 39.001L58.9363 39.0021L58.9084 39.0036L58.8754 39.0058L58.8374 39.0086L58.7944 39.0123L58.7465 39.0169L58.6936 39.0224L58.6359 39.0291L58.5733 39.037L58.5059 39.0461L58.4337 39.0567L58.3569 39.0687L58.2754 39.0823L58.1893 39.0975L58.0986 39.1145L58.0035 39.1332L57.904 39.1539L57.8002 39.1766L57.692 39.2014L57.5797 39.2283L57.4633 39.2574L57.3429 39.2888L57.2184 39.3225L57.0902 39.3587L56.9581 39.3974L56.8224 39.4387L56.683 39.4825L56.5402 39.5291L56.394 39.5784L56.2444 39.6304L56.0917 39.6853L55.9358 39.7431L55.777 39.8038L55.6152 39.8675L55.4507 39.9342L55.2835 40.0039L55.1138 40.0766L54.9416 40.1525L54.7671 40.2315L54.5903 40.3136L54.4115 40.3989L54.2306 40.4874L54.0479 40.5791L53.8635 40.6739L53.6774 40.772L53.4898 40.8733L53.3008 40.9777L53.1106 41.0854L52.9192 41.1963L52.7267 41.3103L52.5334 41.4275L52.3393 41.5479L52.1445 41.6714L51.9492 41.7979L51.7535 41.9276L51.5574 42.0603L51.3612 42.196L51.1649 42.3346L50.9686 42.4762L50.7726 42.6207L50.5768 42.768L50.3814 42.9181L50.1865 43.0709L49.9923 43.2264L49.7988 43.3845L49.6061 43.5451L49.4144 43.7082L49.2238 43.8737L49.0343 44.0416L48.8461 44.2117L48.6593 44.384L48.4739 44.5585L48.2901 44.7349L48.108 44.9133L47.9276 45.0935L47.7491 45.2755L47.5725 45.4592L47.3979 45.6444L47.2254 45.8312L47.0551 46.0193L46.887 46.2086L46.7213 46.3992L46.558 46.5908L46.3972 46.7834L46.2389 46.9768L46.0832 47.171L45.9302 47.3659L45.7799 47.5612L45.6324 47.757L45.4877 47.953L45.3458 48.1492L45.2069 48.3455L45.071 48.5418L44.9381 48.7378L44.8082 48.9336L44.6814 49.129L44.5576 49.3238L44.437 49.518L44.3196 49.7114L44.2053 49.9039L44.0942 50.0954L43.9862 50.2857L43.8815 50.4748L43.78 50.6625L43.6817 50.8487L43.5865 51.0333L43.4946 51.2162L43.4059 51.3971L43.3203 51.5762L43.2379 51.7531L43.1587 51.9278L43.0826 52.1002L43.0096 52.2701L42.9396 52.4375L42.8727 52.6022L42.8088 52.7642L42.7479 52.9233L42.6899 53.0794L42.6347 53.2324L42.5825 53.3822L42.533 53.5287L42.4862 53.6718L42.4421 53.8114L42.4007 53.9475L42.3618 54.0798L42.3254 54.2084L42.2914 54.3331L42.2598 54.4539L42.2305 54.5706L42.2035 54.6833L42.1785 54.7917L42.1557 54.8959L42.1348 54.9958L42.1159 55.0912L42.0988 55.1822L42.0834 55.2687L42.0697 55.3506L42.0576 55.4278L42.0469 55.5003L42.0377 55.5681L42.0297 55.6311L42.0229 55.6892L42.0173 55.7425L42.0126 55.7908L42.0089 55.8342L42.006 55.8726L42.0038 55.906L42.0022 55.9343L42.0011 55.9576L42.0005 55.9758L42.0001 55.989L42 55.997L42 56L42 55.9979L41.9998 55.9906L41.9995 55.9783L41.9989 55.9609L41.9979 55.9384L41.9964 55.9108L41.9943 55.8782L41.9915 55.8406L41.9879 55.798L41.9835 55.7505L41.978 55.698L41.9714 55.6407L41.9636 55.5785L41.9546 55.5114L41.9441 55.4397L41.9322 55.3632L41.9188 55.282L41.9037 55.1963L41.8869 55.106L41.8682 55.0113L41.8477 54.9121L41.8252 54.8086L41.8006 54.7008L41.7739 54.5888L41.7449 54.4727L41.7137 54.3526L41.6801 54.2285L41.6441 54.1005L41.6056 53.9688L41.5646 53.8333L41.5209 53.6943L41.4746 53.5517L41.4256 53.4057L41.3737 53.2565L41.319 53.104L41.2615 52.9484L41.201 52.7897L41.1376 52.6282L41.0712 52.4639L41.0017 52.297L40.9292 52.1274L40.8536 51.9554L40.7748 51.7811L40.6929 51.6045L40.6079 51.4258L40.5197 51.2451L40.4283 51.0625L40.3337 50.8782L40.2358 50.6923L40.1348 50.5048L40.0306 50.3159L39.9232 50.1258L39.8126 49.9344L39.6988 49.7421L39.5818 49.5488L39.4617 49.3548L39.3385 49.16L39.2122 48.9648L39.0828 48.769L38.9503 48.573L38.8148 48.3768L38.6764 48.1805L38.5351 47.9843L38.3908 47.7882L38.2437 47.5924L38.0939 47.3969L37.9413 47.202L37.786 47.0077L37.6281 46.8142L37.4677 46.6214L37.3048 46.4296L37.1395 46.2389L36.9718 46.0493L36.8018 45.861L36.6297 45.6741L36.4554 45.4886L36.2791 45.3047L36.1009 45.1224L35.9208 44.9419L35.7389 44.7632L35.5554 44.5864L35.3703 44.4117L35.1837 44.239L34.9957 44.0685L34.8064 43.9003L34.6159 43.7344L34.4244 43.5709L34.2319 43.4099L34.0385 43.2514L33.8444 43.0955L33.6496 42.9422L33.4543 42.7917L33.2586 42.644L33.0625 42.4991L32.8663 42.357L32.67 42.2179L32.4738 42.0817L32.2777 41.9485L32.0819 41.8184L31.8865 41.6913L31.6916 41.5673L31.4974 41.4465L31.3039 41.3288L31.1113 41.2142L30.9198 41.1029L30.7293 40.9947L30.5401 40.8897L30.3523 40.7879L30.166 40.6893L29.9813 40.594L29.7983 40.5018L29.6171 40.4128L29.438 40.327L29.2609 40.2444L29.086 40.1649L28.9134 40.0885L28.7433 40.0152L28.5757 39.945L28.4107 39.8779L28.2485 39.8138L28.0892 39.7526L27.9329 39.6943L27.7796 39.639L27.6296 39.5865L27.4828 39.5368L27.3394 39.4898L27.1995 39.4455L27.0632 39.4038L26.9305 39.3647L26.8017 39.3281L26.6766 39.294L26.5555 39.2622L26.4385 39.2327L26.3255 39.2055L26.2167 39.1804L26.1122 39.1574L26.012 39.1364L25.9162 39.1173L25.8248 39.1001L25.738 39.0846L25.6557 39.0707L25.5781 39.0585L25.5052 39.0477L25.4371 39.0383L25.3737 39.0303L25.3152 39.0234L25.2615 39.0177L25.2128 39.0129L25.169 39.0091L25.1302 39.0062L25.0965 39.0039L25.0677 39.0023L25.044 39.0012L25.0254 39.0005L25.0118 39.0001L25.0034 39L25 38.9999L25.0017 38.9999L25.0086 38.9998L25.0205 38.9995L25.0375 38.999L25.0596 38.998L25.0868 38.9966L25.1189 38.9945L25.1561 38.9918L25.1983 38.9882L25.2455 38.9838L25.2976 38.9784L25.3545 38.9719L25.4164 38.9642L25.483 38.9553L25.5544 38.945L25.6305 38.9332L25.7113 38.9199L25.7966 38.9049L25.8866 38.8882L25.981 38.8697L26.0798 38.8494L26.183 38.827L26.2904 38.8026L26.402 38.776L26.5178 38.7473L26.6376 38.7163L26.7614 38.6829L26.8891 38.6471L27.0205 38.6088L27.1557 38.5679L27.2945 38.5245L27.4367 38.4784L27.5825 38.4295L27.7315 38.3779L27.8837 38.3235L28.0391 38.2662L28.1975 38.2059L28.3587 38.1427L28.5228 38.0765L28.6896 38.0073L28.8589 37.935L29.0308 37.8597L29.2049 37.7812L29.3813 37.6995L29.5598 37.6147L29.7404 37.5268L29.9228 37.4356L30.107 37.3413L30.2928 37.2437L30.4802 37.1429L30.6689 37.039L30.859 36.9318L31.0502 36.8215L31.2425 36.7079L31.4357 36.5912L31.6297 36.4714L31.8244 36.3484L32.0196 36.2223L32.2153 36.0931L32.4113 35.9609L32.6075 35.8257L32.8038 35.6875L33 35.5464L33.1962 35.4024L33.392 35.2555L33.5875 35.1059L33.7824 34.9535L33.9768 34.7984L34.1704 34.6408L34.3632 34.4805L34.5551 34.3178L34.7459 34.1527L34.9355 33.9852L35.1239 33.8154L35.311 33.6434L35.4966 33.4693L35.6807 33.2932L35.8631 33.1151L36.0437 32.9352L36.2226 32.7534L36.3995 32.57L36.5744 32.385L36.7472 32.1985L36.9179 32.0107L37.0863 31.8215L37.2524 31.6311L37.4161 31.4396L37.5773 31.2472L37.736 31.0539L37.8921 30.8598L38.0456 30.6651L38.1963 30.4698L38.3443 30.2741L38.4894 30.0781L38.6317 29.8819L38.7711 29.6856L38.9075 29.4893L39.0409 29.2932L39.1713 29.0974L39.2986 28.902L39.4228 28.7071L39.5439 28.5128L39.6619 28.3192L39.7767 28.1266L39.8883 27.9349L39.9967 27.7444L40.102 27.5551L40.204 27.3672L40.3028 27.1807L40.3985 26.9959L40.4909 26.8127L40.5801 26.6314L40.6662 26.4521L40.7491 26.2748L40.8288 26.0998L40.9054 25.927L40.9789 25.7566L41.0494 25.5888L41.1168 25.4237L41.1812 25.2613L41.2426 25.1017L41.301 24.9451L41.3566 24.7916L41.4093 24.6413L41.4593 24.4943L41.5065 24.3506L41.551 24.2104L41.5929 24.0738L41.6322 23.9409L41.6689 23.8117L41.7033 23.6864L41.7352 23.565L41.7649 23.4476L41.7923 23.3343L41.8176 23.2251L41.8407 23.1203L41.8619 23.0197L41.8811 22.9235L41.8985 22.8318L41.9142 22.7446L41.9281 22.662L41.9405 22.5841L41.9514 22.5108L41.9609 22.4422L41.969 22.3785L41.976 22.3196L41.9818 22.2656L41.9866 22.2164L41.9905 22.1723L41.9935 22.1331L41.9958 22.0989L41.9975 22.0697L41.9987 22.0456L41.9994 22.0266L41.9998 22.0126L41.9999 22.0038L42 22L42 22.0013L42.0001 22.0078L42.0003 22.0193L42.0009 22.0359L42.0018 22.0576L42.0032 22.0843L42.0052 22.1161L42.0079 22.1529L42.0114 22.1947L42.0157 22.2415L42.021 22.2932L42.0274 22.3497L42.035 22.4112L42.0438 22.4774L42.0541 22.5485L42.0657 22.6242L42.0789 22.7046L42.0937 22.7896L42.1103 22.8792L42.1286 22.9732L42.1488 23.0717L42.171 23.1745L42.1953 23.2816L42.2217 23.3929L42.2502 23.5084L42.2811 23.6279L42.3143 23.7513L42.3499 23.8787L42.388 24.0099L42.4286 24.1447L42.4719 24.2832L42.5178 24.4252L42.5664 24.5707L42.6178 24.7194L42.672 24.8714L42.7291 25.0265L42.7891 25.1847L42.852 25.3457L42.918 25.5096L42.987 25.6761L43.059 25.8453L43.1341 26.0169L43.2124 26.1909L43.2938 26.3671L43.3783 26.5455L43.466 26.7259L43.5569 26.9081L43.651 27.0922L43.7483 27.2779L43.8488 27.4651L43.9525 27.6538L44.0594 27.8437L44.1695 28.0349L44.2828 28.2271L44.3993 28.4202L44.5189 28.6141L44.6416 28.8088L44.7675 29.004L44.8964 29.1996L45.0283 29.3956L45.1633 29.5918L45.3013 29.7881L45.4422 29.9844L45.586 30.1805L45.7326 30.3764L45.882 30.5718L46.0342 30.7668L46.189 30.9613L46.3465 31.1549L46.5065 31.3478L46.669 31.5398L46.834 31.7307L47.0013 31.9204L47.1709 32.1089L47.3427 32.2961L47.5166 32.4818L47.6926 32.666L47.8705 32.8485L48.0503 33.0294L48.2319 33.2083L48.4152 33.3854L48.6001 33.5605L48.7864 33.7335L48.9742 33.9043L49.1633 34.0729L49.3536 34.2392L49.545 34.4031L49.7373 34.5645L49.9306 34.7234L50.1246 34.8797L50.3193 35.0334L50.5145 35.1844L50.7102 35.3326L50.9062 35.4779L51.1024 35.6204L51.2987 35.76L51.4949 35.8967L51.691 36.0303L51.8869 36.161L52.0824 36.2885L52.2773 36.413L52.4717 36.5343L52.6653 36.6526L52.858 36.7676L53.0497 36.8795L53.2404 36.9882L53.4297 37.0937L53.6178 37.196L53.8044 37.2951L53.9894 37.3909L54.1726 37.4836L54.3541 37.5731L54.5336 37.6594L54.711 37.7426L54.8863 37.8225L55.0592 37.8994L55.2297 37.9732L55.3978 38.0438L55.5631 38.1115L55.7258 38.1761L55.8855 38.2377L56.0424 38.2964L56.1961 38.3523L56.3467 38.4052L56.494 38.4554L56.6379 38.5028L56.7784 38.5475L56.9153 38.5896L57.0485 38.6291L57.178 38.6661L57.3036 38.7006L57.4254 38.7327L57.5431 38.7626L57.6567 38.7902L57.7662 38.8156L57.8714 38.8389L57.9723 38.8602L58.0688 38.8796L58.1609 38.8972L58.2484 38.9129L58.3314 38.927L58.4098 38.9395L58.4834 38.9505L58.5523 38.9601L58.6165 38.9684L58.6758 38.9754L58.7302 38.9814L58.7797 38.9862L58.8243 38.9902L58.8638 38.9933L58.8984 38.9957L58.928 38.9974L58.9525 38.9986L58.9719 38.9993L58.9863 38.9997L58.9956 38.9999L58.9997 38.9999L59 38.9999Z" fill="url(#paint0_radial)"/>
<path fill-rule="evenodd" clip-rule="evenodd" d="M59 38.9999L58.9975 39L58.9898 39.0001L58.9771 39.0004L58.9592 39.001L58.9363 39.0021L58.9084 39.0036L58.8754 39.0058L58.8374 39.0086L58.7944 39.0123L58.7465 39.0169L58.6936 39.0224L58.6359 39.0291L58.5733 39.037L58.5059 39.0461L58.4337 39.0567L58.3569 39.0687L58.2754 39.0823L58.1893 39.0975L58.0986 39.1145L58.0035 39.1332L57.904 39.1539L57.8002 39.1766L57.692 39.2014L57.5797 39.2283L57.4633 39.2574L57.3429 39.2888L57.2184 39.3225L57.0902 39.3587L56.9581 39.3974L56.8224 39.4387L56.683 39.4825L56.5402 39.5291L56.394 39.5784L56.2444 39.6304L56.0917 39.6853L55.9358 39.7431L55.777 39.8038L55.6152 39.8675L55.4507 39.9342L55.2835 40.0039L55.1138 40.0766L54.9416 40.1525L54.7671 40.2315L54.5903 40.3136L54.4115 40.3989L54.2306 40.4874L54.0479 40.5791L53.8635 40.6739L53.6774 40.772L53.4898 40.8733L53.3008 40.9777L53.1106 41.0854L52.9192 41.1963L52.7267 41.3103L52.5334 41.4275L52.3393 41.5479L52.1445 41.6714L51.9492 41.7979L51.7535 41.9276L51.5574 42.0603L51.3612 42.196L51.1649 42.3346L50.9686 42.4762L50.7726 42.6207L50.5768 42.768L50.3814 42.9181L50.1865 43.0709L49.9923 43.2264L49.7988 43.3845L49.6061 43.5451L49.4144 43.7082L49.2238 43.8737L49.0343 44.0416L48.8461 44.2117L48.6593 44.384L48.4739 44.5585L48.2901 44.7349L48.108 44.9133L47.9276 45.0935L47.7491 45.2755L47.5725 45.4592L47.3979 45.6444L47.2254 45.8312L47.0551 46.0193L46.887 46.2086L46.7213 46.3992L46.558 46.5908L46.3972 46.7834L46.2389 46.9768L46.0832 47.171L45.9302 47.3659L45.7799 47.5612L45.6324 47.757L45.4877 47.953L45.3458 48.1492L45.2069 48.3455L45.071 48.5418L44.9381 48.7378L44.8082 48.9336L44.6814 49.129L44.5576 49.3238L44.437 49.518L44.3196 49.7114L44.2053 49.9039L44.0942 50.0954L43.9862 50.2857L43.8815 50.4748L43.78 50.6625L43.6817 50.8487L43.5865 51.0333L43.4946 51.2162L43.4059 51.3971L43.3203 51.5762L43.2379 51.7531L43.1587 51.9278L43.0826 52.1002L43.0096 52.2701L42.9396 52.4375L42.8727 52.6022L42.8088 52.7642L42.7479 52.9233L42.6899 53.0794L42.6347 53.2324L42.5825 53.3822L42.533 53.5287L42.4862 53.6718L42.4421 53.8114L42.4007 53.9475L42.3618 54.0798L42.3254 54.2084L42.2914 54.3331L42.2598 54.4539L42.2305 54.5706L42.2035 54.6833L42.1785 54.7917L42.1557 54.8959L42.1348 54.9958L42.1159 55.0912L42.0988 55.1822L42.0834 55.2687L42.0697 55.3506L42.0576 55.4278L42.0469 55.5003L42.0377 55.5681L42.0297 55.6311L42.0229 55.6892L42.0173 55.7425L42.0126 55.7908L42.0089 55.8342L42.006 55.8726L42.0038 55.906L42.0022 55.9343L42.0011 55.9576L42.0005 55.9758L42.0001 55.989L42 55.997L42 56L42 55.9979L41.9998 55.9906L41.9995 55.9783L41.9989 55.9609L41.9979 55.9384L41.9964 55.9108L41.9943 55.8782L41.9915 55.8406L41.9879 55.798L41.9835 55.7505L41.978 55.698L41.9714 55.6407L41.9636 55.5785L41.9546 55.5114L41.9441 55.4397L41.9322 55.3632L41.9188 55.282L41.9037 55.1963L41.8869 55.106L41.8682 55.0113L41.8477 54.9121L41.8252 54.8086L41.8006 54.7008L41.7739 54.5888L41.7449 54.4727L41.7137 54.3526L41.6801 54.2285L41.6441 54.1005L41.6056 53.9688L41.5646 53.8333L41.5209 53.6943L41.4746 53.5517L41.4256 53.4057L41.3737 53.2565L41.319 53.104L41.2615 52.9484L41.201 52.7897L41.1376 52.6282L41.0712 52.4639L41.0017 52.297L40.9292 52.1274L40.8536 51.9554L40.7748 51.7811L40.6929 51.6045L40.6079 51.4258L40.5197 51.2451L40.4283 51.0625L40.3337 50.8782L40.2358 50.6923L40.1348 50.5048L40.0306 50.3159L39.9232 50.1258L39.8126 49.9344L39.6988 49.7421L39.5818 49.5488L39.4617 49.3548L39.3385 49.16L39.2122 48.9648L39.0828 48.769L38.9503 48.573L38.8148 48.3768L38.6764 48.1805L38.5351 47.9843L38.3908 47.7882L38.2437 47.5924L38.0939 47.3969L37.9413 47.202L37.786 47.0077L37.6281 46.8142L37.4677 46.6214L37.3048 46.4296L37.1395 46.2389L36.9718 46.0493L36.8018 45.861L36.6297 45.6741L36.4554 45.4886L36.2791 45.3047L36.1009 45.1224L35.9208 44.9419L35.7389 44.7632L35.5554 44.5864L35.3703 44.4117L35.1837 44.239L34.9957 44.0685L34.8064 43.9003L34.6159 43.7344L34.4244 43.5709L34.2319 43.4099L34.0385 43.2514L33.8444 43.0955L33.6496 42.9422L33.4543 42.7917L33.2586 42.644L33.0625 42.4991L32.8663 42.357L32.67 42.2179L32.4738 42.0817L32.2777 41.9485L32.0819 41.8184L31.8865 41.6913L31.6916 41.5673L31.4974 41.4465L31.3039 41.3288L31.1113 41.2142L30.9198 41.1029L30.7293 40.9947L30.5401 40.8897L30.3523 40.7879L30.166 40.6893L29.9813 40.594L29.7983 40.5018L29.6171 40.4128L29.438 40.327L29.2609 40.2444L29.086 40.1649L28.9134 40.0885L28.7433 40.0152L28.5757 39.945L28.4107 39.8779L28.2485 39.8138L28.0892 39.7526L27.9329 39.6943L27.7796 39.639L27.6296 39.5865L27.4828 39.5368L27.3394 39.4898L27.1995 39.4455L27.0632 39.4038L26.9305 39.3647L26.8017 39.3281L26.6766 39.294L26.5555 39.2622L26.4385 39.2327L26.3255 39.2055L26.2167 39.1804L26.1122 39.1574L26.012 39.1364L25.9162 39.1173L25.8248 39.1001L25.738 39.0846L25.6557 39.0707L25.5781 39.0585L25.5052 39.0477L25.4371 39.0383L25.3737 39.0303L25.3152 39.0234L25.2615 39.0177L25.2128 39.0129L25.169 39.0091L25.1302 39.0062L25.0965 39.0039L25.0677 39.0023L25.044 39.0012L25.0254 39.0005L25.0118 39.0001L25.0034 39L25 38.9999L25.0017 38.9999L25.0086 38.9998L25.0205 38.9995L25.0375 38.999L25.0596 38.998L25.0868 38.9966L25.1189 38.9945L25.1561 38.9918L25.1983 38.9882L25.2455 38.9838L25.2976 38.9784L25.3545 38.9719L25.4164 38.9642L25.483 38.9553L25.5544 38.945L25.6305 38.9332L25.7113 38.9199L25.7966 38.9049L25.8866 38.8882L25.981 38.8697L26.0798 38.8494L26.183 38.827L26.2904 38.8026L26.402 38.776L26.5178 38.7473L26.6376 38.7163L26.7614 38.6829L26.8891 38.6471L27.0205 38.6088L27.1557 38.5679L27.2945 38.5245L27.4367 38.4784L27.5825 38.4295L27.7315 38.3779L27.8837 38.3235L28.0391 38.2662L28.1975 38.2059L28.3587 38.1427L28.5228 38.0765L28.6896 38.0073L28.8589 37.935L29.0308 37.8597L29.2049 37.7812L29.3813 37.6995L29.5598 37.6147L29.7404 37.5268L29.9228 37.4356L30.107 37.3413L30.2928 37.2437L30.4802 37.1429L30.6689 37.039L30.859 36.9318L31.0502 36.8215L31.2425 36.7079L31.4357 36.5912L31.6297 36.4714L31.8244 36.3484L32.0196 36.2223L32.2153 36.0931L32.4113 35.9609L32.6075 35.8257L32.8038 35.6875L33 35.5464L33.1962 35.4024L33.392 35.2555L33.5875 35.1059L33.7824 34.9535L33.9768 34.7984L34.1704 34.6408L34.3632 34.4805L34.5551 34.3178L34.7459 34.1527L34.9355 33.9852L35.1239 33.8154L35.311 33.6434L35.4966 33.4693L35.6807 33.2932L35.8631 33.1151L36.0437 32.9352L36.2226 32.7534L36.3995 32.57L36.5744 32.385L36.7472 32.1985L36.9179 32.0107L37.0863 31.8215L37.2524 31.6311L37.4161 31.4396L37.5773 31.2472L37.736 31.0539L37.8921 30.8598L38.0456 30.6651L38.1963 30.4698L38.3443 30.2741L38.4894 30.0781L38.6317 29.8819L38.7711 29.6856L38.9075 29.4893L39.0409 29.2932L39.1713 29.0974L39.2986 28.902L39.4228 28.7071L39.5439 28.5128L39.6619 28.3192L39.7767 28.1266L39.8883 27.9349L39.9967 27.7444L40.102 27.5551L40.204 27.3672L40.3028 27.1807L40.3985 26.9959L40.4909 26.8127L40.5801 26.6314L40.6662 26.4521L40.7491 26.2748L40.8288 26.0998L40.9054 25.927L40.9789 25.7566L41.0494 25.5888L41.1168 25.4237L41.1812 25.2613L41.2426 25.1017L41.301 24.9451L41.3566 24.7916L41.4093 24.6413L41.4593 24.4943L41.5065 24.3506L41.551 24.2104L41.5929 24.0738L41.6322 23.9409L41.6689 23.8117L41.7033 23.6864L41.7352 23.565L41.7649 23.4476L41.7923 23.3343L41.8176 23.2251L41.8407 23.1203L41.8619 23.0197L41.8811 22.9235L41.8985 22.8318L41.9142 22.7446L41.9281 22.662L41.9405 22.5841L41.9514 22.5108L41.9609 22.4422L41.969 22.3785L41.976 22.3196L41.9818 22.2656L41.9866 22.2164L41.9905 22.1723L41.9935 22.1331L41.9958 22.0989L41.9975 22.0697L41.9987 22.0456L41.9994 22.0266L41.9998 22.0126L41.9999 22.0038L42 22L42 22.0013L42.0001 22.0078L42.0003 22.0193L42.0009 22.0359L42.0018 22.0576L42.0032 22.0843L42.0052 22.1161L42.0079 22.1529L42.0114 22.1947L42.0157 22.2415L42.021 22.2932L42.0274 22.3497L42.035 22.4112L42.0438 22.4774L42.0541 22.5485L42.0657 22.6242L42.0789 22.7046L42.0937 22.7896L42.1103 22.8792L42.1286 22.9732L42.1488 23.0717L42.171 23.1745L42.1953 23.2816L42.2217 23.3929L42.2502 23.5084L42.2811 23.6279L42.3143 23.7513L42.3499 23.8787L42.388 24.0099L42.4286 24.1447L42.4719 24.2832L42.5178 24.4252L42.5664 24.5707L42.6178 24.7194L42.672 24.8714L42.7291 25.0265L42.7891 25.1847L42.852 25.3457L42.918 25.5096L42.987 25.6761L43.059 25.8453L43.1341 26.0169L43.2124 26.1909L43.2938 26.3671L43.3783 26.5455L43.466 26.7259L43.5569 26.9081L43.651 27.0922L43.7483 27.2779L43.8488 27.4651L43.9525 27.6538L44.0594 27.8437L44.1695 28.0349L44.2828 28.2271L44.3993 28.4202L44.5189 28.6141L44.6416 28.8088L44.7675 29.004L44.8964 29.1996L45.0283 29.3956L45.1633 29.5918L45.3013 29.7881L45.4422 29.9844L45.586 30.1805L45.7326 30.3764L45.882 30.5718L46.0342 30.7668L46.189 30.9613L46.3465 31.1549L46.5065 31.3478L46.669 31.5398L46.834 31.7307L47.0013 31.9204L47.1709 32.1089L47.3427 32.2961L47.5166 32.4818L47.6926 32.666L47.8705 32.8485L48.0503 33.0294L48.2319 33.2083L48.4152 33.3854L48.6001 33.5605L48.7864 33.7335L48.9742 33.9043L49.1633 34.0729L49.3536 34.2392L49.545 34.4031L49.7373 34.5645L49.9306 34.7234L50.1246 34.8797L50.3193 35.0334L50.5145 35.1844L50.7102 35.3326L50.9062 35.4779L51.1024 35.6204L51.2987 35.76L51.4949 35.8967L51.691 36.0303L51.8869 36.161L52.0824 36.2885L52.2773 36.413L52.4717 36.5343L52.6653 36.6526L52.858 36.7676L53.0497 36.8795L53.2404 36.9882L53.4297 37.0937L53.6178 37.196L53.8044 37.2951L53.9894 37.3909L54.1726 37.4836L54.3541 37.5731L54.5336 37.6594L54.711 37.7426L54.8863 37.8225L55.0592 37.8994L55.2297 37.9732L55.3978 38.0438L55.5631 38.1115L55.7258 38.1761L55.8855 38.2377L56.0424 38.2964L56.1961 38.3523L56.3467 38.4052L56.494 38.4554L56.6379 38.5028L56.7784 38.5475L56.9153 38.5896L57.0485 38.6291L57.178 38.6661L57.3036 38.7006L57.4254 38.7327L57.5431 38.7626L57.6567 38.7902L57.7662 38.8156L57.8714 38.8389L57.9723 38.8602L58.0688 38.8796L58.1609 38.8972L58.2484 38.9129L58.3314 38.927L58.4098 38.9395L58.4834 38.9505L58.5523 38.9601L58.6165 38.9684L58.6758 38.9754L58.7302 38.9814L58.7797 38.9862L58.8243 38.9902L58.8638 38.9933L58.8984 38.9957L58.928 38.9974L58.9525 38.9986L58.9719 38.9993L58.9863 38.9997L58.9956 38.9999L58.9997 38.9999L59 38.9999Z" stroke="white"/>
</g>
<defs>
<filter id="filter0_d" x="0.330832" y="0.176573" width="83.3383" height="83.3384" filterUnits="userSpaceOnUse" color-interpolation-filters="sRGB">
<feFlood flood-opacity="0" result="BackgroundImageFix"/>
<feColorMatrix in="SourceAlpha" type="matrix" values="0 0 0 0 0 0 0 0 0 0 0 0 0 0 0 0 0 0 127 0"/>
<feOffset dy="2.84583"/>
<feGaussianBlur stdDeviation="12.3319"/>
<feColorMatrix type="matrix" values="0 0 0 0 1 0 0 0 0 1 0 0 0 0 1 0 0 0 1 0"/>
<feBlend mode="normal" in2="BackgroundImageFix" result="effect1_dropShadow"/>
<feBlend mode="normal" in="SourceGraphic" in2="effect1_dropShadow" result="shape"/>
</filter>
<radialGradient id="paint0_radial" cx="0" cy="0" r="1" gradientUnits="userSpaceOnUse" gradientTransform="translate(42 39) rotate(90) scale(17)">
<stop stop-color="white"/>
<stop offset="1" stop-color="white" stop-opacity="0"/>
</radialGradient>
</defs>
</svg>
