<svg width="27" height="28" viewBox="0 0 27 28" fill="none" xmlns="http://www.w3.org/2000/svg">
<path d="M24.94 1H2.06C1.19844 1 0.5 1.69844 0.5 2.56V25.44C0.5 26.3016 1.19844 27 2.06 27H24.94C25.8016 27 26.5 26.3016 26.5 25.44V2.56C26.5 1.69844 25.8016 1 24.94 1Z" fill="#61B2E4"/>
<path d="M4.5 10H7.5V21H4.5V10Z" fill="white"/>
<path d="M6.5 9C7.60457 9 8.5 8.10457 8.5 7C8.5 5.89543 7.60457 5 6.5 5C5.39543 5 4.5 5.89543 4.5 7C4.5 8.10457 5.39543 9 6.5 9Z" fill="white"/>
<path d="M16.5 12.814C15.3955 12.814 14.5 13.4115 14.5 15.1163V21H11.5V10.2558H14.5V11.3865H14.499C14.874 10.9502 15.3357 10.6009 15.8532 10.3618C16.3707 10.1227 16.9322 9.99933 17.5 10C19.709 10 21.5 11.6884 21.5 14.6047V21H18.5V15.1163C18.5 13.4115 17.605 12.814 16.5 12.814Z" fill="white"/>
<path d="M24.94 1H2.06C1.19844 1 0.5 1.69844 0.5 2.56V25.44C0.5 26.3016 1.19844 27 2.06 27H24.94C25.8016 27 26.5 26.3016 26.5 25.44V2.56C26.5 1.69844 25.8016 1 24.94 1Z" stroke="black" stroke-miterlimit="10"/>
<path d="M5.5 11H8.5V22H5.5V11Z" stroke="black" stroke-linecap="round" stroke-linejoin="round"/>
<path d="M6.5 9C7.60457 9 8.5 8.10457 8.5 7C8.5 5.89543 7.60457 5 6.5 5C5.39543 5 4.5 5.89543 4.5 7C4.5 8.10457 5.39543 9 6.5 9Z" stroke="black" stroke-linecap="round" stroke-linejoin="round"/>
<path d="M16.5 13.814C15.3955 13.814 14.5 14.4115 14.5 16.1163V22H11.5V11.2558H14.5V12.3865H14.499C14.874 11.9502 15.3357 11.6009 15.8532 11.3618C16.3707 11.1227 16.9322 10.9993 17.5 11C19.709 11 21.5 12.6884 21.5 15.6047V22H18.5V16.1163C18.5 14.4115 17.605 13.814 16.5 13.814Z" stroke="black" stroke-linecap="round" stroke-linejoin="round"/>
</svg>
