<svg width="399" height="28" viewBox="0 0 399 28" fill="none" xmlns="http://www.w3.org/2000/svg">
<path opacity="0.2" d="M8.03923 14.0526H13.2385C13.409 14.0526 13.5757 14.0003 13.7176 13.9023L15.8733 12.4134C16.0152 12.3155 16.1819 12.2632 16.3524 12.2632H23V9.57895C23 9.46145 22.9777 9.3451 22.9343 9.23654C22.8909 9.12799 22.8273 9.02935 22.7471 8.94627C22.6669 8.86318 22.5716 8.79727 22.4669 8.75231C22.3621 8.70735 22.2498 8.68421 22.1364 8.68421H14.6515C14.4646 8.68421 14.2828 8.62141 14.1333 8.50525L11.1394 6.17896C10.9899 6.0628 10.8081 6 10.6212 6H4.86364C4.75022 6 4.63792 6.02314 4.53313 6.0681C4.42835 6.11306 4.33314 6.17897 4.25295 6.26205C4.17275 6.34514 4.10913 6.44378 4.06573 6.55233C4.02233 6.66089 4 6.77724 4 6.89474V23L7.23737 14.6151C7.30148 14.449 7.41213 14.3067 7.55506 14.2065C7.69798 14.1062 7.86663 14.0526 8.03923 14.0526Z" fill="#BDBDBD"/>
<path d="M4 23V6.89474C4 6.65744 4.09099 6.42986 4.25295 6.26206C4.41492 6.09427 4.63459 6 4.86364 6H10.6212C10.8081 6 10.9899 6.06279 11.1394 6.17895L14.1333 8.50526C14.2828 8.62142 14.4647 8.68421 14.6515 8.68421H22.1364C22.3654 8.68421 22.5851 8.77848 22.747 8.94627C22.909 9.11407 23 9.34165 23 9.57895V12.2632" stroke="#BDBDBD" stroke-width="2" stroke-linecap="round" stroke-linejoin="round"/>
<path d="M4 22L7.21983 14.1905C7.28359 14.0359 7.39364 13.9033 7.5358 13.8099C7.67795 13.7166 7.84568 13.6667 8.01735 13.6667H13.1884C13.358 13.6667 13.5238 13.618 13.6649 13.5267L15.809 12.14C15.9501 12.0487 16.1158 12 16.2854 12H25.141C25.2771 12 25.4113 12.0314 25.5325 12.0915C25.6536 12.1517 25.7583 12.239 25.8379 12.3461C25.9174 12.4532 25.9697 12.5771 25.9902 12.7077C26.0107 12.8382 25.999 12.9716 25.9559 13.0969L22.897 22H4Z" stroke="#BDBDBD" stroke-width="2" stroke-linecap="round" stroke-linejoin="round"/>
<path d="M92.2 5H96.2V9" stroke="#BDBDBD" stroke-width="2" stroke-linecap="round" stroke-linejoin="round"/>
<path d="M91.2 11L97.2 5" stroke="#BDBDBD" stroke-width="2" stroke-linecap="round" stroke-linejoin="round"/>
<path d="M83.2 22H79.2V18" stroke="#BDBDBD" stroke-width="2" stroke-linecap="round" stroke-linejoin="round"/>
<path d="M85.2 17L79.2 23" stroke="#BDBDBD" stroke-width="2" stroke-linecap="round" stroke-linejoin="round"/>
<path d="M96.2 18V22H92.2" stroke="#BDBDBD" stroke-width="2" stroke-linecap="round" stroke-linejoin="round"/>
<path d="M91.2 17L97.2 23" stroke="#BDBDBD" stroke-width="2" stroke-linecap="round" stroke-linejoin="round"/>
<path d="M79.2 9V5H83.2" stroke="#BDBDBD" stroke-width="2" stroke-linecap="round" stroke-linejoin="round"/>
<path d="M85.2 11L79.2 5" stroke="#BDBDBD" stroke-width="2" stroke-linecap="round" stroke-linejoin="round"/>
<path opacity="0.2" d="M173.4 6L162.9 16L152.4 6H173.4Z" fill="#BDBDBD"/>
<path d="M152.4 6H173.4V21.1111C173.4 21.3469 173.308 21.573 173.144 21.7397C172.98 21.9064 172.757 22 172.525 22H153.275C153.043 22 152.82 21.9064 152.656 21.7397C152.492 21.573 152.4 21.3469 152.4 21.1111V6Z" stroke="#BDBDBD" stroke-width="2" stroke-linecap="round" stroke-linejoin="round"/>
<path d="M173.4 6L162.9 16L152.4 6" stroke="#BDBDBD" stroke-width="2" stroke-linecap="round" stroke-linejoin="round"/>
<path opacity="0.2" d="M236.1 14C241.347 14 245.6 11.7614 245.6 9C245.6 6.23858 241.347 4 236.1 4C230.853 4 226.6 6.23858 226.6 9C226.6 11.7614 230.853 14 236.1 14Z" fill="#BDBDBD"/>
<path d="M236.1 14C241.347 14 245.6 11.7614 245.6 9C245.6 6.23858 241.347 4 236.1 4C230.853 4 226.6 6.23858 226.6 9C226.6 11.7614 230.853 14 236.1 14Z" stroke="#BDBDBD" stroke-width="2" stroke-linecap="round" stroke-linejoin="round"/>
<path d="M226.6 9V14C226.6 16.7614 230.853 19 236.1 19C241.347 19 245.6 16.7614 245.6 14V9" stroke="#BDBDBD" stroke-width="2" stroke-linecap="round" stroke-linejoin="round"/>
<path d="M226.6 14V19C226.6 21.7614 230.853 24 236.1 24C241.347 24 245.6 21.7614 245.6 19V14" stroke="#BDBDBD" stroke-width="2" stroke-linecap="round" stroke-linejoin="round"/>
<path opacity="0.2" d="M300.857 5.19933L307.316 22.424C307.379 22.5939 307.494 22.7402 307.643 22.8432C307.793 22.9462 307.97 23.0009 308.151 23C308.333 22.9991 308.51 22.9426 308.658 22.8381C308.806 22.7337 308.919 22.5862 308.981 22.4157L311.569 15.2996C311.613 15.1777 311.684 15.067 311.775 14.9753C311.867 14.8836 311.978 14.8131 312.1 14.7688L319.216 12.1811C319.386 12.1191 319.534 12.0063 319.638 11.858C319.743 11.7096 319.799 11.5328 319.8 11.3513C319.801 11.1699 319.746 10.9925 319.643 10.8431C319.54 10.6937 319.394 10.5795 319.224 10.5158L301.999 4.05652C301.84 3.99667 301.666 3.98404 301.5 4.02012C301.333 4.0562 301.18 4.13947 301.06 4.25999C300.939 4.3805 300.856 4.53317 300.82 4.69974C300.784 4.86631 300.797 5.03975 300.857 5.19933Z" fill="#BDBDBD"/>
<path d="M300.857 5.19933L307.316 22.424C307.379 22.5939 307.494 22.7402 307.643 22.8432C307.793 22.9462 307.97 23.0009 308.151 23C308.333 22.9991 308.51 22.9426 308.658 22.8381C308.806 22.7337 308.919 22.5862 308.981 22.4157L311.569 15.2996C311.613 15.1777 311.684 15.067 311.775 14.9753C311.867 14.8836 311.978 14.8131 312.1 14.7688L319.216 12.1811C319.386 12.1191 319.534 12.0063 319.638 11.858C319.743 11.7096 319.799 11.5328 319.8 11.3513C319.801 11.1699 319.746 10.9925 319.643 10.8431C319.54 10.6937 319.394 10.5795 319.224 10.5158L301.999 4.05652C301.84 3.99667 301.666 3.98404 301.5 4.02012C301.333 4.0562 301.18 4.13947 301.06 4.25999C300.939 4.3805 300.856 4.53317 300.82 4.69974C300.784 4.86631 300.797 5.03975 300.857 5.19933Z" stroke="#BDBDBD" stroke-width="2" stroke-linecap="round" stroke-linejoin="round"/>
<path d="M311.8 15L319.8 23" stroke="#BDBDBD" stroke-width="2" stroke-linecap="round" stroke-linejoin="round"/>
<path opacity="0.2" d="M379.853 14C379.853 12.22 380.356 10.4799 381.298 8.99987C382.24 7.51983 383.579 6.36628 385.146 5.68509C386.712 5.0039 388.436 4.82567 390.099 5.17294C391.762 5.5202 393.29 6.37737 394.489 7.63604C395.688 8.89471 396.504 10.4984 396.835 12.2442C397.166 13.99 396.996 15.7996 396.347 17.4442C395.698 19.0887 394.6 20.4943 393.19 21.4832C391.78 22.4722 390.122 23 388.426 23H378.996C378.145 22.9991 377.303 22.8082 376.528 22.44C375.752 22.0718 375.06 21.5346 374.498 20.8642C373.935 20.1937 373.515 19.4054 373.265 18.5514C373.015 17.6974 372.941 16.7973 373.047 15.9109C373.154 15.0245 373.439 14.1721 373.883 13.4101C374.328 12.6482 374.921 11.9942 375.625 11.4916C376.329 10.9889 377.126 10.6491 377.964 10.4948C378.803 10.3404 379.663 10.3749 380.487 10.5961" fill="#BDBDBD"/>
<path d="M382 22H379.298C378.404 21.9992 377.52 21.8174 376.706 21.4667C375.891 21.116 375.164 20.6044 374.574 19.9659C373.983 19.3274 373.541 18.5765 373.278 17.7632C373.016 16.9499 372.938 16.0927 373.05 15.2485C373.162 14.4043 373.461 13.5924 373.928 12.8668C374.395 12.1411 375.018 11.5183 375.758 11.0396C376.497 10.5609 377.334 10.2373 378.215 10.0903C379.096 9.94322 379.999 9.97614 380.865 10.1868" stroke="#BDBDBD" stroke-width="2" stroke-linecap="round" stroke-linejoin="round"/>
<path d="M380 13.7494C380 12.3629 380.32 10.9964 380.934 9.7623C381.548 8.52822 382.438 7.46195 383.53 6.65136C384.623 5.84077 385.887 5.30905 387.218 5.10002C388.55 4.89099 389.91 5.01064 391.188 5.4491C392.466 5.88756 393.624 6.63228 394.567 7.6219C395.51 8.61153 396.212 9.81771 396.613 11.1411C397.015 12.4644 397.105 13.8671 396.877 15.2335C396.649 16.5998 396.108 17.8908 395.3 19" stroke="#BDBDBD" stroke-width="2" stroke-linecap="round" stroke-linejoin="round"/>
<path d="M384 18L387.5 14L391 18" stroke="#BDBDBD" stroke-width="2" stroke-linecap="round" stroke-linejoin="round"/>
<path d="M388 23V14" stroke="#BDBDBD" stroke-width="2" stroke-linecap="round" stroke-linejoin="round"/>
</svg>
