<svg width="261" height="183" viewBox="0 0 261 183" fill="none" xmlns="http://www.w3.org/2000/svg">
<path d="M220.672 145.456C217.703 147.18 215.854 149.306 215.121 151.534C215.127 149.798 215.131 148.061 215.136 146.325C215.868 144.098 217.718 141.973 220.687 140.247C228.604 135.647 241.481 135.647 249.45 140.247C253.433 142.546 255.435 145.559 255.451 148.574C255.445 150.309 255.441 152.045 255.437 153.781C255.42 150.768 253.418 147.754 249.434 145.456C241.466 140.856 228.589 140.856 220.672 145.456Z" fill="#ECBD1C"/>
<path d="M215.122 151.534C214.884 152.257 214.764 152.992 214.761 153.724L214.776 148.517C214.779 147.782 214.898 147.048 215.137 146.325C215.134 147.193 215.131 148.061 215.129 148.93C215.129 149.134 215.128 149.407 215.127 149.611C215.126 149.943 215.125 150.275 215.124 150.607C215.124 150.796 215.123 151.047 215.123 151.235C215.123 151.325 215.137 151.445 215.122 151.534Z" fill="#ECBD1C"/>
<path d="M255.451 148.629L255.437 153.838C255.428 156.833 253.459 159.823 249.526 162.109C241.608 166.708 228.731 166.708 220.766 162.112C216.757 159.797 214.753 156.758 214.762 153.725L214.776 148.517C214.768 151.55 216.771 154.588 220.78 156.902C228.746 161.5 241.623 161.5 249.54 156.899C253.473 154.615 255.443 151.624 255.451 148.629Z" fill="#EEB61D"/>
<path d="M255.436 153.839V153.781C255.441 152.045 255.445 150.309 255.45 148.573V148.63C255.446 150.192 255.441 152.276 255.436 153.839Z" fill="#ECBD1C"/>
<path d="M249.45 140.247C257.415 144.844 257.457 152.3 249.54 156.899C241.623 161.499 228.746 161.499 220.78 156.902C212.812 152.302 212.77 144.847 220.688 140.247C228.604 135.647 241.481 135.647 249.45 140.247Z" fill="#F28917"/>
<path d="M220.687 143.151C228.604 138.552 241.481 138.552 249.45 143.151C252.808 145.09 254.752 147.537 255.291 150.064C256.037 146.574 254.091 142.925 249.45 140.247C241.481 135.647 228.604 135.647 220.687 140.247C216.108 142.907 214.198 146.522 214.936 149.988C215.471 147.488 217.383 145.071 220.687 143.151Z" fill="#D6791D"/>
<path d="M260.999 148.646L260.985 153.854C260.975 157.665 258.469 161.472 253.462 164.38C243.388 170.233 226.999 170.233 216.859 164.38C211.755 161.435 209.205 157.567 209.216 153.707L209.231 148.498C209.22 152.359 211.769 156.226 216.873 159.172C227.014 165.025 243.402 165.025 253.476 159.171C258.483 156.264 260.989 152.457 260.999 148.646Z" fill="#F28917"/>
<path d="M220.78 156.902C228.746 161.5 241.623 161.5 249.54 156.899C257.457 152.3 257.415 144.844 249.45 140.247C241.481 135.647 228.604 135.647 220.687 140.247C212.77 144.847 212.812 152.303 220.78 156.902ZM253.361 137.975C263.501 143.827 263.553 153.318 253.476 159.171C243.403 165.025 227.014 165.025 216.873 159.172C206.731 153.318 206.677 143.828 216.751 137.975C226.828 132.121 243.218 132.121 253.361 137.975Z" fill="#FAB717"/>
<path d="M236.452 154.399L236.228 156.047L233.228 155.638L233.442 154.064C231.327 153.685 229.317 153.004 228.115 152.281L230.081 149.948C231.406 150.718 233.228 151.345 234.866 151.568C236.292 151.762 236.831 151.623 236.879 151.267C237.058 149.961 228.679 149.893 229.207 146.02C229.436 144.342 231.373 143.17 234.908 143.303L235.129 141.685L238.13 142.093L237.913 143.682C239.473 144 240.967 144.491 242.115 145.131L240.259 147.463C238.861 146.745 237.512 146.303 236.214 146.126C234.746 145.927 234.238 146.16 234.189 146.516C234.019 147.763 242.395 147.845 241.873 151.675C241.655 153.278 239.805 154.448 236.452 154.399Z" fill="#FAB717"/>
<path d="M208.803 67.3942L207.247 67.2288V140.62L205.812 140.362L203.751 148.953C203.751 148.953 212.247 148.723 212.247 141.513V73.5549C212.247 68.9221 210.058 67.6722 208.803 67.3942Z" fill="#3670C0"/>
<path d="M204.199 67.5559L120.265 49.1845V49.1956C118.689 48.7411 117.027 48.4917 115.305 48.4917C105.453 48.4917 97.4648 52.5268 97.4648 62.3762C97.4648 72.2265 105.453 80.2108 115.305 80.2108C117.027 80.2108 118.689 79.9623 120.265 79.5069V124.777C120.265 127.96 122.492 130.707 125.605 131.367L201.403 148.803C205.594 149.692 209.539 146.496 209.539 142.214V74.1453C209.539 70.9637 207.312 68.2164 204.199 67.5559Z" fill="#354BA6"/>
<path d="M187.539 79.5061L187.11 79.3795V151.738L185.674 151.485L183.613 159.953C183.613 159.953 192.108 159.726 192.108 152.618V85.616C192.108 82.792 190.248 80.3042 187.539 79.5061Z" fill="#3670C0"/>
<path d="M184.159 80.1358L103.125 62.1746L100.587 52.595C97.5388 57.358 97.4648 60.9746 97.4648 60.9746V134.858C97.4648 138.041 99.6919 140.788 102.805 141.448L181.362 159.803C185.553 160.692 189.499 157.497 189.499 153.215V86.7252C189.499 83.5446 187.272 80.7963 184.159 80.1358Z" fill="#3551AB"/>
<path d="M208.803 67.3942L120.16 47.9005C116.559 47.1633 113.059 47.0303 109.755 47.5023C105.857 48.0584 102.605 49.5744 100.588 52.5952C98.6443 55.5069 98.9946 57.8016 99.6313 59.2141C101.993 64.4575 111.946 66.0353 113.353 66.233L186.454 82.4695C186.454 82.4695 189.364 82.9905 189.5 87.5346C189.5 87.5346 191.5 80.7079 187.421 79.4792C187.322 79.4367 187.218 79.4025 187.11 79.3794L113.954 63.131L113.84 63.1106C111.354 62.7707 103.94 61.0857 102.513 57.9162C102.345 57.5458 101.838 56.416 103.218 54.3485C104.728 52.0852 107.206 51.058 110.202 50.6293C113.146 50.2099 116.285 50.3328 119.518 50.9933L207.248 70.3005H207.249L207.33 70.3171C207.634 70.3845 208.746 70.7125 209.182 71.9799C209.526 72.9841 209.568 71.2778 209.559 70.0898C209.787 69.8755 209.956 69.5938 210.025 69.2649C210.205 68.4104 209.658 67.5734 208.803 67.3942Z" fill="#3670C0"/>
<path d="M197.067 110.824L168.153 103.794C165.915 103.303 163.726 103.572 161.8 104.387L161.787 104.376L161.553 104.493C161.302 104.608 161.058 104.732 160.817 104.865L156.918 106.828L157.565 107.63C156.186 109.4 155.346 111.627 155.346 114.091V114.73C155.346 119.681 158.792 123.965 163.63 125.027L192.622 132.084L194.32 134.193C194.303 134.204 196.851 132.935 197.752 132.486L197.959 132.383L198.067 132.329V132.314C199.075 131.719 199.781 130.638 199.781 129.352V114.197C199.781 112.575 198.652 111.172 197.067 110.824Z" fill="#354BA6"/>
<path d="M191.547 134.78L159.592 127.082C154.754 126.021 151.308 121.736 151.308 116.785V116.146C151.308 109.413 157.536 104.406 164.115 105.849L193.028 112.879C194.613 113.226 195.742 114.63 195.742 116.252V131.405C195.742 133.612 193.702 135.252 191.547 134.78Z" fill="#3E60B6"/>
<path d="M167.093 116.866C167.093 119.625 164.855 121.863 162.095 121.863C159.334 121.863 157.096 119.625 157.096 116.866C157.096 114.106 159.334 111.869 162.095 111.869C164.855 111.869 167.093 114.106 167.093 116.866Z" fill="#354BA6"/>
<path d="M175.775 55.9047C175.039 48.0997 171.276 41.4244 165.973 37.2886C164.255 35.95 162.381 34.8775 160.393 34.12C159.685 33.853 158.965 33.623 158.23 33.4345C157.167 33.1602 156.071 32.9754 154.964 32.8876C154.309 32.8341 153.648 32.8267 152.982 32.8414L152.97 32.8341L152.775 32.8516C152.39 32.8646 152.006 32.8729 151.619 32.9098C151.23 32.9458 150.847 32.9948 150.466 33.053L145.037 33.5287L145.146 34.6946C136.628 38.7324 131.125 48.8128 132.181 60.0082C132.967 68.3592 137.226 75.4225 143.124 79.4557C144.075 80.1089 145.071 80.6825 146.096 81.1666C146.787 81.4909 147.496 81.7828 148.214 82.0285C148.686 82.1901 149.162 82.3324 149.646 82.4581L149.755 83.6229L159.496 82.7056L159.827 82.3407C170.007 79.4308 176.948 68.3574 175.775 55.9047Z" fill="#F28917"/>
<path d="M169.194 56.5241C170.496 70.3551 161.792 82.4899 149.755 83.6234C149.083 83.6862 148.414 83.7139 147.749 83.7056C145.644 83.6862 143.587 83.3186 141.632 82.6488C140.914 82.4031 140.205 82.1112 139.515 81.7869C138.488 81.3019 137.493 80.7292 136.543 80.0761C130.643 76.0419 126.385 68.9786 125.597 60.6276C124.295 46.7966 132.999 34.6627 145.037 33.5292C146.166 33.423 147.282 33.4183 148.382 33.5079C149.49 33.5948 150.585 33.7805 151.648 34.0539C152.383 34.2424 153.104 34.4733 153.811 34.7403C155.799 35.4978 157.673 36.5694 159.392 37.9089C164.693 42.0437 168.458 48.719 169.194 56.5241Z" fill="#FAB717"/>
<path d="M156.598 72.6025L134.78 67.7572C133.485 65.4829 132.626 62.8445 132.357 59.991C131.46 50.4621 137.477 42.076 145.769 41.2963C146.187 41.2566 146.601 41.2372 147.014 41.2372C154.797 41.2372 161.582 48.1111 162.434 57.1595C163.023 63.4043 160.642 69.1577 156.598 72.6025Z" fill="#FBCA3C"/>
<path d="M133.277 60.0945C132.313 49.858 138.753 40.8806 147.661 40.0418C147.752 40.0335 147.842 40.0381 147.931 40.0317C147.179 39.9818 146.42 39.9688 145.65 40.0418C136.742 40.8806 130.301 49.858 131.265 60.0945C132.22 70.2266 140.073 77.7794 148.87 77.1208C140.918 76.5905 134.158 69.446 133.277 60.0945Z" fill="#D6791D"/>
<path d="M163.525 57.0578C162.645 47.7063 155.886 40.5618 147.931 40.0315C147.842 40.038 147.752 40.0333 147.661 40.0417C138.753 40.8805 132.313 49.8578 133.277 60.0943C134.158 69.4458 140.918 76.5904 148.87 77.1206C148.962 77.1132 149.05 77.1197 149.142 77.1105C158.05 76.2717 164.49 67.2934 163.525 57.0578Z" fill="#F28917"/>
<path d="M149.232 65.5097L149.317 67.9762L146.341 68.0778L146.26 65.7231C144.146 65.6612 142.078 65.1319 140.785 64.3531L142.258 60.476C143.68 61.2954 145.555 61.7868 147.179 61.7314C148.593 61.6824 149.088 61.3545 149.07 60.8205C149.003 58.8658 140.893 60.7235 140.693 54.924C140.608 52.4122 142.265 50.2423 145.706 49.6132L145.623 47.191L148.599 47.0884L148.68 49.4663C150.246 49.5679 151.78 49.9383 153.007 50.6081L151.64 54.4593C150.157 53.7314 148.773 53.4007 147.486 53.445C146.031 53.4949 145.581 53.955 145.6 54.488C145.664 56.355 153.775 54.5194 153.972 60.2524C154.054 62.6515 152.48 64.7974 149.232 65.5097Z" fill="#FBC015"/>
<path d="M111.412 152.21V152.153C111.417 150.428 111.422 148.704 111.427 146.979L111.428 147.036C111.423 148.589 111.416 150.658 111.412 152.21Z" fill="#ECBD1C"/>
<path d="M111.742 144.354V144.297C111.747 142.572 111.751 140.847 111.757 139.123V139.18C111.752 140.732 111.746 142.801 111.742 144.354Z" fill="#ECBD1C"/>
<path d="M103.746 1.52588e-05L104.54 2.06547C105.029 3.33593 106.033 4.34021 107.305 4.82878L109.371 5.62205L107.305 6.4162C106.033 6.90477 105.029 7.90903 104.54 9.17949L103.746 11.245L102.952 9.17949C102.463 7.90903 101.459 6.90477 100.188 6.4162L98.1218 5.62205L100.188 4.82878C101.459 4.34021 102.463 3.33593 102.952 2.06547L103.746 1.52588e-05Z" fill="#FAC761"/>
<path d="M53.5656 22.0452L54.1384 23.5337C54.4905 24.4486 55.214 25.1727 56.1301 25.5247L57.6191 26.0964L56.1301 26.6691C55.214 27.021 54.4905 27.7443 54.1384 28.6601L53.5656 30.1486L52.9937 28.6601C52.6407 27.7443 51.9173 27.021 51.0011 26.6691L49.5122 26.0964L51.0011 25.5247C51.9173 25.1727 52.6407 24.4486 52.9937 23.5337L53.5656 22.0452Z" fill="#FAC761"/>
<path d="M153.787 18.232L154.319 19.6162C154.646 20.469 155.32 21.1415 156.172 21.4689L157.558 22.0013L156.172 22.5336C155.32 22.8611 154.646 23.5344 154.319 24.3864L153.787 25.7706L153.255 24.3864C152.927 23.5344 152.254 22.8611 151.401 22.5336L150.016 22.0013L151.401 21.4689C152.254 21.1415 152.927 20.469 153.255 19.6162L153.787 18.232Z" fill="#FAC761"/>
<path d="M5.83476 66.2702L6.26655 67.3945C6.53281 68.0862 7.07935 68.6325 7.77127 68.8987L8.89497 69.3304L7.77127 69.7629C7.07935 70.0282 6.53281 70.5754 6.26655 71.2663L5.83476 72.3905L5.4021 71.2663C5.13584 70.5754 4.5893 70.0282 3.89738 69.7629L2.77368 69.3304L3.89738 68.8987C4.5893 68.6325 5.13584 68.0862 5.4021 67.3945L5.83476 66.2702Z" fill="#FAC761"/>
<path d="M201.029 43.6936L201.462 44.8178C201.728 45.5095 202.274 46.0559 202.966 46.3212L204.09 46.7537L202.966 47.1863C202.274 47.4516 201.728 47.9979 201.462 48.6896L201.029 49.8138L200.597 48.6896C200.331 47.9979 199.784 47.4516 199.092 47.1863L197.969 46.7537L199.092 46.3212C199.784 46.0559 200.331 45.5095 200.597 44.8178L201.029 43.6936Z" fill="#FAC761"/>
<path d="M34.3935 140.064C29.0364 143.175 25.6989 147.013 24.3777 151.031C24.3861 147.9 24.3945 144.764 24.4045 141.631C25.7258 137.613 29.0633 133.777 34.4204 130.663C48.7089 122.363 71.9455 122.363 86.3263 130.663C93.515 134.812 97.1262 140.25 97.1564 145.688C97.148 148.821 97.1379 151.956 97.1295 155.088C97.0993 149.65 93.4865 144.211 86.2994 140.064C71.9186 131.763 48.682 131.763 34.3935 140.064Z" fill="#ECBD1C"/>
<path d="M24.3785 151.031C23.9482 152.337 23.7314 153.661 23.728 154.985L23.7549 145.587C23.7583 144.262 23.9751 142.938 24.4053 141.631C24.4003 143.198 24.3953 144.764 24.3919 146.332C24.3902 146.701 24.3886 147.193 24.3886 147.56C24.3869 148.161 24.3852 148.759 24.3818 149.359C24.3818 149.698 24.3801 150.152 24.3785 150.492C24.3785 150.653 24.4037 150.872 24.3785 151.031Z" fill="#ECBD1C"/>
<path d="M97.156 145.792L97.1291 155.19C97.114 160.594 93.56 165.991 86.4619 170.115C72.1751 178.414 48.9368 178.416 34.5627 170.12C27.327 165.943 23.7125 160.46 23.7276 154.985L23.7545 145.587C23.7394 151.06 27.3522 156.543 34.5896 160.718C48.9637 169.016 72.2003 169.016 86.4888 160.715C93.5885 156.59 97.1409 151.194 97.156 145.792Z" fill="#EEB61D"/>
<path d="M86.326 130.663C100.7 138.959 100.777 152.414 86.4889 160.715C72.2004 169.016 48.9638 169.016 34.5897 160.718C20.2089 152.419 20.1334 138.963 34.4202 130.663C48.7086 122.363 71.9452 122.363 86.326 130.663Z" fill="#8CBAE7"/>
<path d="M34.4202 135.905C48.7087 127.604 71.9453 127.604 86.3261 135.905C92.3883 139.402 95.8954 143.818 96.8674 148.378C98.2122 142.082 94.7017 135.497 86.3261 130.663C71.9453 122.363 48.7087 122.363 34.4202 130.663C26.157 135.463 22.7104 141.987 24.0434 148.242C25.007 143.731 28.4587 139.369 34.4202 135.905Z" fill="#3757AF"/>
<path d="M107.169 145.818L107.143 155.218C107.123 162.098 102.601 168.965 93.5651 174.215C75.3868 184.775 45.811 184.775 27.5135 174.215C18.3001 168.898 13.7001 161.92 13.7203 154.953L13.7471 145.551C13.727 152.52 18.327 159.498 27.5387 164.817C45.8379 175.376 75.412 175.376 93.592 164.815C102.627 159.567 107.15 152.698 107.169 145.818Z" fill="#F28917"/>
<path d="M34.5897 160.718C48.9637 169.016 72.2003 169.016 86.4888 160.715C100.777 152.414 100.7 138.959 86.326 130.663C71.9452 122.362 48.7086 122.362 34.4201 130.663C20.1333 138.962 20.2088 152.419 34.5897 160.718ZM93.3821 126.563C111.681 137.125 111.777 154.25 93.5919 164.815C75.4119 175.376 45.8378 175.376 27.5386 164.817C9.23438 154.252 9.13867 137.125 27.317 126.563C45.502 115.998 75.0779 115.998 93.3821 126.563Z" fill="#FAB717"/>
<path d="M62.8711 156.202L62.4665 159.174L57.0523 158.437L57.4384 155.598C53.6208 154.915 49.9962 153.684 47.8271 152.38L51.3728 148.17C53.7652 149.559 57.0523 150.689 60.0087 151.092C62.5807 151.442 63.5544 151.192 63.6417 150.549C63.964 148.191 48.8445 148.071 49.7964 141.079C50.2094 138.051 53.7047 135.937 60.0842 136.177L60.4838 133.258L65.898 133.995L65.5069 136.86C68.3222 137.435 71.0167 138.321 73.0901 139.476L69.7392 143.685C67.2176 142.386 64.7833 141.592 62.4413 141.272C59.7921 140.913 58.8738 141.332 58.7865 141.975C58.481 144.226 73.5954 144.373 72.6553 151.285C72.2591 154.18 68.9216 156.289 62.8711 156.202Z" fill="#3757AF"/>
<path d="M37.3938 127.788C32.0367 130.903 28.6992 134.74 27.3779 138.758C27.3863 135.624 27.3947 132.491 27.4048 129.359C28.7244 125.34 32.0635 121.502 37.4207 118.39C51.7091 110.089 74.9457 110.089 89.3249 118.39C96.5153 122.537 100.126 127.976 100.157 133.414C100.148 136.547 100.138 139.681 100.13 142.814C100.1 137.375 96.4867 131.937 89.2997 127.788C74.9172 119.489 51.6823 119.489 37.3938 127.788Z" fill="#ECBD1C"/>
<path d="M27.3782 138.758C26.9479 140.064 26.7311 141.388 26.7278 142.714L26.753 133.312C26.758 131.988 26.9748 130.663 27.4051 129.359C27.4 130.924 27.395 132.491 27.3899 134.059C27.3899 134.426 27.3883 134.918 27.3866 135.289C27.3849 135.886 27.3832 136.487 27.3815 137.085C27.3815 137.425 27.3799 137.878 27.3799 138.219C27.3782 138.38 27.4034 138.598 27.3782 138.758Z" fill="#ECBD1C"/>
<path d="M100.156 133.516L100.129 142.917C100.113 148.322 96.5602 153.716 89.4621 157.84C75.1753 166.142 51.9371 166.142 37.563 157.845C30.3256 153.669 26.7127 148.186 26.7278 142.713L26.753 133.313C26.7396 138.786 30.3524 144.269 37.5898 148.447C51.9639 156.742 75.2005 156.742 89.489 148.442C96.587 144.318 100.141 138.921 100.156 133.516Z" fill="#EEB61D"/>
<path d="M89.3244 118.39C103.7 126.686 103.776 140.142 89.4889 148.441C75.2004 156.742 51.9638 156.742 37.5897 148.447C23.2089 140.144 23.1334 126.691 37.4202 118.39C51.7086 110.089 74.9452 110.089 89.3244 118.39Z" fill="#F28917"/>
<path d="M37.4204 123.631C51.7089 115.33 74.9454 115.33 89.3246 123.631C95.3868 127.129 98.8956 131.544 99.8676 136.104C101.214 129.807 97.7019 123.222 89.3246 118.39C74.9454 110.089 51.7089 110.089 37.4204 118.39C29.1589 123.19 25.7089 129.713 27.0436 135.967C28.0072 131.457 31.4589 127.095 37.4204 123.631Z" fill="#D6791D"/>
<path d="M110.169 133.545L110.142 142.945C110.124 149.824 105.601 156.692 96.5654 161.942C78.3871 172.503 48.8113 172.503 30.5121 161.942C21.3004 156.625 16.7004 149.647 16.7205 142.678L16.7474 133.28C16.7273 140.246 21.3272 147.225 30.5389 152.542C48.8364 163.103 78.4123 163.101 96.5922 152.542C105.626 147.292 110.15 140.423 110.169 133.545Z" fill="#F28917"/>
<path d="M37.5898 148.447C51.9639 156.742 75.2005 156.742 89.489 148.442C103.776 140.142 103.7 126.686 89.3244 118.39C74.9453 110.089 51.7087 110.089 37.4202 118.39C23.1334 126.691 23.209 140.144 37.5898 148.447ZM96.3839 114.288C114.681 124.85 114.779 141.977 96.5921 152.542C78.4121 163.101 48.8362 163.103 30.5387 152.542C12.2345 141.977 12.1371 124.85 30.3171 114.29C48.5021 103.723 78.078 103.723 96.3839 114.288Z" fill="#FAB717"/>
<path d="M65.8713 143.927L65.4667 146.903L60.0525 146.164L60.4386 143.324C56.621 142.641 52.9947 141.409 50.8257 140.105L54.373 135.895C56.7653 137.284 60.0525 138.415 63.0089 138.817C65.5808 139.167 66.5546 138.919 66.6419 138.276C66.9625 135.918 51.8447 135.797 52.7966 128.805C53.2096 125.778 56.7049 123.662 63.0861 123.905L63.4823 120.983L68.8965 121.721L68.507 124.588C71.3224 125.162 74.017 126.048 76.0903 127.203L72.7394 131.412C70.2178 130.115 67.7835 129.317 65.4415 129C62.7923 128.639 61.874 129.059 61.7867 129.703C61.4812 131.952 76.5956 132.102 75.6538 139.013C75.261 141.905 71.9218 144.016 65.8713 143.927Z" fill="#3757AF"/>
<path d="M29.2143 112.276C23.8555 115.389 20.518 119.226 19.1968 123.244C19.2052 120.112 19.2153 116.978 19.2237 113.845C20.5449 109.826 23.8824 105.989 29.2395 102.876C43.528 94.5749 66.7646 94.5749 81.1454 102.876C88.3341 107.025 91.9453 112.462 91.9755 117.902C91.9671 121.035 91.9587 124.167 91.9486 127.3C91.9184 121.862 88.3073 116.425 81.1202 112.276C66.7377 103.975 43.5011 103.975 29.2143 112.276Z" fill="#ECBD1C"/>
<path d="M19.197 123.244C18.7685 124.549 18.5517 125.875 18.5466 127.199L18.5735 117.799C18.5769 116.475 18.7937 115.149 19.2239 113.845C19.2189 115.411 19.2155 116.979 19.2105 118.544C19.2088 118.914 19.2071 119.405 19.2071 119.775C19.2054 120.374 19.2037 120.973 19.2021 121.572C19.2004 121.911 19.1987 122.366 19.1987 122.705C19.197 122.868 19.2239 123.084 19.197 123.244Z" fill="#ECBD1C"/>
<path d="M91.9767 118.002L91.9482 127.404C91.9331 132.807 88.3807 138.204 81.281 142.328C66.9942 150.628 43.7576 150.628 29.3818 142.331C22.1461 138.155 18.5316 132.672 18.5467 127.199L18.5735 117.799C18.5584 123.274 22.1729 128.755 29.4087 132.932C43.7828 141.228 67.021 141.228 81.3078 132.929C88.4076 128.804 91.96 123.408 91.9767 118.002Z" fill="#EEB61D"/>
<path d="M81.1454 102.876C95.5211 111.173 95.5967 124.627 81.3082 132.929C67.0214 141.228 43.7831 141.228 29.4091 132.932C15.0283 124.632 14.9527 111.177 29.2395 102.876C43.528 94.575 66.7645 94.575 81.1454 102.876Z" fill="#8CBAE7"/>
<path d="M29.2394 108.117C43.5279 99.8162 66.7645 99.8162 81.1453 108.117C87.2076 111.615 90.7163 116.03 91.6883 120.59C93.0314 114.293 89.521 107.709 81.1453 102.876C66.7645 94.5749 43.5279 94.5749 29.2394 102.876C20.9779 107.676 17.5296 114.199 18.8626 120.454C19.8263 115.945 23.2779 111.581 29.2394 108.117Z" fill="#3757AF"/>
<path d="M101.988 118.032L101.963 127.431C101.942 134.31 97.4214 141.179 88.3859 146.427C70.2059 156.989 40.6301 156.989 22.3326 146.429C13.1192 141.112 8.52089 134.132 8.53936 127.166L8.56625 117.766C8.5461 124.732 13.1461 131.71 22.3595 137.027C40.657 147.589 70.2328 147.589 88.4128 137.027C97.4465 131.779 101.969 124.91 101.988 118.032Z" fill="#F28917"/>
<path d="M29.4088 132.932C43.7829 141.228 67.0212 141.228 81.3079 132.929C95.5964 124.627 95.5209 111.172 81.1451 102.876C66.7643 94.575 43.5277 94.575 29.2392 102.876C14.9524 111.177 15.028 124.632 29.4088 132.932ZM88.2029 98.7758C106.5 109.337 106.598 126.463 88.4127 137.027C70.2328 147.589 40.6569 147.589 22.3594 137.027C4.05351 126.463 3.9578 109.337 22.1361 98.7758C40.3211 88.2109 69.8987 88.2109 88.2029 98.7758Z" fill="#FAB717"/>
<path d="M57.6921 128.414L57.2858 131.388L51.8716 130.65L52.2594 127.812C48.4418 127.129 44.8155 125.897 42.6465 124.593L46.1921 120.382C48.5845 121.772 51.8716 122.901 54.828 123.304C57.4016 123.655 58.3737 123.406 58.461 122.762C58.7833 120.406 43.6639 120.283 44.6174 113.291C45.0287 110.265 48.524 108.149 54.9052 108.391L55.3031 105.471L60.7173 106.207L60.3262 109.074C63.1415 109.649 65.8378 110.534 67.9094 111.689L64.5585 115.898C62.0385 114.6 59.6043 113.805 57.2606 113.486C54.6114 113.125 53.6948 113.546 53.6075 114.189C53.3003 116.438 68.4147 116.586 67.4746 123.499C67.0801 126.392 63.7409 128.502 57.6921 128.414Z" fill="#3757AF"/>
<path d="M29.812 98.002C24.4549 101.117 21.1174 104.954 19.7961 108.971C19.8045 105.838 19.8129 102.705 19.823 99.5729C21.1442 95.5534 24.4818 91.7151 29.8389 88.6036C44.1273 80.3027 67.3639 80.3027 81.7447 88.6036C88.9318 92.7506 92.5446 98.1883 92.5748 103.629C92.5648 106.761 92.5564 109.894 92.5463 113.028C92.5178 107.588 88.9049 102.151 81.7179 98.002C67.3371 89.7029 44.1005 89.7029 29.812 98.002Z" fill="#ECBD1C"/>
<path d="M19.7969 108.971C19.3667 110.277 19.1498 111.601 19.1465 112.927L19.1734 103.525C19.1768 102.201 19.3935 100.877 19.8238 99.5729C19.8187 101.139 19.8137 102.705 19.8104 104.27C19.8087 104.64 19.807 105.133 19.807 105.502C19.8053 106.1 19.8036 106.701 19.8003 107.298C19.8003 107.639 19.7986 108.092 19.7986 108.433C19.7969 108.595 19.8221 108.812 19.7969 108.971Z" fill="#ECBD1C"/>
<path d="M92.5745 103.73L92.5476 113.13C92.5325 118.536 88.9784 123.93 81.8804 128.055C67.5936 136.356 44.3553 136.356 29.9812 128.059C22.7454 123.883 19.1309 118.4 19.146 112.927L19.1729 103.527C19.1578 109 22.7707 114.481 30.0081 118.66C44.3822 126.956 67.6188 126.956 81.9072 118.655C89.0053 114.532 92.5577 109.134 92.5745 103.73Z" fill="#EEB61D"/>
<path d="M81.7445 88.6037C96.1186 96.8995 96.1941 110.354 81.9073 118.655C67.6189 126.956 44.3823 126.956 30.0082 118.66C15.6274 110.358 15.5518 96.9045 29.8386 88.6037C44.1271 80.3028 67.3637 80.3028 81.7445 88.6037Z" fill="#F28917"/>
<path d="M29.8386 93.8449C44.1271 85.544 67.3637 85.544 81.7445 93.8449C87.8051 97.3424 91.3138 101.758 92.2858 106.318C93.6323 100.021 90.1202 93.4354 81.7445 88.6036C67.3637 80.3027 44.1271 80.3027 29.8386 88.6036C21.5755 93.4035 18.1288 99.927 19.4618 106.18C20.4255 101.671 23.8771 97.3089 29.8386 93.8449Z" fill="#D6791D"/>
<path d="M102.59 103.759L102.561 113.159C102.543 120.038 98.0198 126.906 88.9844 132.155C70.806 142.717 41.2302 142.717 22.9327 132.155C13.7193 126.839 9.11932 119.86 9.13947 112.892L9.16632 103.493C9.14617 110.46 13.7462 117.438 22.9579 122.755C41.2571 133.317 70.8329 133.315 89.0112 122.755C98.0466 117.506 102.569 110.636 102.59 103.759Z" fill="#F28917"/>
<path d="M30.0088 118.66C44.3829 126.956 67.6195 126.956 81.908 118.655C96.1948 110.354 96.1192 96.8995 81.7452 88.6037C67.3643 80.3028 44.1278 80.3028 29.8393 88.6037C15.5525 96.9045 15.628 110.358 30.0088 118.66ZM88.8029 84.5036C107.1 95.0634 107.196 112.19 89.0111 122.755C70.8328 133.315 41.257 133.317 22.9578 122.755C4.65357 112.19 4.55786 95.0634 22.7362 84.5036C40.9212 73.9387 70.4987 73.9371 88.8029 84.5036Z" fill="#FAB717"/>
<path d="M58.2912 114.141L57.8849 117.116L52.4707 116.378L52.8569 113.538C49.0392 112.855 45.4146 111.623 43.2456 110.319L46.7913 106.11C49.1836 107.498 52.4708 108.629 55.4272 109.03C58.0008 109.381 58.9728 109.133 59.0601 108.49C59.3825 106.133 44.263 106.011 45.2149 99.0191C45.6279 95.9915 49.1232 93.8752 55.5027 94.1185L55.9023 91.1966L61.3165 91.935L60.9253 94.8016C63.7407 95.3756 66.4369 96.2617 68.5085 97.4163L65.1576 101.626C62.636 100.328 60.2017 99.531 57.8598 99.2138C55.2106 98.853 54.2923 99.2726 54.205 99.917C53.8994 102.168 69.0139 102.314 68.0721 109.227C67.6776 112.118 64.34 114.229 58.2912 114.141Z" fill="#FAB717"/>
<path d="M14.0249 126.782L17.0896 121.313L81.314 77.5037L83.9822 81.7259L14.0249 126.782Z" fill="#E6E7E8"/>
<path d="M96.0492 75.0357L85.1408 81.9387C84.4381 82.3901 83.5898 82.557 82.7684 82.4054C81.947 82.2538 81.2142 81.795 80.7191 81.1225C80.224 80.45 80.0038 79.6142 80.1032 78.7851C80.2026 77.956 80.6143 77.1959 81.2544 76.6595C81.3685 76.5563 81.4916 76.4633 81.6221 76.3818L92.5286 69.4789C93.1352 69.0922 93.8519 68.9153 94.5688 68.9753C95.2857 69.0353 95.963 69.3289 96.4969 69.811C97.0307 70.2931 97.3914 70.9371 97.5237 71.644C97.656 72.3509 97.5525 73.0817 97.2291 73.7241C97.0924 74.0054 96.9127 74.2638 96.6966 74.49C96.5051 74.6989 96.2875 74.8824 96.0492 75.0357Z" fill="#353635"/>
<path d="M96.694 74.4959L89.4785 71.4034L90.4228 70.8022L97.2188 73.7223C97.0861 74.0064 96.9089 74.2675 96.694 74.4959Z" fill="#FCB91F"/>
<path d="M95.0129 75.6906L94.0552 76.2938L86.7229 73.1497L87.6806 72.5446L95.0129 75.6906Z" fill="#FCB91F"/>
<path d="M92.2594 77.4331L91.3017 78.0305L83.9675 74.8979L84.9252 74.2909L92.2594 77.4331Z" fill="#FCB91F"/>
<path d="M89.4957 79.1832L88.538 79.7826L81.2517 76.6557C81.3674 76.5541 81.491 76.4619 81.6214 76.3799L82.1654 76.0372L89.4957 79.1832Z" fill="#FCB91F"/>
<path d="M78.673 72.6211L88.5566 87.8861L85.8214 89.619L75.9377 74.3521L78.673 72.6211Z" fill="#353635"/>
<path d="M92.8342 130.322L90.2101 124.628L29.6825 75.8322L26.6848 79.8265L92.8342 130.322Z" fill="#E6E7E8"/>
<path d="M15.1984 72.1959L25.5207 79.9471C26.185 80.4537 27.0174 80.6881 27.8485 80.6028C28.6797 80.5174 29.447 80.1187 29.9945 79.4878C30.5419 78.8568 30.8283 78.041 30.7953 77.2064C30.7623 76.3719 30.4125 75.5812 29.817 74.9954C29.7118 74.8828 29.5964 74.7802 29.4722 74.689L19.1519 66.9378C18.5781 66.5041 17.8778 66.2707 17.1585 66.2733C16.4392 66.276 15.7407 66.5146 15.1701 66.9526C14.5996 67.3905 14.1886 68.0035 14.0003 68.6975C13.812 69.3915 13.8568 70.1281 14.1277 70.7942C14.2406 71.0874 14.3982 71.3613 14.5951 71.6061C14.7697 71.828 14.9726 72.0263 15.1984 72.1959Z" fill="#353635"/>
<path d="M14.5988 71.6061L22.0383 69.0996L21.1438 68.4256L14.1353 70.7942C14.246 71.0876 14.4024 71.3616 14.5988 71.6061Z" fill="#FCB91F"/>
<path d="M16.179 72.9292L17.0792 73.609L24.6452 71.0603L23.7411 70.3806L16.179 72.9292Z" fill="#FCB91F"/>
<path d="M18.7842 74.888L19.6883 75.5582L27.2485 73.0229L26.3444 72.3413L18.7842 74.888Z" fill="#FCB91F"/>
<path d="M21.3984 76.8528L22.2949 77.5269L29.8168 74.9916C29.7099 74.8806 29.5939 74.7788 29.4701 74.6872L28.9548 74.3042L21.3984 76.8528Z" fill="#FCB91F"/>
<path d="M32.7135 71.177L21.6423 85.6033L24.2301 87.5488L35.3013 73.1187L32.7135 71.177Z" fill="#353635"/>
<path d="M105.411 104.166L101.416 102.749C100.794 102.528 100.111 102.853 99.8903 103.475C99.6695 104.097 99.9948 104.78 100.617 105.001L104.612 106.418C105.234 106.639 105.917 106.314 106.138 105.692C106.359 105.07 106.033 104.387 105.411 104.166Z" fill="#0F2336"/>
<path d="M101.494 104.482C102.849 105.655 104.963 107.005 107.557 107.057C107.915 107.067 108.266 107.166 108.577 107.345C108.888 107.524 109.15 107.778 109.338 108.083C110.137 109.372 110.204 111.498 103.136 112.455C103.136 112.455 101.22 112.798 97.2651 109.88C97.0257 109.703 96.8239 109.481 96.6714 109.225C96.5188 108.97 96.4186 108.687 96.3765 108.393C96.3345 108.098 96.3514 107.798 96.4263 107.511C96.5013 107.223 96.6327 106.953 96.813 106.716L98.263 104.823C98.4473 104.58 98.6791 104.378 98.9443 104.229C99.2095 104.08 99.5024 103.986 99.805 103.954C100.108 103.923 100.414 103.953 100.704 104.043C100.995 104.134 101.264 104.283 101.494 104.482Z" fill="#0F2336"/>
<path d="M69.6213 79.1122L100.914 102.136C100.914 102.136 99.956 107.097 95.788 109.263L62.176 90.3829L69.6213 79.1122Z" fill="#091D28"/>
<path d="M46.989 91.0186L13.2813 110.337C13.2813 110.337 9.13052 107.454 8.82788 102.772L39.6816 79.658L46.989 91.0186Z" fill="#091D28"/>
<path d="M36.4247 73.4252L34.3369 119.381H73.5362H74.4997V106.724L73.5362 75.9546L36.4247 73.4252Z" fill="#0F2336"/>
<path d="M5.06809 107.046L9.06281 105.628C9.6849 105.408 10.0102 104.725 9.78945 104.103C9.56867 103.481 8.88538 103.156 8.26329 103.376L4.26857 104.794C3.64648 105.014 3.32115 105.697 3.54193 106.319C3.76271 106.941 4.446 107.266 5.06809 107.046Z" fill="#0F2336"/>
<path d="M8.20506 105.11C6.85085 106.284 4.73812 107.634 2.14463 107.685C1.78583 107.695 1.43512 107.794 1.12414 107.973C0.813153 108.152 0.551672 108.406 0.363278 108.712C-0.437372 110 -0.50441 112.126 6.56353 113.085C6.56353 113.085 8.47896 113.426 12.4343 110.51C12.6737 110.333 12.8756 110.11 13.0282 109.855C13.1807 109.599 13.2809 109.316 13.323 109.022C13.3651 108.727 13.3481 108.427 13.2732 108.139C13.1982 107.851 13.0667 107.581 12.8864 107.344L11.4287 105.451C11.2444 105.21 11.0128 105.009 10.7483 104.861C10.4838 104.712 10.1918 104.619 9.89018 104.587C9.58854 104.556 9.28356 104.585 8.99384 104.675C8.70412 104.765 8.43574 104.913 8.20506 105.11Z" fill="#0F2336"/>
<path d="M54.156 132.329C54.3127 132.134 54.5084 131.975 54.7306 131.86C57.7149 130.328 79.6312 119.054 84.3508 116.011C84.6152 115.841 84.8239 115.697 84.9734 115.58C87.9844 113.256 85.5326 97.9638 72.5748 103.074L72.4158 103.141C70.8643 103.861 47.0765 115.013 41.9604 124.149L41.8838 124.273C41.3628 125.078 35.4786 134.388 39.6734 139.234C40.053 139.662 40.5566 139.961 41.1142 140.089C41.6717 140.218 42.2555 140.169 42.7841 139.95C45.4312 138.868 50.8863 136.318 54.156 132.329Z" fill="#091D28"/>
<path d="M35.4624 104.635L72.7099 105.671C73.2558 105.588 73.8069 105.544 74.359 105.539L74.6693 104.371C73.2328 104.313 74.4778 104.141 74.5161 104.007L74.3418 100.07C74.3073 99.936 74.4586 99.239 74.043 99.2907L35.6195 98.2988C35.5909 98.2993 35.5627 98.3054 35.5365 98.3169C35.5103 98.3283 35.4866 98.3449 35.4668 98.3655C35.4471 98.3862 35.4316 98.4105 35.4213 98.4372C35.411 98.4639 35.4061 98.4923 35.4068 98.5209L35.3168 102.218L35.2632 104.401C35.2608 104.43 35.2641 104.458 35.2729 104.486C35.2816 104.513 35.2957 104.538 35.3142 104.56C35.3327 104.581 35.3553 104.599 35.3808 104.612C35.4062 104.625 35.4339 104.633 35.4624 104.635Z" fill="#2E343D"/>
<path d="M74.9351 82.9113C74.9568 83.157 74.9645 83.4038 74.9581 83.6504C74.9409 84.2402 74.2935 84.7112 73.5081 84.715L36.4714 84.8816C35.8718 84.8816 35.3815 84.5255 35.3757 84.0755L35.4658 83.3919L74.9351 82.9113Z" fill="#091D28"/>
<path opacity="0.2" d="M80.6865 45.9207L60.992 46.1313C60.8504 46.1328 60.7099 46.1064 60.5785 46.0536C60.4471 46.0009 60.3273 45.9227 60.2261 45.8237C60.1249 45.7246 60.0442 45.6066 59.9886 45.4764C59.933 45.3462 59.9037 45.2063 59.9022 45.0647C59.9006 44.9232 59.9271 44.7829 59.9799 44.6516C60.0327 44.5203 60.1109 44.4008 60.21 44.2997C60.3091 44.1987 60.4271 44.1182 60.5574 44.0629C60.6876 44.0075 60.8275 43.9784 60.9691 43.9771L80.6635 43.7761C80.9494 43.7735 81.2246 43.8843 81.4289 44.0842C81.6332 44.2841 81.7499 44.5568 81.7534 44.8426C81.7529 45.1264 81.6407 45.3986 81.4411 45.6003C81.2414 45.8021 80.9704 45.9171 80.6865 45.9207Z" fill="white"/>
<path d="M56.3135 131.998C56.1281 131.771 55.8988 131.584 55.6393 131.448C52.4367 129.805 30.7597 118.653 26.0765 115.63C25.8501 115.515 25.6401 115.37 25.4521 115.199C21.4067 110.002 24.8889 97.6076 37.8143 102.678C37.8947 102.709 37.9713 102.743 38.0499 102.78C39.9117 103.645 63.3336 114.674 68.4593 123.739C68.4937 123.801 68.5282 123.86 68.5684 123.919C69.1143 124.768 73.5639 131.895 71.884 136.875C71.7117 137.381 71.436 137.846 71.0744 138.239C70.7129 138.633 70.2734 138.948 69.7839 139.163C69.2943 139.378 68.7654 139.488 68.2308 139.488C67.6961 139.488 67.1673 139.377 66.6779 139.161C63.8373 137.92 59.2345 135.521 56.3135 131.998Z" fill="#0F2336"/>
<path d="M42.702 131.362C42.702 131.362 39.5703 135.808 41.0815 138.236C41.0815 138.236 43.9892 139.374 46.9619 136.226C46.9619 136.226 47.5882 132.268 42.702 131.362Z" fill="#0F2336"/>
<path d="M59.9465 134.02C59.9465 134.02 62.9231 137.139 66.5529 137.792C66.5529 137.792 70.3263 136.85 68.5123 131.624C68.5085 131.624 62.1972 126.11 59.9465 134.02Z" fill="#091D28"/>
<path d="M83.0864 36.4077L38.0182 36.8616C36.2863 36.8757 34.5774 37.26 33.0062 37.9885C31.4351 38.7171 30.0379 39.773 28.9084 41.0857C28.6745 41.3498 28.4546 41.6259 28.2495 41.9129C26.7057 44.0307 27.6174 46.585 27.6404 49.2064L25.9414 51.3128L26.1521 71.8722C26.1666 73.4758 26.497 75.0608 27.1243 76.5368C27.7516 78.0127 28.6635 79.3507 29.8081 80.4742C30.9527 81.5978 32.3074 82.485 33.795 83.0852C35.2826 83.6853 36.8738 83.9867 38.4779 83.972H38.4951L71.3486 83.6389C72.9529 83.6238 74.5384 83.293 76.0148 82.6654C77.4911 82.0377 78.8293 81.1254 79.9529 79.9806C81.0765 78.8359 81.9635 77.481 82.5633 75.9935C83.1631 74.506 83.4638 72.9149 83.4484 71.3112V71.2882L83.0864 36.4077ZM75.6162 60.7969C75.6191 61.2109 75.5845 61.6242 75.5128 62.032C75.2374 63.5182 74.4547 64.8629 73.2981 65.8365C72.1415 66.8102 70.6827 67.3523 69.1708 67.3705L42.4582 67.6367C40.9463 67.6487 39.4771 67.1358 38.3013 66.1856C37.1254 65.2354 36.3159 63.9068 36.0108 62.4264C35.9305 62.0202 35.8882 61.6073 35.8844 61.1933C35.8706 59.4665 36.542 57.8046 37.7516 56.5717C38.9611 55.3389 40.6102 54.6355 42.3375 54.6158L69.0329 54.3478C70.7591 54.3309 72.4214 54.9999 73.6545 56.2078C74.8875 57.4157 75.5903 59.0635 75.6085 60.7892L75.6162 60.7969Z" fill="#0F2336"/>
<path d="M76.9316 53.2104H33.4341V69.1685H76.9316V53.2104Z" fill="#0F2336"/>
<path d="M32.8682 61.155C32.8681 61.5988 32.9085 62.0417 32.9888 62.4782C33.2975 64.0666 34.1478 65.4987 35.3949 66.5302C36.6419 67.5618 38.2083 68.1288 39.8269 68.1346L68.4109 68.1786C70.0303 68.1807 71.5999 67.6196 72.8507 66.5914C74.1014 65.5632 74.9555 64.132 75.2663 62.5433C75.3485 62.1076 75.3908 61.6654 75.3927 61.2221C75.3922 59.3749 74.6593 57.6033 73.3545 56.2954C72.0498 54.9875 70.2797 54.25 68.432 54.2444L39.848 54.1985C38.9327 54.197 38.0262 54.3757 37.18 54.7245C36.3339 55.0733 35.5648 55.5853 34.9166 56.2314C34.2684 56.8774 33.7539 57.6447 33.4024 58.4895C33.051 59.3343 32.8694 60.2401 32.8682 61.155Z" fill="#F0977E"/>
<path d="M32.9888 62.4782C33.2974 64.0666 34.1478 65.4987 35.3948 66.5302C36.6418 67.5618 38.2083 68.1288 39.8269 68.1346L68.4108 68.1786C70.0302 68.1807 71.5998 67.6196 72.8506 66.5914C74.1014 65.5632 74.9554 64.132 75.2662 62.5433C74.9575 60.9549 74.1072 59.5228 72.8601 58.4912C71.6131 57.4597 70.0467 56.8927 68.4281 56.8869L39.8441 56.8409C38.2249 56.8404 36.6558 57.4023 35.4053 58.4307C34.1547 59.459 33.3005 60.8898 32.9888 62.4782Z" fill="#F9C197"/>
<path d="M14.3503 36.9841L22.1059 32.5819L30.7464 47.7971L24.8067 51.1691L23.5693 49.9437L21.945 50.3553L14.3503 36.9841Z" fill="#F26E26"/>
<path d="M10.7889 40.1811L9.25195 48.9573L26.4835 51.973L28.0204 43.1968L10.7889 40.1811Z" fill="#F26E26"/>
<path d="M83.2691 42.0507L83.3649 51.4065L25.5017 51.9809L25.4806 49.9014C25.449 47.2775 26.2756 44.7151 27.8347 42.604L83.2691 42.0507Z" fill="#F26E26"/>
<path d="M42.5396 63.8281C42.5396 63.8281 46.2957 58.9701 51.1935 63.8281" stroke="#0F2336" stroke-width="2" stroke-miterlimit="10" stroke-linecap="round"/>
<path d="M57.9741 63.828C57.9741 63.828 61.7303 58.9701 66.628 63.828" stroke="#0F2336" stroke-width="2" stroke-miterlimit="10" stroke-linecap="round"/>
<path opacity="0.2" d="M81.6871 45.5798L61.9965 45.7905C61.8548 45.7917 61.7144 45.7651 61.583 45.7121C61.4517 45.6591 61.3321 45.5807 61.2311 45.4815C61.1301 45.3823 61.0496 45.2642 60.9942 45.1338C60.9389 45.0035 60.9097 44.8636 60.9085 44.722C60.9059 44.4367 61.0166 44.1621 61.2162 43.9582C61.4158 43.7544 61.6881 43.6379 61.9735 43.6344L81.6699 43.4429C81.8115 43.4416 81.9519 43.4683 82.0833 43.5213C82.2146 43.5743 82.3342 43.6527 82.4352 43.7519C82.5362 43.8511 82.6167 43.9692 82.6721 44.0995C82.7274 44.2299 82.7566 44.3698 82.7578 44.5114C82.7543 44.794 82.6403 45.064 82.4402 45.2637C82.2401 45.4634 81.9698 45.5769 81.6871 45.5798Z" fill="white"/>
<path opacity="0.2" d="M58.5049 49.8901L49.0675 49.9801C48.9475 49.9819 48.8283 49.9599 48.7167 49.9155C48.6052 49.8711 48.5035 49.8051 48.4175 49.7213C48.3316 49.6375 48.263 49.5376 48.2158 49.4272C48.1686 49.3168 48.1436 49.1982 48.1424 49.0782C48.1398 48.8358 48.2336 48.6023 48.4031 48.4289C48.5726 48.2555 48.804 48.1564 49.0465 48.1534L58.4857 48.0634C58.7282 48.0608 58.9618 48.1545 59.1353 48.324C59.3087 48.4934 59.4078 48.7247 59.4109 48.9672C59.4129 49.2098 59.3187 49.4433 59.1489 49.6166C58.9791 49.79 58.7475 49.889 58.5049 49.892V49.8901Z" fill="white"/>
</svg>
